<svg id="Layer_2" data-name="Layer 2" xmlns="http://www.w3.org/2000/svg" viewBox="0 0 1150.139 772.318" style="width: 100%; height: 100%;">
  <g id="Layer_2-2" data-name="Layer 2">
    <g>
      <g>
        <g>
          <g>
            <rect x="270.508" y="757.722" width="20.186" height="13.481" fill="#292a2e" opacity=".05"></rect>
            <rect x="64.127" y="757.722" width="20.186" height="13.481" fill="#292a2e" opacity=".05"></rect>
          </g>
          <rect x="45.623" y="486.114" width="263.574" height="271.152" fill="#f4f4f4"></rect>
          <rect x="45.623" y="486.114" width="263.574" height="271.152" fill="#292a2e" opacity=".03"></rect>
          <rect x="94.468" y="486.114" width="263.574" height="271.152" fill="#f4f4f4"></rect>
          <g>
            <rect x="319.352" y="757.722" width="20.186" height="13.481" fill="#292a2e" opacity=".05"></rect>
            <rect x="112.972" y="757.722" width="20.186" height="13.481" fill="#292a2e" opacity=".05"></rect>
          </g>
          <rect x="104.363" y="498.813" width="243.786" height="52.094" fill="#fff" opacity=".7"></rect>
          <rect x="104.363" y="563.658" width="243.786" height="52.094" fill="#fff" opacity=".7"></rect>
          <rect x="104.363" y="628.501" width="243.786" height="52.094" fill="#fff" opacity=".7"></rect>
          <circle cx="226.255" cy="524.86" r="7.289" fill="#292a2e" opacity=".05"></circle>
          <circle cx="226.255" cy="589.705" r="7.289" fill="#292a2e" opacity=".05"></circle>
          <circle cx="226.255" cy="654.549" r="7.289" fill="#292a2e" opacity=".05"></circle>
          <g>
            <rect x="104.363" y="694.807" width="243.786" height="52.094" fill="#fff" opacity=".7"></rect>
            <circle cx="226.255" cy="720.854" r="7.289" fill="#292a2e" opacity=".05"></circle>
          </g>
        </g>
        <g>
          <rect x="772.59" y="11.615" width="148.784" height="193.661" fill="#f4f4f4"></rect>
          <rect x="921.374" y="11.615" width="4.826" height="193.661" transform="translate(1847.575 216.89) rotate(180)" fill="#f4f4f4"></rect>
          <rect x="921.374" y="11.615" width="4.826" height="193.661" transform="translate(1847.575 216.89) rotate(180)" fill="#292a2e" opacity=".05"></rect>
          <rect x="799.693" y="46.892" width="94.578" height="123.105" fill="#292a2e" opacity=".05"></rect>
          <rect x="889.342" y="46.892" width="4.929" height="123.105" fill="#292a2e" opacity=".03"></rect>
          <rect x="921.374" y="252.899" width="121.681" height="122.799" fill="#f4f4f4"></rect>
          <rect x="943.54" y="275.269" width="77.35" height="78.06" fill="#292a2e" opacity=".05"></rect>
          <rect x="1043.055" y="252.899" width="4.826" height="122.799" transform="translate(2090.937 628.597) rotate(180)" fill="#f4f4f4"></rect>
          <rect x="1043.055" y="252.899" width="4.826" height="122.799" transform="translate(2090.937 628.597) rotate(180)" fill="#292a2e" opacity=".05"></rect>
          <rect x="1015.961" y="275.269" width="4.929" height="78.06" fill="#292a2e" opacity=".03"></rect>
        </g>
        <g>
          <rect id="c_3_c" x="25.068" y="0" width="411.982" height="411.982" fill="#f4f4f4"></rect>
          <rect id="c_3_c-2" data-name="c_3_c" x="20.346" y="0" width="4.722" height="411.982" fill="#f4f4f4"></rect>
          <rect id="c_3_c-3" data-name="c_3_c" x="20.346" y="0" width="4.722" height="411.982" fill="#292a2e" opacity=".05"></rect>
          <polygon id="c_3_c-4" data-name="c_3_c" points="124.872 283.889 124.872 176.102 213.166 176.102 213.166 238.724 349.934 238.724 349.934 349.605 408.063 349.605 408.063 411.982 349.934 411.982 338.736 411.982 44.886 411.982 44.886 283.889 124.872 283.889" fill="#292a2e" opacity=".05"></polygon>
          <g id="c_3_wh">
            <rect id="c_3_wh-2" data-name="c_3_wh" x="137.536" y="187.805" width="64.297" height="11.703" fill="#fffffa" opacity=".34"></rect>
            <rect id="c_3_wh-3" data-name="c_3_wh" x="137.536" y="212.057" width="64.297" height="11.703" fill="#fffffa" opacity=".34"></rect>
            <rect id="c_3_wh-4" data-name="c_3_wh" x="137.536" y="236.308" width="64.297" height="11.703" fill="#fffffa" opacity=".34"></rect>
          </g>
          <g id="c_3_wh-5" data-name="c_3_wh">
            <rect id="c_3_wh-6" data-name="c_3_wh" x="56.287" y="295.25" width="11.851" height="11.703" fill="#fffffa" opacity=".34"></rect>
            <rect id="c_3_wh-7" data-name="c_3_wh" x="56.287" y="319.502" width="11.851" height="11.703" fill="#fffffa" opacity=".34"></rect>
            <rect id="c_3_wh-8" data-name="c_3_wh" x="56.287" y="343.753" width="11.851" height="11.703" fill="#fffffa" opacity=".34"></rect>
            <rect id="c_3_wh-9" data-name="c_3_wh" x="78.211" y="295.25" width="11.851" height="11.703" fill="#fffffa" opacity=".34"></rect>
            <rect id="c_3_wh-10" data-name="c_3_wh" x="78.211" y="319.502" width="11.851" height="11.703" fill="#fffffa" opacity=".34"></rect>
            <rect id="c_3_wh-11" data-name="c_3_wh" x="78.211" y="343.753" width="11.851" height="11.703" fill="#fffffa" opacity=".34"></rect>
            <rect id="c_3_wh-12" data-name="c_3_wh" x="99.543" y="295.25" width="11.851" height="11.703" fill="#fffffa" opacity=".34"></rect>
            <rect id="c_3_wh-13" data-name="c_3_wh" x="99.543" y="319.502" width="11.851" height="11.703" fill="#fffffa" opacity=".34"></rect>
            <rect id="c_3_wh-14" data-name="c_3_wh" x="99.543" y="343.753" width="11.851" height="11.703" fill="#fffffa" opacity=".34"></rect>
          </g>
          <polygon points="25.068 203.68 107.965 203.68 107.965 0 114.821 0 114.821 203.68 338.736 203.68 338.736 0 345.592 0 345.592 203.68 437.05 203.68 437.05 210.536 345.592 210.536 345.592 411.982 338.736 411.982 338.736 210.536 114.821 210.536 114.821 411.982 107.965 411.982 107.965 210.536 25.068 210.536 25.068 203.68" fill="#fff"></polygon>
          <rect id="c_3_c-5" data-name="c_3_c" x="8.656" y="411.485" width="444.806" height="13.701" fill="#f4f4f4"></rect>
          <rect id="c_3_c-6" data-name="c_3_c" x="8.656" y="411.485" width="444.806" height="13.701" fill="#292a2e" opacity=".1"></rect>
          <rect id="c_3_c-7" data-name="c_3_c" x="2.234" y="411.485" width="6.422" height="13.701" fill="#292a2e" opacity=".1"></rect>
          <rect id="c_3_c-8" data-name="c_3_c" x="2.234" y="411.485" width="6.422" height="13.701" fill="#292a2e" opacity=".1"></rect>
        </g>
      </g>
      <g>
        <rect x="258.24" y="-69.081" width="633.66" height="907.426" rx="73.035" ry="73.035" transform="translate(190.437 959.702) rotate(-90)" fill="#292a2e"></rect>
        <path d="m1004.27,141.062v487.14c0,27.69-22.45,50.15-50.15,50.15H194.31c-27.69,0-50.15-22.46-50.15-50.15v-123.26h15.47c14.87,0,26.93-12.05,26.93-26.92v-186.78c0-14.87-12.06-26.92-26.93-26.92h-15.47v-123.26c0-27.69,22.46-50.15,50.15-50.15h759.81c27.7,0,50.15,22.46,50.15,50.15Z" fill="#fff"></path>
        <path d="m40.334,358.721h240.62v24.898c0,14.86-12.064,26.924-26.924,26.924H67.258c-14.86,0-26.924-12.064-26.924-26.924v-24.898h0Z" transform="translate(-223.988 545.276) rotate(-90)" fill="#292a2e"></path>
      </g>
      <g>
        <path d="m1063.08,639.884c-.256,0-.512-.098-.707-.293-1.409-1.409-3.706-27.262-9.893-104.234-2.53-31.488-4.921-61.229-6.665-79.304-.125-1.291-.626-1.441-.79-1.491-2.394-.724-9.652,5.007-13.708,10.022-.347.429-.976.496-1.406.149-.43-.348-.496-.977-.148-1.407,2.681-3.316,11.417-12.008,15.838-10.68.891.268,1.995,1.042,2.205,3.214,1.746,18.091,4.137,47.84,6.669,79.336,3.76,46.775,8.019,99.767,9.418,103.104.281.391.246.939-.105,1.291-.195.195-.451.293-.707.293Z" fill="#494949"></path>
        <ellipse cx="1025.484" cy="467.07" rx="38.507" ry="28.398" transform="translate(-66.796 744.012) rotate(-38.715)" fill="#bd0bad"></ellipse>
        <ellipse cx="1025.484" cy="467.07" rx="38.507" ry="28.398" transform="translate(-66.796 744.012) rotate(-38.715)" fill="#fff" opacity=".2"></ellipse>
        <path d="m1000.091,494.263c-.112,0-.226-.038-.319-.115-.212-.176-.242-.491-.065-.704l47.291-57.029c.176-.212.491-.243.704-.065.212.176.242.491.065.704l-47.291,57.029c-.099.119-.241.181-.385.181Z" fill="#fff"></path>
        <path d="m1073.395,627.658c-.109,0-.22-.018-.328-.056-.521-.181-.798-.751-.616-1.273l17.764-51.087c1.066-3.066,3.587-5.351,6.742-6.112,3.155-.762,6.44.123,8.786,2.365l9.392,8.971c.399.381.414,1.015.032,1.414-.381.399-1.013.415-1.413.032l-9.392-8.971c-1.854-1.77-4.444-2.468-6.937-1.867-2.49.601-4.48,2.405-5.322,4.825l-17.764,51.087c-.144.413-.53.672-.944.672Z" fill="#494949"></path>
        <ellipse cx="1117.474" cy="578.552" rx="28.398" ry="38.507" transform="translate(-117.803 818.47) rotate(-38.363)" fill="#bd0bad"></ellipse>
        <path d="m1055.01,636.626c-.452,0-.862-.309-.972-.768l-29.811-124.645c-.423-1.767-1.729-3.079-3.494-3.51-1.762-.43-3.528.133-4.718,1.507l-9.189,10.619c-.361.419-.992.463-1.41.102-.418-.362-.463-.993-.102-1.411l9.189-10.619c1.663-1.924,4.229-2.744,6.704-2.141,2.471.603,4.373,2.514,4.965,4.988l29.811,124.645c.128.537-.203,1.077-.74,1.205-.078.019-.156.027-.233.027Z" fill="#494949"></path>
        <ellipse cx="1016.029" cy="542.679" rx="38.507" ry="28.398" transform="translate(308.162 1451.382) rotate(-80.189)" fill="#bd0bad"></ellipse>
        <path d="m1063.081,639.884c-.04,0-.082-.002-.123-.007-.548-.068-.938-.567-.87-1.115l19.037-154.558c.429-3.485,2.779-6.296,6.134-7.335s6.881-.049,9.207,2.583l21.758,24.643c.365.414.326,1.046-.088,1.411-.413.365-1.044.328-1.412-.088l-21.758-24.642c-1.796-2.035-4.522-2.801-7.115-1.997-2.593.803-4.409,2.976-4.741,5.669l-19.037,154.558c-.062.507-.493.878-.991.878Z" fill="#494949"></path>
        <ellipse cx="1106.843" cy="499.151" rx="28.398" ry="38.507" transform="translate(134.314 1226.09) rotate(-61.051)" fill="#bd0bad"></ellipse>
        <ellipse cx="1117.474" cy="578.552" rx="28.398" ry="38.507" transform="translate(-117.803 818.47) rotate(-38.363)" fill="#fff" opacity=".2"></ellipse>
        <ellipse cx="1016.029" cy="542.679" rx="38.507" ry="28.398" transform="translate(308.162 1451.382) rotate(-80.189)" fill="#fff" opacity=".5"></ellipse>
        <ellipse cx="1106.843" cy="499.151" rx="28.398" ry="38.507" transform="translate(134.314 1226.09) rotate(-61.051)" fill="#fff" opacity=".5"></ellipse>
        <polygon points="1087.429 771.025 1038.732 771.025 1030.663 615.221 1095.498 615.221 1087.429 771.025" fill="#292a2e"></polygon>
        <polygon points="1087.429 771.025 1038.732 771.025 1030.663 615.221 1095.498 615.221 1087.429 771.025" fill="#fff" opacity=".3"></polygon>
        <path d="m1141.373,609.245c-.147,0-.293-.065-.392-.189l-47.798-60.386c-.172-.217-.135-.531.081-.703.215-.17.53-.135.702.082l47.798,60.386c.172.217.135.531-.081.703-.092.073-.201.108-.311.108Z" fill="#fff"></path>
        <path d="m1137.36,522.628c-.103,0-.206-.031-.295-.096l-61.166-44.663c-.223-.163-.271-.476-.109-.699.165-.223.479-.271.699-.109l61.166,44.663c.223.163.271.476.109.699-.099.134-.251.205-.404.205Z" fill="#fff"></path>
        <path d="m1006.985,579.976c-.042,0-.086-.005-.129-.017-.267-.071-.426-.345-.354-.612l19.472-72.953c.07-.266.342-.427.612-.354.267.071.426.345.354.612l-19.472,72.953c-.06.224-.262.371-.483.371Z" fill="#fff"></path>
      </g>
      <g>
        <g>
          <path d="m323.62,479.112v199.24h-129.31c-13.34,0-25.47-5.22-34.46-13.72-3.86-3.65-7.14-7.91-9.69-12.63-3.83-7.08-6-15.18-6-23.8v-123.26h15.47c10.41,0,19.44-5.9,23.91-14.54,1.78-3.4,2.84-7.23,3-11.29h137.08Z" fill="#f4f4f4"></path>
          <path d="m323.62,479.112v199.24h-129.31c-13.34,0-25.47-5.22-34.46-13.72-3.86-3.65-7.14-7.91-9.69-12.63-3.83-7.08-6-15.18-6-23.8v-123.26h15.47c10.41,0,19.44-5.9,23.91-14.54,1.78-3.4,2.84-7.23,3-11.29h137.08Z" fill="#292a2e" opacity=".03"></path>
          <path d="m367.039,479.112v199.24h-172.73c-13.34,0-25.47-5.22-34.46-13.72-3.86-3.65-7.14-7.91-9.69-12.63-3.83-7.08-6-15.18-6-23.8v-123.26h15.47c10.41,0,19.44-5.9,23.91-14.54,1.78-3.4,2.84-7.23,3-11.29h180.5Z" fill="#f4f4f4"></path>
          <path d="m358.249,490.402v46.31h-214.09v-31.77h15.47c10.41,0,19.44-5.9,23.91-14.54h174.71Z" fill="#fff" opacity=".7"></path>
          <rect x="144.16" y="548.042" width="214.09" height="46.31" fill="#fff" opacity=".7"></rect>
          <path d="m358.249,605.693v46.31h-208.09c-3.83-7.08-6-15.18-6-23.8v-22.51h214.09Z" fill="#fff" opacity=".7"></path>
          <circle cx="249.889" cy="513.558" r="6.48" fill="#292a2e" opacity=".05"></circle>
          <circle cx="249.889" cy="571.202" r="6.48" fill="#292a2e" opacity=".05"></circle>
          <circle cx="249.889" cy="628.846" r="6.48" fill="#292a2e" opacity=".05"></circle>
          <path d="m358.249,664.632v13.72h-163.94c-13.34,0-25.47-5.22-34.46-13.72h198.4Z" fill="#fff" opacity=".7"></path>
        </g>
        <g>
          <rect x="772.59" y="90.912" width="157.1" height="115.01" fill="#f4f4f4"></rect>
          <rect x="929.69" y="90.912" width="5.1" height="115.01" fill="#f4f4f4"></rect>
          <rect x="929.69" y="90.912" width="5.1" height="115.01" fill="#292a2e" opacity=".05"></rect>
          <rect x="801.21" y="90.912" width="99.86" height="77.76" fill="#292a2e" opacity=".05"></rect>
          <rect x="895.869" y="90.912" width="5.2" height="77.76" fill="#292a2e" opacity=".03"></rect>
          <rect x="929.69" y="256.212" width="74.58" height="129.66" fill="#f4f4f4"></rect>
          <rect x="953.1" y="279.832" width="51.17" height="82.42" fill="#292a2e" opacity=".05"></rect>
        </g>
        <g>
          <path d="m451.46,90.912v334.72H186.56v-134.39c0-14.87-12.06-26.92-26.93-26.92h-15.47v-123.26c0-27.69,22.46-50.15,50.15-50.15h257.15Z" fill="#f4f4f4"></path>
          <path d="m421.509,361.192v64.44h-234.95v-134.39c0-14.87-12.06-26.92-26.93-26.92h-15.47v-82.38h76v64.69h141.3v114.56h60.05Z" fill="#292a2e" opacity=".05"></path>
          <g id="c_3_wh-15" data-name="c_3_wh">
            <rect x="144.16" y="194.032" width="64.29" height="12.09" fill="#fffffa" opacity=".34"></rect>
            <rect x="144.16" y="219.082" width="64.29" height="12.09" fill="#fffffa" opacity=".34"></rect>
            <rect x="144.16" y="244.142" width="64.29" height="12.09" fill="#fffffa" opacity=".34"></rect>
          </g>
          <polygon points="451.46 210.432 451.46 217.512 356.969 217.512 356.969 425.632 349.89 425.632 349.89 217.512 144.16 217.512 144.16 210.432 349.89 210.432 349.89 90.912 356.969 90.912 356.969 210.432 451.46 210.432" fill="#fff"></polygon>
          <rect x="186.56" y="425.122" width="281.86" height="14.16" fill="#f4f4f4"></rect>
          <rect x="186.56" y="425.122" width="281.86" height="14.16" fill="#292a2e" opacity=".1"></rect>
        </g>
      </g>
      <path d="m1004.27,141.062v487.14c0,27.69-22.45,50.15-50.15,50.15H194.31c-27.69,0-50.15-22.46-50.15-50.15v-123.26h15.47c14.87,0,26.93-12.05,26.93-26.92v-186.78c0-14.87-12.06-26.92-26.93-26.92h-15.47v-123.26c0-27.69,22.46-50.15,50.15-50.15h759.81c27.7,0,50.15,22.46,50.15,50.15Z" fill="none"></path>
      <g>
        <g>
          <polyline points="612.356 385.526 399.553 486.859 398.981 285.173 612.356 183.269 612.356 385.526" fill="#367cff"></polyline>
          <g fill="none" opacity=".58">
            <polyline points="612.356 385.526 399.553 486.859 398.981 285.173 612.356 183.269 612.356 385.526" fill="#fff"></polyline>
          </g>
          <polyline points="612.356 385.524 750.586 486.86 751.158 285.175 612.356 183.269 612.356 385.524" fill="#367cff"></polyline>
          <g fill="none" opacity=".88">
            <polyline points="612.356 385.524 750.586 486.86 751.158 285.175 612.356 183.269 612.356 385.524" fill="#fff"></polyline>
          </g>
          <path d="m539.277,591.157l-141.798-104.109.002-.762.58-204.635,141.216,103.526v205.98Zm-138.794-105.625l135.794,99.7v-198.535l-135.232-99.14-.562,197.974Z" fill="#292a2e"></path>
          <path d="m536.277,590.573v-205.581l215.802-102.762.582,205.003-.856.409-215.528,102.931Zm3-203.687v198.93l210.378-100.473-.562-198.368-209.816,99.911Z" fill="#292a2e"></path>
          <path d="m398.06,489.231l-.581-205.003,216.378-103.338v205.583l-215.797,102.758Zm2.424-203.113l.562,198.368,209.811-99.908v-198.931l-210.373,100.471Z" fill="#292a2e"></path>
          <path d="m752.077,489.814l-141.221-103.53v-205.978l141.804,104.11-.002.762-.581,204.635Zm-138.221-105.05l135.238,99.143.562-197.974-135.8-99.702v198.533Z" fill="#292a2e"></path>
          <circle cx="537.777" cy="385.937" r="7.5" fill="#367cff"></circle>
          <circle cx="612.356" cy="183.269" r="7.5" fill="#367cff"></circle>
          <circle cx="537.777" cy="585.996" r="7.5" fill="#367cff"></circle>
          <circle cx="751.158" cy="284.603" r="7.5" fill="#367cff"></circle>
          <circle cx="398.981" cy="284.603" r="7.5" fill="#367cff"></circle>
          <circle cx="751.158" cy="488.885" r="7.5" fill="#367cff"></circle>
          <circle cx="398.981" cy="488.885" r="7.5" fill="#367cff"></circle>
          <circle cx="612.356" cy="385.937" r="7.5" fill="#367cff"></circle>
        </g>
        <path d="m634.781,250.419l-14.561,24.026c-.686,1.132-.378,2.604.722,3.355l24.049,16.533c1.138.782,2.694.494,3.476-.644.783-1.137.496-2.694-.644-3.476l-19.408-13.343c9.607-2.9,33.486-6.855,55.765,15.424,28.083,28.083,12.533,60.534,11.846,61.925-.615,1.236-.109,2.733,1.124,3.351,1.236.615,2.737.112,3.353-1.123.182-.367,17.897-37.004-12.787-67.688-23.366-23.366-49.095-19.831-60.167-16.76l11.508-18.989c.609-1.004.427-2.267-.368-3.062-.139-.139-.298-.264-.474-.372-1.181-.715-2.718-.338-3.434.843Z" fill="#bd0bad"></path>
      </g>
      <g>
        <g id="b_4_ha">
          <path d="m672.651,267.321l13.609,10.907-1.123-2.11c-.689-1.431-.235-3.229,1.157-3.992,1.485-.814,3.329-.209,4.055,1.297l8.77,18.055c2.302,4.74.406,10.451-4.275,12.872h0c-5.345,2.765-11.834,2.01-16.401-1.908l-10.099-8.694c-1.076-.923-1.439-2.498-.735-3.729.68-1.189,1.979-1.683,3.167-1.434.006-.046.017-.093.048-.133.057-.076.147-.108.235-.103l-1.87-1.604c-1.144-.981-1.498-2.686-.664-3.942.866-1.304,2.522-1.661,3.81-.986-.003-.032.003-.06.011-.092l-.767-.658c-.998-.856-1.392-2.551-.751-3.699.82-1.469,2.575-1.903,3.927-1.2l.032-.047-5.718-4.583c-1.231-.986-1.395-2.81-.333-4.002.997-1.118,2.746-1.154,3.914-.217Z" fill="#ff9e85"></path>
          <path id="b_4_ha_sh" d="m674.702,276.498c.017.026.038.051.064.071l5.606,4.387c.12.094.293.073.387-.047.094-.119.072-.293-.047-.387l-5.606-4.387c-.12-.094-.293-.073-.387.047-.073.094-.076.22-.017.316Z" fill="#0c0c0c" opacity=".2"></path>
          <path id="b_4_ha_sh-2" data-name="b_4_ha_sh" d="m672.367,281.941c.016.026.037.05.062.07l4.379,3.482c.119.095.292.075.387-.044.095-.119.076-.293-.044-.387l-4.379-3.482c-.119-.095-.292-.075-.387.044-.075.094-.078.221-.018.317Z" fill="#0c0c0c" opacity=".2"></path>
          <path id="b_4_ha_sh-3" data-name="b_4_ha_sh" d="m670.81,288.766c.017.028.04.053.068.074l2.107,1.596c.121.092.294.068.386-.053.093-.122.07-.294-.053-.386l-2.107-1.596c-.121-.092-.294-.068-.386.053-.071.094-.073.218-.014.312Z" fill="#0c0c0c" opacity=".2"></path>
        </g>
        <path d="m830.241,345.813l-71.565,27.317c-6.953,2.7-14.838,1.161-20.266-3.955l-63.542-59.902,26.529-28.141,54.658,51.527,60.184-22.897,14.002,36.051Z" fill="#367cff"></path>
        <g>
          <path d="m902.883,739.037s-3.234,16.762-18.928,17.696c-15.694.934-12.291,13.437-12.291,13.437h59.974v-29.964l-28.755-1.169Z" fill="#367cff"></path>
          <path d="m921.382,433.27s-.188-5.039-.148,6.391c.148,42.635.888,91.333,2.696,119.831,2.906,45.811,10.356,190.243,10.356,190.243l-39.409-.331-38.197-317.866,64.703,1.732Z" fill="#262626"></path>
          <path d="m876.878,483.546s-1.633,30.94-1.936,38.203c-.701,16.798-.944,34.191-.944,53.91l-6.212-51.695s4.546-16.201,9.092-40.418Z" fill="#0a0a0a"></path>
          <path d="m832.723,739.037s-3.234,16.762-18.928,17.696c-15.694.934-12.291,13.437-12.291,13.437h59.974v-29.964s-28.755-1.169-28.755-1.169Z" fill="#367cff"></path>
          <path d="m813.642,436.58s-3.491,145.715-2.979,152.837l14.656,159.213,38.758.716-3.777-165.688s2.664-45.705,13.707-88.145c5.666-21.777,9.034-44.087,10.147-66.562h0s-70.513,7.628-70.513,7.628Z" fill="#262626"></path>
          <path d="m921.81,433.265l.129.007s-.093-2.485-.129-.007Z" fill="#333"></path>
          <path d="m808.094,355.699c.813,9.548,4.766,69.12,5.548,80.881h107.697c.608-10.608,3.34-56.992,5.647-77.735,2.202-19.794,6.523-29.705,3.356-35.556-5.175-9.564-19.317-15.091-28.96-16.397-5.888-.797-14.745-1.369-14.745-1.369,0,0-.75,15.17-18.63,16.014-24.34,1.148-22.715-16.014-22.836-16.014-3.943,0-26.904,1.854-31.98,5.763-8.878,6.836-6.822,24.178-5.097,44.413Z" fill="#367cff"></path>
          <path d="m808.192,354.184c-.188,0-.346-.147-.357-.337l-.869-15.163c-.012-.198.14-.367.337-.378.194-.008.367.14.378.337l.869,15.163c.012.198-.14.367-.337.378-.007,0-.014,0-.021,0Z" fill="#0c0c0c"></path>
        </g>
        <path d="m944.622,435.956c6.014,0,11.746-2.76,15.495-7.562,4.189-5.365,5.305-12.516,2.951-18.902-1.112-3.017-27.196-72.09-32.162-84.888l-36.769,14.898c2.792,7.196,12.908,34.472,21.035,56.444l-13.502-1.467-4.25,39.094,45.074,2.268c.711.077,1.421.115,2.128.115Z" fill="#367cff"></path>
        <g>
          <path id="h_3_sk" d="m835.299,306.072c.113-.015,3.221,11.68,27.473,9.86,16.789-1.258,20.883-12.686,21.268-12.686-1.81-.385-4.75-.784-5.554-1.213-2.644-1.42-4.57-3.15-5.539-6.861-.758-2.902-1.144-14.075-1.144-19.68l-25.835,5.805c.36,6.323,2.88,20.982-5.953,23.576-1.47.429-3.053.824-4.715,1.199Z" fill="#ff9e85"></path>
          <path d="m846.861,293.729c10.185.804,23.268-3.497,25.753-17.085l2.242-12.261c2.485-13.588-2.637-25.909-15.431-28.249h0c-12.794-2.34-24.372,6.927-26.857,20.515l-.993,5.428c-.954,5.214-2.887,30.218,15.285,31.652Z" fill="#ff9e85"></path>
          <path d="m837.418,281.253c1.828-9.186,2.666-15.314,2.569-21.78-2.575-4.517-1.898-9.701-1.313-11.941-2.524,1.377-3.579,1.527-5.955,1.527,0,0,4.258-17.091,18.733-21.69,2.661-1.036,9.457-2.344,18.48-1.107,7.675,1.053,26.592,6.791,29.295,28.089h.001s0,.006,0,.012c.089.706,1.906,20.33,5.527,29.745,4.868,12.657,11.703,16.589,11.529,31.192-.223,18.784-34.755,21.284-55.584,19.879-20.829-1.405-32.456-8.254-32.606-21.791-.169-15.167,5.664-13.758,9.322-32.137Z" fill="#0a0a0a"></path>
        </g>
        <rect x="883.984" y="397.561" width="77.369" height=".716" transform="translate(493.434 1306.442) rotate(-88.04)" fill="#0c0c0c"></rect>
      </g>
      <path d="m1,772.318h1148.139c.552,0,1-.448,1-1,0-.552-.448-1-1-1H1c-.552,0-1,.448-1,1,0,.552.448,1,1,1Z" fill="#262626"></path>
    </g>
  </g>
</svg>