<svg id="Layer_2" data-name="Layer 2" xmlns="http://www.w3.org/2000/svg" viewBox="0 0 629.75 761.641" style="width: 100%; height: 100%;">
  <g id="Layer_2-2" data-name="Layer 2">
    <g>
      <g>
        <g>
          <path d="m283.986,47.337s-1.849,28.678-7.268,37.195c-15.6,24.518-20.358,43.827-5.191,58.518,15.167,14.691,112.98,16.026,120.776-17.272,6.564-28.033-6.789-31.21-9.778-54.433-1.353-10.508-5.152-32.553-5.152-32.553" fill="#0a0a0a"></path>
          <path id="sk" d="m367.403,120.455c-.169-.022-2.043,31.069-38.162,28.359-25.005-1.873-33.921-28.403-34.494-28.403,2.696-.573,7.236-1.406,8.433-2.045,3.937-2.116,8.809-4.317,10.078-11.963.731-4.407-.509-26.953-.127-31.412l38.383,8.567c-.536,9.417-4.29,31.249,8.866,35.113,2.189.639,4.547,1.227,7.023,1.785Z" fill="#ff9e85"></path>
          <path id="sh" d="m352.053,109.748c-.544-1.735-.867-3.244-1.155-5.957-.514-4.851-.24-9.311.251-13.856-7.754-1.032-15.198-4.294-21.214-9.294-.713,2.632-4.632,14.133-3.547,16.635,2.051,4.729,11.691,12.472,25.664,12.472Z" fill="#0c0c0c" opacity=".22"></path>
          <path d="m346.965,99.962c-15.148,1.293-31.391-4.999-35.214-25.197l-6.715-18.216c-3.822-20.198,3.687-38.579,22.705-42.178h0c19.017-3.599,34.293,2.688,38.115,22.886,0,0,2.359,11.556,2.723,15.465,1.371,14.741,1.371,45.278-21.614,47.24Z" fill="#ff9e85"></path>
          <path id="e1_eb" d="m365.403,45.51c-.07.655-2.536.587-5.818.071-3.282-.516-6.188-1.128-6.066-1.939.153-1.025,2.952-1.436,6.233-.919,3.282.516,5.76,1.758,5.65,2.788Z" fill="#0a0a0a"></path>
          <path d="m289.823,62.901l21.412,5.907c12.911-5.224,12.451-36.608,12.451-36.608,0,0,15.682,15.285,53.687,6.592,0,0-7.62-51.317-63.766-35.906-18.104,4.969-31.097,24.897-29.479,49.28,1.134,17.087,5.695,10.734,5.695,10.734Z" fill="#0a0a0a"></path>
          <path d="m310.831,80.704c-5.779,1.094-11.73-.96-13.353-9.664-1.078-5.782,3.613-10.171,9.392-11.265l3.711,3.309,5.219,16.679-4.969.94Z" fill="#ff9e85"></path>
          <g>
            <circle id="e1_eye" cx="357.236" cy="53.945" r="2.105" fill="#0a0a0a"></circle>
            <g id="e1_n">
              <path d="m348.676,71.92c-.426,0-.791-.322-.836-.755-.049-.463.287-.877.75-.925l4.46-.466-2.745-8.908c-.137-.444.113-.916.558-1.053.444-.137.915.112,1.053.557l3.046,9.887c.074.241.036.502-.103.712s-.364.347-.615.373l-5.479.573c-.03.003-.059.005-.088.005Z" fill="#0a0a0a"></path>
            </g>
            <g id="e1_m">
              <path d="m339.568,75.892c7.622.415,9.639,5.145,9.729,5.366.175.431-.032.922-.463,1.097-.428.175-.917-.03-1.095-.458-.085-.201-2.165-4.851-10.607-4.306-.474.032-.865-.322-.895-.786-.03-.464.322-.865.786-.895.911-.059,1.758-.062,2.545-.019Z" fill="#0a0a0a"></path>
            </g>
            <path id="e1_eb-2" data-name="e1_eb" d="m339.833,45.069c.202.627-2.08,1.565-5.289,2.425s-6.113,1.48-6.331.689c-.276-.999,2.115-2.51,5.324-3.37,3.209-.86,5.978-.731,6.296.256Z" fill="#0a0a0a"></path>
            <circle id="e1_eye-2" data-name="e1_eye" cx="336.124" cy="55.287" r="2.105" fill="#0a0a0a"></circle>
          </g>
          <path d="m299.07,55.779l-.264,8.032c1.525-1.834,3.728-3.11,6.285-3.414.635-.084,1.267-.076,1.883-.024,3.84,3.043,1.112,8.6,4.26,8.435,1.788-.094,5.865-4.315,6.842-6.933.62-1.66-3.848-8.029-3.826-9.801" fill="#0a0a0a"></path>
        </g>
        <g>
          <path d="m251.269,697.422s-13.232,19.558,1.205,35.822c14.437,16.264-1.121,25.165-1.121,25.165l-58.662-58.662,29.308-29.308,29.269,26.983Z" fill="#367cff"></path>
          <path d="m254.388,295.127s.26-6.97.205,8.841c-.091,26.256,2.407,95.639.651,185.064-1.403,71.483-51.164,194.148-51.164,194.148l44.88,32.213s67.51-109.499,78.224-217.898c5.484-55.487,16.704-204.764,16.704-204.764l-89.501,2.396Z" fill="#262626"></path>
          <path d="m392.877,718.085s4.473,23.186,26.182,24.479c21.709,1.292,17.001,18.587,17.001,18.587h-82.96v-41.448s39.776-1.617,39.776-1.617Z" fill="#367cff"></path>
          <path d="m403.421,299.707s6.81,201.563,6.102,211.414l-6.403,220.235-53.613.991-8.645-229.191s-5.667-63.222-20.942-121.928c-7.838-30.123-12.496-60.985-14.037-92.073h0s97.538,10.552,97.538,10.552Z" fill="#262626"></path>
          <path d="m332.694,442.615l4.471-68.367s4.592,28.422,4.592,52.92c0,11.974-2.466,59.384-2.466,59.384l-6.596-43.937Z" fill="#0a0a0a"></path>
          <path d="m253.796,295.121l-.178.01s.129-3.438.178-.01Z" fill="#333"></path>
        </g>
        <path d="m254.02,295.121l-.178.01s.129-3.438.178-.01Z" fill="#333"></path>
        <g>
          <path d="m411.32,187.826c-1.124,13.208-6.593,95.612-7.674,111.88h-148.973c-.841-14.673-4.62-78.835-7.812-107.529-3.046-27.381-9.023-41.089-4.642-49.184,7.159-13.23,26.721-20.875,40.059-22.681,8.145-1.102,20.396-1.893,20.396-1.893,0,0,1.037,20.983,25.771,22.151,33.669,1.588,31.421-22.151,31.588-22.151,5.454,0,36.614,3.453,44.237,7.971,20.773,12.301,9.436,33.444,7.05,61.435Z" fill="#367cff"></path>
          <g>
            <path d="m524.551,211.975c.72-1.984,2.959-2.977,4.927-2.144,1.846.781,2.644,2.982,1.96,4.866l-1.705,4.699,10.71-10.921c1.331-1.398,3.859-2.262,5.328-.665,1.273,1.212,4.215,1.586,4.693,3.857.016.012-.014,20.803-1.248,22.1h0c-5.238,5.501-17.901,6.565-24.965,3.772l-11.118-4.396,11.418-21.168Z" fill="#ff9e85"></path>
            <g fill="none" opacity=".1">
              <path d="m524.551,211.975c.72-1.984,2.959-2.977,4.927-2.144,1.846.781,2.644,2.982,1.96,4.866l-1.705,4.699,10.71-10.921c1.331-1.398,3.859-2.262,5.328-.665,1.273,1.212,4.215,1.586,4.693,3.857.016.012-.014,20.803-1.248,22.1h0c-5.238,5.501-17.901,6.565-24.965,3.772l-11.118-4.396,11.418-21.168Z" fill="#0c0c0c"></path>
            </g>
          </g>
          <g>
            <path d="m570.693,296.7l-191.073,28.559c-16.006,2.392-28.358-13.811-21.811-28.611l73.004-165.032c6.093-13.773,24.449-16.517,34.303-5.127l118.069,136.473c10.588,12.239,3.514,31.346-12.492,33.738Z" fill="#367cff"></path>
            <path d="m570.693,296.7l-191.073,28.559c-16.006,2.392-28.358-13.811-21.811-28.611l73.004-165.032c6.093-13.773,24.449-16.517,34.303-5.127l118.069,136.473c10.588,12.239,3.514,31.346-12.492,33.738Z" fill="#fff" opacity=".48"></path>
            <path d="m376.469,325.995c-6.508,0-12.555-2.971-16.61-8.292-4.72-6.191-5.657-14.138-2.508-21.257l73.005-165.031c2.931-6.626,8.959-11.222,16.125-12.293,7.165-1.067,14.273,1.562,19.013,7.04l118.069,136.473c5.094,5.889,6.521,13.763,3.817,21.063s-8.914,12.346-16.613,13.496l-191.073,28.56c-1.083.162-2.16.241-3.225.241Zm73.161-206.107c-.995,0-1.997.073-3.002.224-6.825,1.021-12.566,5.397-15.358,11.708l-73.005,165.031c-2.999,6.781-2.106,14.35,2.389,20.246,4.495,5.897,11.557,8.76,18.892,7.669l191.073-28.56c7.334-1.096,13.249-5.901,15.824-12.854,2.574-6.954,1.216-14.454-3.636-20.062l-118.069-136.473c-3.851-4.45-9.342-6.929-15.107-6.929Z" fill="#0c0c0c"></path>
            <path d="m446.373,197.002l-4.155-22.135,24.687-3.689,2.498,22.382,4.227,51.745-16.167,2.416-11.089-50.719Zm8.087,77.021c-1.312-8.772,4.006-16.481,12.542-17.758,8.537-1.275,15.877,4.542,17.188,13.314,1.303,8.714-4.015,16.422-12.552,17.697-8.536,1.276-15.875-4.54-17.178-13.254Z" fill="#fff"></path>
          </g>
          <path d="m538.175,228.296c-.335-1.552.51-2.711,1.541-3.321-.032-.042-.14-.123-.064-.175l-2.528.093c-1.528.056-2.965-.971-3.207-2.48-.251-1.566.736-2.967,2.157-3.351-.022-.02-.024-.054-.038-.08l-1.039.038c-1.437.053-2.79-.87-3.113-2.272-.434-1.886.95-3.6,2.783-3.667l2.397-.089c-.003-.013-.015-.02-.016-.033-.002-.017.014-.029.015-.045-1.335-.251-2.369-1.393-2.422-2.808-.179-1.734,1.686-2.795,3.236-2.852l4.896.199c1.535.062,2.934.89,3.733,2.202,3.401,5.59,11.937,20.402,6.99,20.585l-12.177.45c-1.405.052-2.849-1.019-3.145-2.394Z" fill="#ff9e85"></path>
          <g>
            <path d="m412.51,252.672c-.108-1.579-1.193-2.77-2.558-3.161.025-.058.049-.119.036-.186-.026-.117-.116-.185-.219-.222l2.928-.65c1.77-.393,3.111-2.002,2.937-3.806-.18-1.871-1.733-3.183-3.478-3.199.019-.029.011-.069.02-.103l1.203-.267c1.665-.37,2.941-1.834,2.891-3.539-.067-2.294-2.168-3.845-4.292-3.374l-2.776.616c0-.015.011-.027.008-.043-.002-.02-.025-.029-.031-.047,1.457-.688,2.301-2.308,1.937-3.946-.314-2.043-2.771-2.702-4.567-2.304l-16.202,3.301,3.844-2.81c1.541-1.127,2.079-3.291,1.034-4.889-1.114-1.704-3.413-2.108-5.035-.921l-20.988,15.345c-5.119,3.743-6.332,10.879-2.737,16.103h0c4.103,5.961,11.412,8.836,18.476,7.268l24.677-5.477c1.628-.361,3.005-2.025,2.892-3.689Z" fill="#ff9e85"></path>
            <g fill="none" opacity=".25">
              <path d="m393.169,238.036c.04.172.209.282.383.246l15.404-3.159c.176-.036.289-.208.253-.384-.021-.168-.208-.29-.384-.253l-15.404,3.159c-.176.036-.289.208-.253.384l.002.007Z" fill="#0c0c0c"></path>
            </g>
            <g fill="none" opacity=".25">
              <path d="m394.375,244.868c.04.172.209.282.383.246l17.191-3.525c.176-.036.289-.208.253-.384-.034-.161-.208-.289-.384-.253l-17.191,3.525c-.176.036-.289.208-.253.384l.002.007Z" fill="#0c0c0c"></path>
            </g>
            <g fill="none" opacity=".25">
              <path d="m395.639,252.275c.04.172.209.282.383.246l13.713-2.812c.176-.036.289-.208.253-.384-.04-.177-.208-.289-.384-.253l-13.713,2.812c-.176.036-.289.208-.253.384l.002.007Z" fill="#0c0c0c"></path>
            </g>
          </g>
          <path id="b_4_b" d="m383.415,271.605l-133.887,24.195c-.984.107-1.967.159-2.945.159-7.444,0-14.615-3.058-19.783-8.535-5.846-6.198-8.451-14.776-7.038-23.178l18.744-111.411c2.493-14.813,16.519-24.799,31.335-22.31,14.813,2.492,24.802,16.522,22.31,31.335l-12.781,76.695,98.159-12.328,5.886,45.376Z" fill="#367cff"></path>
          <g id="b_4_b-2" data-name="b_4_b">
            <path d="m249.527,296.295c-.235,0-.443-.167-.487-.407-.048-.269.131-.527.4-.576l133.424-24.111-5.762-44.419-97.67,12.266c-.162.019-.311-.035-.419-.148s-.158-.27-.132-.425l8.125-49.017c.045-.269.297-.459.57-.407.27.045.452.3.407.57l-8.016,48.361,97.5-12.244c.265-.033.518.157.553.428l5.886,45.376c.034.262-.143.504-.403.551l-133.887,24.196c-.03.005-.059.008-.089.008Z" fill="#0c0c0c"></path>
          </g>
          <rect x="270.703" y="238.752" width="8.722" height=".992" transform="translate(-34.359 46.486) rotate(-9.095)" fill="#0c0c0c"></rect>
        </g>
      </g>
      <path d="m555.467,761.641H113.998c-.426,0-.773-.346-.773-.773s.346-.773.773-.773h441.469c.427,0,.773.346.773.773s-.346.773-.773.773Z" fill="#3f3f3f"></path>
      <g>
        <path d="m143.273,517.573l-129.498-.087c-10.848-.007-17.423-11.977-11.61-21.136l64.818-102.127c5.41-8.523,17.85-8.515,23.248.016l64.68,102.215c5.801,9.167-.791,21.128-11.638,21.121Z" fill="#f4f4f4"></path>
        <path d="m68.488,490.976c.004-5.946,4.296-10.526,10.082-10.522,5.785.004,10.071,4.59,10.067,10.536-.004,5.905-4.296,10.485-10.081,10.481-5.786-.004-10.072-4.59-10.068-10.495Zm2.306-51.86l-.551-15.085,16.73.012-.571,15.084-2.349,34.722-10.958-.008-2.302-34.725Z" fill="#fff"></path>
      </g>
      <g>
        <path d="m193.843,182.354l-104.223-.07c-8.73-.006-14.022-9.64-9.344-17.011l52.167-82.194c4.354-6.86,14.366-6.853,18.711.013l52.056,82.264c4.668,7.377-.636,17.004-9.367,16.998Z" fill="#f4f4f4"></path>
        <path d="m133.657,160.951c.003-4.784,3.457-8.47,8.113-8.467s8.104,3.694,8.102,8.479c-.003,4.753-3.457,8.438-8.113,8.436s-8.104-3.694-8.102-8.447Zm1.855-41.731l-.444-12.141,13.464.01-.459,12.139-1.89,27.941-8.818-.006-1.853-27.943Z" fill="#fff"></path>
      </g>
      <g>
        <path d="m617.636,614.046l-113.739-.077c-9.528-.006-15.303-10.52-10.197-18.564l56.93-89.699c4.751-7.486,15.678-7.479,20.419.014l56.809,89.776c5.095,8.051-.694,18.557-10.222,18.55Z" fill="#f4f4f4"></path>
        <path d="m551.958,590.69c.003-5.222,3.772-9.244,8.854-9.24,5.081.003,8.845,4.03,8.842,9.252-.004,5.188-3.773,9.209-8.854,9.206-5.081-.004-8.845-4.03-8.841-9.218Zm2.024-45.545l-.484-13.248,14.693.01-.502,13.247-2.062,30.494-9.623-.007-2.021-30.496Z" fill="#fff"></path>
      </g>
    </g>
  </g>
</svg>