<svg id="Layer_2" data-name="Layer 2" xmlns="http://www.w3.org/2000/svg" viewBox="0 0 665.611 601.426" style="width: 100%; height: 100%;">
  <g id="Layer_2-2" data-name="Layer 2">
    <g>
      <g>
        <ellipse cx="355.337" cy="532.559" rx="310.274" ry="68.867" fill="#fff"></ellipse>
        <ellipse cx="355.337" cy="532.559" rx="310.274" ry="68.867" fill="#367cff" opacity=".16"></ellipse>
      </g>
      <g>
        <g>
          <g>
            <g>
              <path d="m422.34,81.972s7.132,38.763,15.882,49.49c25.191,30.884,34.778,56.418,16.484,78.867-18.295,22.45-151.3,40.003-167.276-4.095-13.45-37.126,4.226-43.601,4.561-75.711.152-14.529,1.781-45.166,1.781-45.166" fill="#0a0a0a"></path>
              <path id="sk" d="m313.776,187.212c.232-.03,2.802,42.611,52.338,38.893,34.294-2.569,46.521-38.954,47.307-38.954-3.697-.786-9.924-1.929-11.566-2.805-5.4-2.901-12.082-5.921-13.822-16.408-1.003-6.044.699-36.966.175-43.081l-52.641,11.749c.735,12.916,5.884,42.857-12.16,48.156-3.002.876-6.236,1.682-9.631,2.448Z" fill="#ff9e85"></path>
              <path id="sh" d="m334.829,172.527c.746-2.38,1.189-4.45,1.583-8.17.705-6.654.33-12.77-.344-19.003,10.634-1.416,20.844-5.888,29.094-12.746.978,3.61,6.353,19.383,4.865,22.814-2.813,6.485-16.034,17.105-35.198,17.105Z" fill="#0c0c0c" opacity=".22"></path>
              <path d="m345.028,163.78c20.84-.676,41.951-11.859,43.907-39.984l6.215-25.89c1.957-28.125-11.229-51.952-37.709-53.794h0c-26.481-1.842-46.274,9.177-48.231,37.302,0,0-1.354,16.119-1.22,21.502.504,20.297,5.417,61.89,37.038,60.864Z" fill="#ff9e85"></path>
              <path id="e1_eb" d="m307.322,98.593c.2.881,3.548.391,7.935-.84,4.387-1.231,8.246-2.531,7.95-3.617-.374-1.371-4.251-1.48-8.638-.25-4.387,1.231-7.563,3.32-7.247,4.707Z" fill="#0a0a0a"></path>
              <path d="m416.894,104.109l-28.213,11.49c-18.425-5.039-22.848-47.857-22.848-47.857,0,0-18.901,23.341-72.062,17.615,0,0,2.123-71.119,81.074-59.162,25.457,3.856,46.36,28.907,48.078,62.377,1.204,23.455-6.03,15.536-6.03,15.536Z" fill="#0a0a0a"></path>
              <path d="m391.144,131.737c8.047.56,15.822-3.195,16.632-15.311.538-8.049-6.557-13.271-14.604-13.831l-4.522,5.104-4.425,23.557,6.919.481Z" fill="#ff9e85"></path>
              <g>
                <circle id="e1_eye" cx="318.54" cy="107.335" r="2.887" transform="translate(-10.392 38.106) rotate(-6.736)" fill="#0a0a0a"></circle>
                <g id="e1_n">
                  <path d="m338.032,126.942c.58-.069,1.026-.566,1.018-1.162-.008-.638-.532-1.148-1.17-1.139l-6.149.082,2.306-12.575c.114-.627-.301-1.229-.929-1.344-.627-.114-1.229.3-1.344.928l-2.558,13.957c-.062.34.031.69.255.953s.552.414.898.41l7.554-.101c.041,0,.081-.003.121-.008Z" fill="#0a0a0a"></path>
                </g>
                <g id="e1_m">
                  <path d="m351.373,133.634c-10.268-2.039-14.556,3.559-14.751,3.823-.379.513-.271,1.236.242,1.615.509.378,1.229.271,1.611-.236.181-.238,4.526-5.71,15.557-2.116.618.204,1.259-.134,1.457-.74.197-.606-.134-1.258-.74-1.456-1.19-.388-2.315-.68-3.375-.891Z" fill="#0a0a0a"></path>
                </g>
                <path id="e1_eb-2" data-name="e1_eb" d="m342.079,93.879c-.174.887,3.085,1.797,7.593,2.452s8.564,1.032,8.734-.081c.215-1.405-3.285-3.078-7.794-3.733-4.509-.655-8.259-.034-8.534,1.361Z" fill="#0a0a0a"></path>
                <circle id="e1_eye-2" data-name="e1_eye" cx="347.824" cy="104.448" r="2.888" transform="translate(-9.851 41.522) rotate(-6.736)" fill="#0a0a0a"></circle>
              </g>
              <path d="m381.881,93.293c.315,2.41-4.745,11.803-3.634,13.964,1.752,3.409,7.984,8.502,10.435,8.342,4.315-.282-.296-7.412,4.445-12.174.831-.17,1.689-.282,2.568-.27,3.531.003,6.738,1.386,9.11,3.639l-1.652-10.898" fill="#0a0a0a"></path>
            </g>
            <g>
              <path d="m67.298,208.257c.98-1.921,2.977-2.834,4.897-2.593,0-.086.002-.175.055-.252.096-.132.244-.17.393-.16l-3.322-2.381c-2.008-1.439-2.828-4.173-1.645-6.341,1.227-2.249,3.875-3.062,6.071-2.148-.008-.047.023-.092.03-.14l-1.365-.978c-1.889-1.354-2.704-3.872-1.73-5.982,1.311-2.839,4.774-3.659,7.184-1.932l3.15,2.258c.009-.019,0-.04.013-.058.014-.023.046-.023.065-.043-1.457-1.641-1.649-4.123-.316-5.982,1.487-2.392,4.919-1.903,6.955-.444l18.539,12.805-3.314-5.579c-1.329-2.237-.845-5.237,1.32-6.681,2.308-1.54,5.405-.816,6.804,1.539l18.093,30.46c4.413,7.43,2.115,17.022-5.186,21.645h0c-8.331,5.275-19.029,4.968-27.043-.777l-27.996-20.067c-1.847-1.324-2.683-4.146-1.65-6.17Z" fill="#ff9e85"></path>
              <g fill="none" opacity=".25">
                <path d="m99.367,200.263c-.141.194-.413.241-.611.103l-17.614-12.2c-.201-.139-.251-.415-.112-.617.116-.199.416-.251.617-.112l17.614,12.2c.201.139.251.415.112.617l-.006.008Z" fill="#0c0c0c"></path>
              </g>
              <g fill="none" opacity=".25">
                <path d="m94.2,208.18c-.141.194-.413.241-.611.103l-19.658-13.616c-.201-.139-.251-.415-.112-.617.129-.183.416-.251.617-.112l19.658,13.616c.201.139.251.415.112.617l-.006.008Z" fill="#0c0c0c"></path>
              </g>
              <g fill="none" opacity=".25">
                <path d="m88.654,216.787c-.141.194-.413.241-.611.103l-15.681-10.861c-.201-.139-.251-.415-.112-.617.145-.2.416-.251.617-.112l15.681,10.861c.201.139.251.415.112.617l-.006.008Z" fill="#0c0c0c"></path>
              </g>
            </g>
            <path d="m132.727,196.581l63.137,86.436,67.292-86.436,48.684,49.939-91.95,119.084-.603.848c-3.207,4.404-7.446,8.159-12.593,10.866-17.963,9.447-40.184,2.543-49.63-15.42l-78.435-126.714,54.098-38.602Z" fill="#367cff"></path>
            <path d="m201.073,293.899c.104,0,.208-.024.307-.074.332-.169.464-.576.294-.908l-5.209-10.207c-.169-.332-.577-.463-.908-.294-.332.169-.464.576-.294.908l5.209,10.207c.119.233.356.368.601.368Z" fill="#0c0c0c"></path>
            <path d="m255.203,279.273c1.532,17.998,8.984,120.287,10.457,142.457h203.002c1.147-19.995,6.296-97.426,10.645-136.526,4.151-37.311,12.295-62.246,6.325-73.276-9.755-18.028-17.436-25.564-44.235-28.445-20.754-2.231-38.146,1.213-38.146,1.213,0,0-1.413,28.594-35.117,30.185-45.88,2.165-42.83-30.107-43.044-30.185-9.458-3.458-38.643-5.244-53.141,4.329-27.657,18.263-19.998,52.107-16.747,90.248Z" fill="#367cff"></path>
            <rect x="256.216" y="290.97" width="1.35" height="28.627" transform="translate(-16.885 15.046) rotate(-3.248)" fill="#0c0c0c"></rect>
          </g>
          <path d="m475.161,333.033c.406,0,.751-.312.784-.724l2.138-26.417c.035-.433-.287-.813-.721-.848-.43-.038-.813.288-.848.721l-2.138,26.417c-.035.433.287.813.721.848.022.002.043.003.064.003Z" fill="#292a2e"></path>
        </g>
        <g>
          <path d="m250.549,545.397s-27.132-3.793-36.7,19.554c-9.567,23.347-26.786,11.687-26.786,11.687l31.139-91.072,45.501,15.558-13.155,44.273Z" fill="#367cff"></path>
          <path id="l_1_bottom" d="m566.373,427.571c-21.795-17.436-45.376-16.257-116.587-15.584-25.652.208-139.472.077-197.589.352-17.74.084-45.87.658-60.907,1.826-37.883,2.942-48.544,9.654-51.435,21.797-.926,3.888-26.484,33.917,150.475,55.366h121.548c164.448-7.15,171.302-50.31,154.495-63.756Z" fill="#262626"></path>
          <path id="l_1_sh" d="m214.333,426.248c34.606-6.53,164.031,22.686,164.031,22.686,0,0,135.879-33.571,158.505-25.983,46.407,15.562-178.569,80.284-178.569,80.284,0,0-184.073-69.418-143.966-76.987Z" fill="#0a0a0a"></path>
          <path id="l_1_bottom-2" data-name="l_1_bottom" d="m238.546,497.634l4.078,50.956s233.124-29.329,300.851-39.387c15.628-2.321,47.135-16.251,37.537-53.624-8.408-32.741-14.804-38.486-71.203-30.429-50.049,7.15-271.264,72.484-271.264,72.484Z" fill="#262626"></path>
          <polygon id="l_1_sh-2" data-name="l_1_sh" points="240.986 523.916 242.625 548.59 358.512 534.64 240.986 523.916" fill="#0a0a0a"></polygon>
          <path d="m460.971,540.561s26.858-6.203,38.513,16.349c11.655,22.552,27.88,9.342,27.88,9.342l-39.271-88.52-44.226,19.621,17.104,43.207Z" fill="#367cff"></path>
          <path id="l_1_bottom-3" data-name="l_1_bottom" d="m474.284,480.28l-7.504,68.247s-245.407-19.184-310.848-39.324c-15.1-4.647-39.324-17.875-30.387-55.412,7.634-32.063,26.812-38.94,76.861-31.79,50.049,7.15,271.878,58.279,271.878,58.279Z" fill="#262626"></path>
        </g>
      </g>
      <g>
        <g id="b_4_ha">
          <path d="m242.946,353.846l30.135-10.563-4.326-.299c-2.865-.314-5.197-2.74-5.033-5.617.175-3.068,2.878-5.326,5.893-4.996l53.314,5.665-1.385,17.133c-.88,10.885-8.277,20.148-18.698,23.415l-23.088,7.192c-2.456.77-5.228-.185-6.446-2.452-1.177-2.19-.689-4.664.836-6.252-.066-.054-.127-.116-.159-.201-.061-.161-.026-.33.066-.461l-4.256,1.334c-2.75.862-5.86-.425-6.864-3.126-.926-2.489.123-5.178,2.292-6.449-.052-.026-.09-.062-.131-.105l-1.749.548c-2.456.77-5.228-.186-6.446-2.452-1.426-2.652-.415-5.726,1.931-7.13-.009-.036-.016-.072-.016-.108l-12.549,4.399c-2.616.917-5.481-.46-6.398-3.077-.917-2.616.46-5.481,3.077-6.398Z" fill="#ff9e85"></path>
          <path id="b_4_ha_sh" d="m259.311,359.412c.057,0,.114-.01.171-.03l12.139-4.414c.259-.094.394-.381.299-.641-.094-.259-.381-.392-.641-.299l-12.139,4.414c-.259.094-.394.381-.299.641.074.203.266.329.47.329Z" fill="#0a0a0a" opacity=".2"></path>
          <path id="b_4_ha_sh-2" data-name="b_4_ha_sh" d="m265.447,368.238c.056,0,.112-.009.167-.029l9.568-3.395c.26-.092.396-.378.304-.638-.092-.261-.378-.397-.638-.304l-9.568,3.395c-.26.092-.396.378-.304.638.073.205.266.333.471.333Z" fill="#0a0a0a" opacity=".2"></path>
          <path id="b_4_ha_sh-3" data-name="b_4_ha_sh" d="m274.457,377.193c.059,0,.12-.011.178-.033l4.481-1.709c.258-.098.387-.387.289-.645-.098-.26-.386-.39-.646-.289l-4.481,1.709c-.258.098-.387.387-.289.645.076.2.266.322.467.322Z" fill="#0a0a0a" opacity=".2"></path>
        </g>
        <path id="b_4_b" d="m300.594,391.143l186.838,30.975c1.356.147,2.712.22,4.061.22,10.264,0,20.15-4.216,27.274-11.767,8.061-8.545,11.652-20.372,9.703-31.955l-39.192-155.724c-3.437-20.423-22.775-34.19-43.202-30.759-20.423,3.436-34.195,22.778-30.759,43.202l29.905,107.357-135.764-18.546-8.865,66.997Z" fill="#367cff"></path>
        <g id="b_4_st">
          <path d="m469.577,346.183c.244,0,.457-.178.494-.426.041-.273-.147-.527-.42-.568l-23.288-3.487c-.283-.043-.528.147-.569.42-.041.273.147.527.42.568l23.288,3.487c.025.004.05.006.075.006Z" fill="#0c0c0c"></path>
        </g>
        <g id="b_4_st-2" data-name="b_4_st">
          <path d="m482.23,422.838c.248,0,.462-.184.495-.436.036-.273-.157-.524-.431-.561l-180.654-31.077,8.757-66.001,134.825,17.929c.158.019.315-.035.425-.148.11-.114.16-.274.134-.431l-14.589-62.941c-.045-.272-.298-.461-.576-.41-.272.046-.456.304-.41.576l14.477,62.273-134.661-17.907c-.133-.019-.269.02-.375.103s-.174.206-.188.34l-8.865,66.997c-.029.27.163.515.432.55l181.139,31.141c.022.003.044.004.065.004Z" fill="#0c0c0c"></path>
        </g>
      </g>
      <g>
        <path d="m307.708,406.739l-42.849-131.717c-1.545-4.748-5.97-7.962-10.964-7.962H79.325c-7.834,0-13.387,7.646-10.964,15.096l42.849,131.717c1.545,4.748,5.97,7.962,10.964,7.962h174.571c7.834,0,13.387-7.646,10.964-15.096Z" fill="#292a2e"></path>
        <rect x="267.482" y="411.154" width="127.402" height="10.68" rx="5.272" ry="5.272" fill="#292a2e"></rect>
        <g>
          <rect x="257.841" y="410.346" width="137.044" height="11.489" rx="5.744" ry="5.744" fill="#fff"></rect>
          <path d="m389.14,422.835h-125.555c-3.719,0-6.744-3.025-6.744-6.745s3.025-6.744,6.744-6.744h125.555c3.719,0,6.744,3.025,6.744,6.744s-3.025,6.745-6.744,6.745Zm-125.555-11.489c-2.616,0-4.744,2.128-4.744,4.744s2.128,4.745,4.744,4.745h125.555c2.616,0,4.744-2.129,4.744-4.745s-2.128-4.744-4.744-4.744h-125.555Z" fill="#292a2e"></path>
        </g>
        <g>
          <path d="m307.708,406.739l-42.849-131.717c-1.545-4.748-5.97-7.962-10.964-7.962H79.325c-7.834,0-13.387,7.646-10.964,15.096l42.849,131.717c1.545,4.748,5.97,7.962,10.964,7.962h174.571c7.834,0,13.387-7.646,10.964-15.096Z" fill="#fff"></path>
          <path d="m296.745,422.835H122.174c-5.442,0-10.23-3.478-11.914-8.653l-42.85-131.717c-1.255-3.859-.608-7.955,1.777-11.239,2.385-3.283,6.08-5.166,10.138-5.166h174.571c5.443,0,10.231,3.478,11.915,8.652l42.85,131.718c1.255,3.859.607,7.955-1.777,11.238-2.385,3.284-6.08,5.167-10.138,5.167Zm-217.42-154.775c-3.41,0-6.516,1.582-8.52,4.342-2.004,2.759-2.548,6.201-1.493,9.444l42.849,131.717c1.415,4.35,5.439,7.272,10.012,7.272h174.571c3.41,0,6.515-1.583,8.52-4.342,2.004-2.76,2.548-6.202,1.493-9.444l-42.85-131.718c-1.415-4.35-5.438-7.271-10.012-7.271H79.325Z" fill="#292a2e"></path>
        </g>
        <g>
          <circle cx="183.439" cy="346.183" r="18.309" fill="#fff"></circle>
          <path d="m183.439,365.492c-10.647,0-19.309-8.662-19.309-19.309s8.662-19.31,19.309-19.31,19.309,8.662,19.309,19.31-8.662,19.309-19.309,19.309Zm0-36.618c-9.544,0-17.309,7.765-17.309,17.31s7.765,17.309,17.309,17.309,17.309-7.765,17.309-17.309-7.765-17.31-17.309-17.31Z" fill="#292a2e"></path>
        </g>
      </g>
      <g>
        <g>
          <path d="m10.412,42.517c40.52-40.43,106.12-40.43,146.64,0,2.382,2.382,6.244,2.382,8.626,0s2.382-6.244,0-8.626C120.392-11.297,47.073-11.297,1.787,33.89c-2.382,2.382-2.382,6.244,0,8.626,2.381,2.382,6.243,2.382,8.625,0Z" fill="#bd0bad"></path>
          <path d="m36.289,68.394c26.22-26.158,68.665-26.158,94.885,0,2.382,2.382,6.244,2.382,8.626,0,2.382-2.382,2.382-6.244,0-8.626-30.987-30.915-81.15-30.916-112.137,0-2.382,2.382-2.382,6.244,0,8.626,2.382,2.382,6.244,2.382,8.626,0Z" fill="#bd0bad"></path>
          <path d="m62.167,94.272c11.918-11.89,31.211-11.89,43.13,0,2.382,2.382,6.244,2.382,8.626,0s2.382-6.244,0-8.626c-16.685-16.647-43.696-16.647-60.381,0-2.382,2.382-2.382,6.244,0,8.626,2.381,2.382,6.243,2.382,8.625,0Z" fill="#bd0bad"></path>
          <circle cx="83.733" cy="120.43" r="12.77" fill="#bd0bad"></circle>
        </g>
        <g>
          <circle cx="36.846" cy="109.103" r="30.941" fill="#262626"></circle>
          <g>
            <line x1="21.67" y1="93.927" x2="52.022" y2="124.279" fill="#fff"></line>
            <path d="m52.022,125.136c-.219,0-.439-.084-.606-.251l-30.352-30.352c-.335-.335-.335-.878,0-1.213s.878-.335,1.213,0l30.352,30.352c.335.335.335.878,0,1.213-.167.167-.387.251-.606.251Z" fill="#fff"></path>
          </g>
          <g>
            <line x1="52.022" y1="93.927" x2="21.67" y2="124.279" fill="#fff"></line>
            <path d="m21.67,125.136c-.219,0-.439-.084-.606-.251-.335-.335-.335-.878,0-1.213l30.352-30.352c.335-.335.878-.335,1.213,0s.335.878,0,1.213l-30.352,30.352c-.167.167-.387.251-.606.251Z" fill="#fff"></path>
          </g>
        </g>
      </g>
    </g>
  </g>
</svg>