<svg id="Layer_2" data-name="Layer 2" xmlns="http://www.w3.org/2000/svg" viewBox="0 0 842.184 928.474" style="width: 100%; height: 100%;">
  <g id="Layer_2-2" data-name="Layer 2">
    <g>
      <path d="m24.202,795.282c-7.516-53.203,7.058-110.948,49.183-158.495,115.276-130.113,110.367-103.989,130.629-260.581,20.262-156.593,190.796-217.678,317.107-152.409,152.919,79.019,73.569,108.718,255.911,240.652,157.617,114.045,11.547,329.078-248.557,419.262-210.219,72.888-482.506,65.654-504.273-88.43Z" fill="#367cff" opacity=".1"></path>
      <path d="m154.958,337.559h487.386c23.047,0,41.758,18.711,41.758,41.758v370.08c0,23.047-18.711,41.758-41.758,41.758H136.352c-23.047,0-41.758-18.711-41.758-41.758v-351.474c0-33.316,27.049-60.365,60.365-60.365Z" fill="#262626"></path>
      <rect x="94.594" y="372.983" width="625.941" height="453.597" rx="41.758" ry="41.758" fill="#367cff"></rect>
      <rect x="94.594" y="372.983" width="625.941" height="453.597" rx="41.758" ry="41.758" fill="#fff" opacity=".55"></rect>
      <path d="m678.777,828.079H136.352c-23.853,0-43.258-19.405-43.258-43.258v-370.08c0-23.853,19.406-43.259,43.258-43.259h542.425c23.853,0,43.258,19.406,43.258,43.259v370.08c0,23.853-19.405,43.258-43.258,43.258ZM136.352,374.482c-22.199,0-40.258,18.06-40.258,40.259v370.08c0,22.198,18.06,40.258,40.258,40.258h542.425c22.198,0,40.258-18.06,40.258-40.258v-370.08c0-22.199-18.06-40.259-40.258-40.259H136.352Z" fill="#262626"></path>
      <path d="m672.885,794.741h-12.149v-3h12.066l.083,3Zm-24.216,0h-12.066v-3h12.066v3Zm-24.133,0h-12.066v-3h12.066v3Zm-24.133,0h-12.066v-3h12.066v3Zm-24.133,0h-12.066v-3h12.066v3Zm-24.133,0h-12.066v-3h12.066v3Zm-24.133,0h-12.066v-3h12.066v3Zm-24.133,0h-12.066v-3h12.066v3Zm-24.133,0h-12.066v-3h12.066v3Zm-24.133,0h-12.066v-3h12.066v3Zm-24.133,0h-12.066v-3h12.066v3Zm-24.133,0h-12.066v-3h12.066v3Zm-24.133,0h-12.066v-3h12.066v3Zm-24.133,0h-12.066v-3h12.066v3Zm-24.133,0h-12.066v-3h12.066v3Zm-24.133,0h-12.066v-3h12.066v3Zm-24.133,0h-12.066v-3h12.066v3Zm-24.133,0h-12.066v-3h12.066v3Zm-24.133,0h-12.066v-3h12.066v3Zm-24.133,0h-12.066v-3h12.066v3Zm-24.133,0h-12.066v-3h12.066v3Zm-24.133,0h-12.066v-3h12.066v3Zm-24.186-.015c-4.347-.155-8.528-1.549-12.092-4.029l1.714-2.463c3.09,2.151,6.716,3.359,10.485,3.494l-.107,2.998Zm543.279-3.619l-1.633-2.518c3.166-2.055,5.662-4.952,7.217-8.381l2.732,1.24c-1.793,3.951-4.668,7.29-8.316,9.658Zm-563.37-10.333c-1.14-2.748-1.718-5.663-1.718-8.663v-3.764h3v3.764c0,2.604.501,5.132,1.489,7.515l-2.771,1.148Zm573.697-11.742h-3v-12.066h3v12.066Zm-572.415-12.751h-3v-12.066h3v12.066Zm572.415-11.382h-3v-12.066h3v12.066Zm-572.415-12.751h-3v-12.066h3v12.066Zm572.415-11.382h-3v-12.066h3v12.066Zm-572.415-12.751h-3v-12.066h3v12.066Zm572.415-11.382h-3v-12.066h3v12.066Zm-572.415-12.751h-3v-12.066h3v12.066Zm572.415-11.382h-3v-12.066h3v12.066Zm-572.415-12.751h-3v-12.066h3v12.066Zm572.415-11.382h-3v-12.066h3v12.066Zm-572.415-12.751h-3v-12.066h3v12.066Zm572.415-11.382h-3v-12.066h3v12.066Zm-572.415-12.751h-3v-12.066h3v12.066Zm572.415-11.382h-3v-12.066h3v12.066Zm-572.415-12.751h-3v-12.066h3v12.066Zm572.415-11.382h-3v-12.066h3v12.066Zm-572.415-12.751h-3v-12.066h3v12.066Zm572.415-11.382h-3v-12.066h3v12.066Zm-572.415-12.751h-3v-12.066h3v12.066Zm572.415-11.382h-3v-12.066h3v12.066Zm-572.415-12.751h-3v-12.066h3v12.066Zm572.415-11.382h-3v-12.066h3v12.066Zm-572.415-12.751h-3v-12.066h3v12.066Zm572.415-11.382h-3v-12.066h3v12.066Zm-572.415-12.751h-3v-12.066h3v12.066Zm572.415-11.382h-3v-12.066h3v12.066Zm-572.415-12.751h-3v-12.066h3v12.066Zm572.415-11.382h-3v-3.722c0-2.617-.506-5.157-1.505-7.549l2.77-1.155c1.151,2.76,1.735,5.688,1.735,8.704v3.722Zm-570.656-11.856l-2.729-1.244c1.799-3.947,4.682-7.281,8.335-9.642l1.628,2.52c-3.17,2.049-5.672,4.942-7.233,8.366Zm559.193-8.011c-3.094-2.145-6.723-3.345-10.492-3.473l.102-2.998c4.347.146,8.531,1.532,12.1,4.006l-1.709,2.465Zm-22.507-3.484h-12.066v-3h12.066v3Zm-24.133,0h-12.066v-3h12.066v3Zm-24.133,0h-12.066v-3h12.066v3Zm-24.133,0h-12.066v-3h12.066v3Zm-24.133,0h-12.066v-3h12.066v3Zm-24.133,0h-12.066v-3h12.066v3Zm-24.133,0h-12.066v-3h12.066v3Zm-24.133,0h-12.066v-3h12.066v3Zm-24.133,0h-12.066v-3h12.066v3Zm-24.133,0h-12.066v-3h12.066v3Zm-24.133,0h-12.066v-3h12.066v3Zm-24.133,0h-12.066v-3h12.066v3Zm-24.133,0h-12.066v-3h12.066v3Zm-24.133,0h-12.066v-3h12.066v3Zm-24.133,0h-12.066v-3h12.066v3Zm-24.133,0h-12.066v-3h12.066v3Zm-24.133,0h-12.066v-3h12.066v3Zm-24.133,0h-12.066v-3h12.066v3Zm-24.133,0h-12.066v-3h12.066v3Zm-24.133,0h-12.066v-3h12.066v3Zm-24.133,0h-12.066v-3h12.066v3Zm-24.133,0h-12.025l-.041-3h12.066v3Z" fill="#fff"></path>
      <g>
        <path d="m531.981,529.338h190.945c12.478,0,22.608,10.13,22.608,22.608v95.67c0,12.478-10.13,22.608-22.608,22.608h-190.945c-13.965,0-25.302-11.338-25.302-25.302v-90.282c0-13.965,11.338-25.302,25.302-25.302Z" fill="#fff"></path>
        <path d="m722.926,671.725h-190.945c-14.778,0-26.802-12.023-26.802-26.803v-90.281c0-14.779,12.023-26.803,26.802-26.803h190.945c13.293,0,24.108,10.815,24.108,24.108v95.67c0,13.293-10.815,24.108-24.108,24.108Zm-190.945-140.887c-13.124,0-23.802,10.678-23.802,23.803v90.281c0,13.125,10.678,23.803,23.802,23.803h190.945c11.64,0,21.108-9.469,21.108-21.108v-95.67c0-11.64-9.469-21.108-21.108-21.108h-190.945Z" fill="#262626"></path>
      </g>
      <g>
        <circle cx="575.451" cy="599.781" r="34.446" fill="#fff"></circle>
        <path d="m575.45,635.728c-19.82,0-35.945-16.125-35.945-35.946s16.125-35.946,35.945-35.946,35.946,16.125,35.946,35.946-16.125,35.946-35.946,35.946Zm0-68.893c-18.166,0-32.945,14.779-32.945,32.946s14.779,32.946,32.945,32.946,32.946-14.779,32.946-32.946-14.779-32.946-32.946-32.946Z" fill="#262626"></path>
      </g>
      <g>
        <path d="m22.31,530.05c-1.208,0-2.186-.978-2.186-2.186v-61.676c0-1.208.978-2.186,2.186-2.186s2.186.978,2.186,2.186v61.676c0,1.208-.978,2.186-2.186,2.186Z" fill="#262626"></path>
        <g>
          <line x1="42.434" y1="497.026" x2="2.186" y2="497.025" fill="#fff"></line>
          <path d="m42.434,499.211H2.186c-1.208,0-2.186-.978-2.186-2.186s.978-2.186,2.186-2.186h40.248c1.208,0,2.186.978,2.186,2.186s-.978,2.186-2.186,2.186Z" fill="#262626"></path>
        </g>
      </g>
      <g>
        <path d="m796.464,617.863c-.852,0-1.542-.69-1.542-1.542v-33.081c0-.852.69-1.542,1.542-1.542s1.542.69,1.542,1.542v33.081c0,.852-.69,1.542-1.542,1.542Z" fill="#262626"></path>
        <g>
          <line x1="807.258" y1="599.781" x2="785.671" y2="599.781" fill="#fff"></line>
          <path d="m807.259,601.323h-21.588c-.852,0-1.542-.69-1.542-1.542s.69-1.542,1.542-1.542h21.588c.852,0,1.542.69,1.542,1.542s-.69,1.542-1.542,1.542Z" fill="#262626"></path>
        </g>
      </g>
      <g>
        <path d="m771.793,337.559c-.852,0-1.542-.69-1.542-1.542v-33.081c0-.852.69-1.542,1.542-1.542s1.542.69,1.542,1.542v33.081c0,.852-.69,1.542-1.542,1.542Z" fill="#262626"></path>
        <g>
          <line x1="782.587" y1="319.477" x2="760.999" y2="319.477" fill="#fff"></line>
          <path d="m782.587,321.019h-21.588c-.852,0-1.542-.69-1.542-1.542s.69-1.542,1.542-1.542h21.588c.852,0,1.542.69,1.542,1.542s-.69,1.542-1.542,1.542Z" fill="#262626"></path>
        </g>
      </g>
      <g>
        <g>
          <path d="m181.744,126.677c-2.51.058-4.945-.738-6.962-2.294-2.328-1.798-3.817-4.394-4.193-7.313s.407-5.808,2.205-8.138c1.798-2.328,4.394-3.818,7.313-4.194,6.013-.772,11.557,3.493,12.331,9.518.775,6.025-3.495,11.556-9.519,12.332-.391.05-.783.08-1.174.089Zm-.405-18.786c-.272.006-.545.027-.82.062-2.059.265-3.893,1.316-5.16,2.96-1.269,1.644-1.822,3.684-1.558,5.743.266,2.06,1.318,3.893,2.961,5.162,1.643,1.269,3.68,1.822,5.743,1.556,4.251-.547,7.266-4.452,6.72-8.704-.513-3.976-3.963-6.87-7.886-6.78Z" fill="#292a2e"></path>
          <path d="m188.477,102.193c-2.512.058-4.948-.738-6.964-2.295-2.33-1.798-3.819-4.395-4.193-7.313h0c-.376-2.918.406-5.808,2.203-8.137,1.798-2.329,4.395-3.819,7.314-4.195,2.913-.372,5.808.409,8.136,2.206,2.33,1.798,3.819,4.395,4.193,7.313.376,2.917-.406,5.807-2.203,8.136-1.798,2.329-4.395,3.819-7.314,4.195-.391.05-.783.08-1.172.089Zm-.399-18.787c-.275.006-.55.027-.828.063-2.059.265-3.893,1.316-5.162,2.96-1.268,1.644-1.82,3.683-1.556,5.743h0c.266,2.06,1.316,3.894,2.961,5.162,1.643,1.269,3.671,1.821,5.743,1.557,2.059-.265,3.893-1.316,5.162-2.96,1.268-1.644,1.82-3.683,1.556-5.743-.266-2.06-1.316-3.894-2.961-5.162-1.423-1.099-3.142-1.66-4.915-1.619Z" fill="#292a2e"></path>
          <ellipse cx="184.959" cy="103.127" rx="9.622" ry="14.405" transform="translate(36.489 254.129) rotate(-74.627)" fill="#fff"></ellipse>
          <path d="m188.355,114.779c-2.069.048-4.232-.223-6.376-.812-8.666-2.383-14.144-9.011-12.472-15.088,1.672-6.08,9.768-8.972,18.432-6.592,4.017,1.105,7.521,3.206,9.871,5.92,2.507,2.895,3.43,6.151,2.601,9.168-.829,3.017-3.287,5.343-6.923,6.551-1.588.527-3.325.812-5.133.854Zm-6.669-20.05c-4.519.104-8.22,1.979-9.054,5.009-1.151,4.182,3.523,9.268,10.206,11.105,3.407.937,6.828.938,9.63.007,2.574-.855,4.286-2.394,4.819-4.333.533-1.94-.151-4.137-1.926-6.188-1.935-2.234-4.874-3.98-8.279-4.916-1.841-.507-3.677-.723-5.395-.683Z" fill="#292a2e"></path>
          <polygon points="185.884 113.058 190.531 94.93 186.097 93.511 180.698 111.855 185.884 113.058" fill="#292a2e"></polygon>
          <circle cx="165.848" cy="100.535" r="1.487" fill="#292a2e"></circle>
          <circle cx="169.084" cy="93.173" r="1.487" fill="#292a2e"></circle>
        </g>
        <path d="m347.608,300.245c-.314,0-.623-.147-.817-.423-.319-.45-.212-1.074.238-1.394.007-.005.732-.521,1.905-1.576.411-.368,1.043-.335,1.412.076.369.41.335,1.043-.075,1.412-1.271,1.142-2.055,1.698-2.088,1.722-.175.123-.376.183-.575.183Zm9.926-10.723c-.2,0-.401-.06-.577-.184-.451-.319-.558-.943-.239-1.394,2.228-3.149,4.239-6.604,5.977-10.268.236-.499.833-.712,1.332-.475.499.236.711.833.475,1.332-1.787,3.768-3.856,7.322-6.151,10.564-.195.276-.504.423-.817.423Zm10.372-21.672c-.095,0-.192-.014-.288-.042-.529-.158-.829-.716-.671-1.245,1.112-3.711,1.998-7.622,2.633-11.625.087-.545.599-.921,1.145-.83.545.086.917.599.831,1.145-.65,4.09-1.556,8.088-2.693,11.885-.13.434-.527.713-.958.713Zm3.843-23.75c-.014,0-.028,0-.042,0-.552-.022-.98-.488-.958-1.04.064-1.549.097-3.14.097-4.728,0-2.413-.154-4.813-.459-7.136-.072-.547.314-1.05.861-1.121.548-.077,1.05.312,1.122.861.316,2.407.476,4.896.476,7.396,0,1.616-.033,3.234-.099,4.81-.022.538-.465.959-.998.959Zm-3.299-23.698c-.403,0-.783-.245-.935-.645-1.388-3.647-3.224-7.167-5.457-10.46-.31-.457-.19-1.079.267-1.39.458-.31,1.079-.19,1.389.267,2.32,3.422,4.228,7.08,5.671,10.872.196.516-.062,1.094-.579,1.29-.117.045-.237.065-.355.065Zm-73.896-4.78c-3.697,0-6.75-1.142-8.828-3.302-.383-.398-.371-1.031.027-1.414.398-.382,1.031-.37,1.414.027,2.142,2.228,5.528,3.089,9.88,2.517l.525-.073c.549-.072,1.054.302,1.131.849.078.547-.302,1.054-.848,1.132l-.543.075c-.955.126-1.882.189-2.759.189Zm14.685-3.631c-.368,0-.722-.203-.896-.555-.246-.494-.044-1.095.45-1.341,3.679-1.83,6.584-4.331,8.635-7.436.305-.461.926-.587,1.386-.282.461.305.587.925.283,1.386-2.248,3.401-5.415,6.134-9.414,8.123-.143.071-.295.104-.444.104Zm-25.06-10.713c-.075,0-.15-.008-.226-.025-.538-.124-.874-.661-.75-1.199.891-3.856,3.004-7.739,5.952-10.933.375-.405,1.007-.431,1.413-.057.406.374.431,1.007.057,1.412-2.715,2.942-4.659,6.504-5.473,10.026-.106.463-.518.775-.973.775Zm70.916-.723c-.249,0-.498-.092-.691-.277-2.798-2.678-5.931-5.149-9.312-7.35-.463-.301-.594-.92-.293-1.383.302-.464.921-.597,1.384-.293,3.485,2.267,6.716,4.817,9.604,7.58.399.382.413,1.015.031,1.414-.196.205-.459.309-.723.309Zm-33.018-7.659c-.034,0-.067-.002-.102-.005-.55-.056-.95-.547-.895-1.096.112-1.103.168-2.26.168-3.439,0-2.59-.272-5.377-.809-8.285-.1-.544.259-1.065.802-1.165.541-.104,1.064.26,1.165.802.142.77.266,1.53.372,2.282.233-.286.617-.43,1.002-.34,3.899.915,7.807,2.208,11.614,3.842.507.218.742.806.524,1.313-.218.508-.806.741-1.313.524-3.7-1.588-7.496-2.844-11.282-3.732-.135-.032-.258-.09-.363-.167.19,1.698.287,3.346.287,4.926,0,1.247-.06,2.472-.178,3.641-.052.516-.487.899-.994.899Zm-22.302-8.838c-.399,0-.775-.239-.931-.633-.203-.514.049-1.095.563-1.297.618-.244,1.246-.468,1.867-.665,2.852-.908,6.181-1.369,9.896-1.369l.435.002c.552.004.999.454.995,1.007-.004.55-.449.993-.999.993h-.007l-.424-.002c-3.508,0-6.633.429-9.29,1.275-.595.188-1.174.396-1.739.618-.121.048-.245.07-.367.07Zm18.394-14.775c-.407,0-.79-.25-.938-.655-1.304-3.545-2.922-7.224-4.811-10.933-.25-.492-.055-1.095.438-1.346.49-.249,1.094-.055,1.345.438,1.924,3.78,3.575,7.531,4.906,11.151.191.518-.075,1.093-.593,1.283-.114.042-.23.062-.345.062Zm-10.85-21.516c-.331,0-.655-.164-.845-.464-2.12-3.339-4.427-6.646-6.859-9.828-.335-.439-.251-1.067.188-1.402.438-.335,1.066-.249,1.402.188,2.466,3.229,4.807,6.584,6.958,9.971.296.467.158,1.084-.308,1.38-.167.106-.352.156-.535.156Zm-14.643-19.157c-.271,0-.541-.109-.738-.325-1.222-1.335-2.47-2.64-3.708-3.878-1.544-1.544-3.183-3.015-4.871-4.371-.43-.346-.499-.976-.153-1.405.347-.43.976-.499,1.406-.153,1.744,1.401,3.438,2.921,5.032,4.516,1.259,1.259,2.527,2.585,3.77,3.942.373.407.345,1.039-.062,1.412-.192.176-.434.263-.675.263Zm-18.788-14.921c-.155,0-.312-.036-.458-.111-3.449-1.784-7.151-3.273-11.005-4.427-.529-.158-.83-.716-.671-1.245.159-.528.718-.828,1.245-.671,3.973,1.188,7.792,2.725,11.351,4.565.491.254.683.857.429,1.348-.178.344-.527.541-.889.541Zm-58.857-4.29c-.425,0-.819-.272-.954-.699-.166-.526.126-1.088.653-1.255.191-.06,4.762-1.487,11.979-2.482.543-.077,1.052.306,1.127.854.075.547-.307,1.052-.854,1.127-7.036.971-11.605,2.396-11.651,2.41-.1.031-.201.046-.301.046Zm35.885-2.684c-.042,0-.085-.003-.128-.008-3.836-.492-7.885-.724-11.901-.664h-.013c-.546,0-.993-.439-1-.987-.007-.552.435-1.006.987-1.013,4.084-.047,8.252.177,12.18.68.548.07.935.571.865,1.119-.064.505-.495.873-.99.873Z" fill="#1e1e1e"></path>
      </g>
      <g>
        <g>
          <path d="m669.545,22.959c-2.158.392-4.387.159-6.462-.699-2.856-1.18-5.082-3.402-6.267-6.255-2.445-5.891.358-12.674,6.249-15.12,5.893-2.447,12.673.358,15.121,6.248h0c2.445,5.892-.358,12.674-6.251,15.121-.777.324-1.579.558-2.39.706Zm-3.533-19.586c-.574.104-1.145.272-1.706.504-4.24,1.761-6.258,6.645-4.497,10.885.852,2.055,2.455,3.654,4.51,4.504,2.057.85,4.324.85,6.375-.005,4.24-1.761,6.259-6.645,4.499-10.885-1.529-3.68-5.41-5.688-9.18-5.003Z" fill="#292a2e"></path>
          <path d="m669.469,49.848c-2.159.392-4.388.159-6.464-.699-2.855-1.18-5.08-3.402-6.265-6.256-1.184-2.855-1.187-5.998-.006-8.854,1.179-2.856,3.401-5.081,6.256-6.265,2.851-1.187,5.998-1.188,8.854-.008,2.855,1.18,5.08,3.402,6.265,6.256,1.184,2.855,1.187,5.998.006,8.855-1.18,2.855-3.401,5.081-6.256,6.265-.779.324-1.579.558-2.39.706Zm-3.516-19.59c-.585.106-1.161.275-1.723.508-2.054.853-3.653,2.455-4.503,4.511-.849,2.056-.848,4.319.006,6.374.852,2.055,2.455,3.655,4.51,4.504,2.058.851,4.322.848,6.375-.005,2.054-.853,3.653-2.455,4.503-4.511.849-2.056.848-4.319-.006-6.374-.852-2.055-2.455-3.655-4.51-4.504-1.495-.617-3.098-.785-4.652-.503Z" fill="#292a2e"></path>
          <ellipse cx="667.462" cy="25.337" rx="10.189" ry="15.254" transform="translate(640.224 692.724) rotate(-89.837)" fill="#fff"></ellipse>
          <path d="m671.805,36.764c-1.41.256-2.879.386-4.377.382-4.392-.013-8.539-1.181-11.677-3.29-3.34-2.244-5.174-5.286-5.164-8.566.009-3.28,1.861-6.312,5.213-8.537,3.148-2.091,7.3-3.234,11.695-3.224,4.392.012,8.539,1.181,11.677,3.29,3.34,2.244,5.174,5.286,5.164,8.566-.009,3.28-1.861,6.312-5.213,8.537-2.076,1.379-4.589,2.346-7.318,2.841Zm-8.118-19.665c-2.291.416-4.383,1.217-6.095,2.353-2.421,1.608-3.758,3.684-3.764,5.847-.006,2.164,1.318,4.248,3.73,5.868,2.613,1.756,6.122,2.729,9.88,2.74,3.756.009,7.27-.943,9.894-2.683,2.421-1.608,3.758-3.684,3.764-5.847h0c.006-2.164-1.318-4.248-3.73-5.869-2.613-1.756-6.122-2.728-9.88-2.739-1.305-.003-2.58.108-3.799.33Z" fill="#292a2e"></path>
          <polygon points="663.757 15.446 664.045 35.261 668.97 35.479 669.39 15.235 663.757 15.446" fill="#292a2e"></polygon>
          <circle cx="686.449" cy="31.098" r="1.575" fill="#292a2e"></circle>
          <circle cx="687.71" cy="22.676" r="1.575" fill="#292a2e"></circle>
        </g>
        <path d="m451.667,254.334c-.352,0-.693-.186-.876-.516-.091-.165-2.27-4.123-4.838-11.234-.188-.52.081-1.093.601-1.28.518-.19,1.093.08,1.28.601,2.509,6.945,4.686,10.906,4.707,10.945.268.483.093,1.092-.391,1.359-.153.085-.319.125-.483.125Zm-8.326-22.624c-.445,0-.851-.299-.968-.75-1.005-3.889-1.853-7.889-2.52-11.891-.091-.544.277-1.06.822-1.15.549-.098,1.06.278,1.151.822.658,3.943,1.493,7.886,2.484,11.719.138.534-.183,1.08-.718,1.218-.084.022-.168.032-.251.032Zm-3.972-23.778c-.517,0-.955-.397-.996-.921-.292-3.688-.439-7.432-.439-11.128l.003-1.014c.004-.552.416-.97,1.007-.993.552.004.997.455.993,1.007l-.003,1c0,3.645.146,7.335.434,10.97.043.551-.368,1.032-.918,1.076-.027.002-.054.003-.08.003Zm.175-24.104c-.031,0-.062,0-.094-.004-.55-.052-.954-.539-.902-1.089.375-4.011.93-8.061,1.648-12.036.099-.543.621-.901,1.162-.807.543.099.905.619.806,1.162-.708,3.92-1.255,7.912-1.625,11.866-.048.519-.484.907-.995.907Zm4.277-23.72c-.086,0-.173-.011-.26-.034-.534-.144-.85-.691-.707-1.226,1.039-3.865,2.259-7.765,3.627-11.59.186-.521.759-.791,1.278-.604.52.186.791.758.604,1.278-1.351,3.774-2.554,7.622-3.579,11.436-.12.446-.524.74-.965.74Zm8.107-22.701c-.137,0-.275-.028-.408-.088-.504-.226-.729-.817-.503-1.321.817-1.824,1.687-3.671,2.583-5.486.898-1.82,1.854-3.633,2.84-5.388.271-.481.88-.653,1.362-.382.481.271.652.881.382,1.362-.97,1.724-1.908,3.504-2.791,5.292-.885,1.794-1.743,3.617-2.552,5.42-.166.371-.53.591-.913.591Zm106.077-6.84c-.494,0-.924-.365-.99-.868-.072-.548.312-1.051.859-1.123,3.758-.498,6.437-2.755,7.962-6.708.198-.515.776-.772,1.293-.572.515.198.771.777.572,1.293-1.782,4.621-5.09,7.377-9.563,7.97-.045.006-.089.009-.133.009Zm-11.626-2.524c-.147,0-.297-.032-.438-.102-3.4-1.663-6.825-3.985-10.182-6.901-.417-.362-.461-.994-.099-1.411.364-.418.995-.459,1.411-.099,3.225,2.803,6.504,5.028,9.748,6.614.496.243.701.842.459,1.338-.174.354-.529.561-.899.561Zm-82.572-11.585c-.203,0-.408-.062-.586-.19-.447-.324-.547-.949-.223-1.396,2.403-3.315,5.006-6.48,7.735-9.406.378-.404,1.01-.426,1.413-.05.404.377.427,1.01.05,1.413-2.674,2.867-5.224,5.968-7.579,9.217-.195.27-.501.413-.811.413Zm64.337-3.942c-.298,0-.593-.133-.79-.386-2.546-3.27-4.758-6.746-6.574-10.331-.249-.493-.052-1.095.44-1.345.496-.251,1.094-.052,1.345.44,1.758,3.472,3.9,6.838,6.367,10.007.339.436.261,1.064-.175,1.403-.183.143-.398.211-.613.211Zm40.073-1.174c-.525,0-.966-.409-.997-.94-.242-4.048-1.191-7.832-2.823-11.249-.238-.498-.027-1.095.472-1.333.497-.24,1.095-.027,1.333.472,1.743,3.65,2.758,7.685,3.015,11.991.033.551-.387,1.024-.938,1.058-.021,0-.04.002-.061.002Zm-87.97-12.456c-.289,0-.575-.124-.773-.364-.351-.427-.289-1.057.137-1.408,3.16-2.601,6.5-4.983,9.927-7.082.472-.289,1.087-.14,1.375.33.289.471.141,1.087-.33,1.375-3.349,2.051-6.612,4.38-9.7,6.922-.187.153-.411.228-.635.228Zm37.188-7.812c-.449,0-.857-.305-.97-.761-.882-3.571-1.328-7.136-1.327-10.594,0-.547.011-1.094.033-1.642.022-.553.482-.997,1.039-.959.552.022.981.487.959,1.039-.021.521-.031,1.042-.031,1.562,0,3.298.426,6.7,1.269,10.115.133.536-.195,1.078-.731,1.21-.08.021-.161.029-.24.029Zm40.603-.874c-.234,0-.47-.082-.659-.248-2.818-2.472-6.176-4.512-9.979-6.062-.511-.208-.757-.792-.548-1.304s.793-.758,1.304-.548c4.009,1.635,7.556,3.791,10.541,6.41.415.364.457.996.093,1.411-.198.226-.475.341-.752.341Zm-57.268-3.848c-.389,0-.758-.228-.92-.608-.217-.508.02-1.096.528-1.312,3.791-1.614,7.684-2.926,11.572-3.896.533-.135,1.078.19,1.212.728.135.535-.191,1.078-.728,1.212-3.786.946-7.579,2.224-11.273,3.797-.128.055-.261.08-.392.08Zm35.363-5.421c-.044,0-.089-.003-.134-.009-2.415-.324-4.932-.488-7.48-.488-1.452-.005-2.889.051-4.356.154-.541.045-1.029-.376-1.067-.927-.039-.551.376-1.029.927-1.067,1.515-.108,3.002-.175,4.498-.16,2.636,0,5.242.17,7.745.506.548.073.932.577.858,1.124-.067.502-.497.867-.99.867Zm-17.552-13.581c-.119,0-.24-.021-.358-.066-.516-.198-.773-.776-.575-1.292.449-1.171.967-2.343,1.539-3.483,1.258-2.507,2.667-4.979,4.19-7.349.298-.464.916-.601,1.382-.3.464.298.599.917.3,1.382-1.484,2.31-2.858,4.72-4.085,7.163-.542,1.082-1.033,2.193-1.459,3.304-.152.397-.532.642-.934.642Zm12.882-20.284c-.233,0-.468-.081-.657-.246-.416-.363-.459-.995-.097-1.411,2.626-3.012,5.527-5.911,8.623-8.619.414-.364,1.046-.323,1.411.095.363.416.321,1.048-.095,1.411-3.028,2.648-5.865,5.483-8.432,8.428-.198.227-.476.343-.754.343Zm18.09-15.875c-.321,0-.636-.154-.829-.44-.31-.457-.189-1.079.269-1.388,3.312-2.239,6.834-4.333,10.468-6.224.491-.258,1.095-.063,1.349.425.255.49.064,1.094-.425,1.349-3.567,1.856-7.022,3.91-10.272,6.106-.171.116-.366.172-.559.172Zm21.36-11.147c-.399,0-.777-.241-.932-.637-.201-.514.054-1.094.568-1.295,3.762-1.469,7.648-2.756,11.552-3.824.527-.142,1.082.168,1.229.701.146.532-.168,1.082-.701,1.229-3.836,1.05-7.655,2.314-11.353,3.758-.119.047-.242.068-.363.068Zm58.574-5.453c-.083,0-.167-.01-.251-.031-3.462-.894-7.202-1.526-11.117-1.88-.55-.05-.956-.536-.906-1.086s.547-.952,1.086-.906c4.022.364,7.87,1.015,11.438,1.935.534.139.856.684.719,1.219-.117.451-.522.75-.968.75Zm-35.335-.905c-.482,0-.906-.349-.986-.84-.088-.546.282-1.059.827-1.147,4.068-.658,8.144-1.083,12.113-1.261.554-.037,1.019.402,1.044.954.024.552-.402,1.02-.954,1.044-3.893.175-7.891.591-11.883,1.237-.055.009-.108.013-.161.013Z" fill="#1e1e1e"></path>
      </g>
    </g>
  </g>
</svg>