<svg id="Layer_2" data-name="Layer 2" xmlns="http://www.w3.org/2000/svg" viewBox="0 0 848.181 895.667" style="width: 100%; height: 100%;">
  <g id="Layer_2-2" data-name="Layer 2">
    <g>
      <g>
        <path d="m558.33,685.651h200.567s30.4,22.769,30.4,22.769v-96.397c0-10.086-8.176-18.261-18.261-18.261h-212.706c-10.086,0-18.261,8.176-18.261,18.261v55.366c0,10.086,8.176,18.261,18.261,18.261Z" fill="#f4f4f4"></path>
        <path d="m767.839,619.35h-206.311c-.421,0-.762-.341-.762-.762s.341-.762.762-.762h206.311c.421,0,.762.341.762.762s-.341.762-.762.762Z" fill="#fff"></path>
        <path d="m767.839,642.2h-206.311c-.421,0-.762-.341-.762-.762s.341-.762.762-.762h206.311c.421,0,.762.341.762.762s-.341.762-.762.762Z" fill="#fff"></path>
        <path d="m767.839,665.05h-122.529c-.421,0-.762-.341-.762-.762s.341-.762.762-.762h122.529c.421,0,.762.341.762.762s-.341.762-.762.762Z" fill="#fff"></path>
      </g>
      <g>
        <rect x="678.099" y="641.308" width="2.187" height="246.77" transform="translate(-79.156 78.423) rotate(-6.245)" fill="#292a2e"></rect>
        <rect x="665.209" y="813.35" width="131.311" height="2.187" transform="translate(-152.951 1459.696) rotate(-84.228)" fill="#292a2e"></rect>
        <rect x="661.1" y="863.867" width="97.989" height="31.8" fill="#292a2e"></rect>
        <rect x="661.1" y="863.867" width="97.989" height="31.8" fill="#fff" opacity=".2"></rect>
        <ellipse cx="764.785" cy="765.156" rx="55.903" ry="66.797" transform="translate(-306.445 916.24) rotate(-53.042)" fill="#bd0bad"></ellipse>
        <ellipse cx="764.785" cy="765.156" rx="55.903" ry="66.797" transform="translate(-306.445 916.24) rotate(-53.042)" fill="#fff" opacity=".2"></ellipse>
        <path d="m818.158,805.317c-1.262,1.683-2.623,3.259-4.071,4.717-20.433,13.055-50.594,11-74.521-7.007-29.476-22.175-38.323-60.155-19.758-84.826,1.262-1.683,2.622-3.249,4.061-4.717,20.443-13.064,50.594-11,74.531,6.997,29.475,22.185,38.322,60.165,19.758,84.836Z" fill="#fff" opacity=".5"></path>
        <ellipse cx="646.264" cy="666.172" rx="66.797" ry="57.522" transform="translate(-272.378 533.735) rotate(-37.665)" fill="#bd0bad"></ellipse>
        <path d="m672.159,705.244c-22.616,17.468-51.358,20.13-72.192,8.759-2.378-2.094-4.58-4.433-6.576-7.017-19.416-25.141-11.479-63.806,17.723-86.343,22.616-17.458,51.358-20.13,72.183-8.768,2.388,2.094,4.59,4.443,6.586,7.026,19.416,25.141,11.479,63.806-17.723,86.343Z" fill="#fff" opacity=".2"></path>
      </g>
      <g>
        <path d="m829.92,342.659h-258.007l-32.691,24.485v-129.607c0-10.086,8.176-18.261,18.261-18.261h272.436c10.086,0,18.261,8.176,18.261,18.261v86.861c0,10.086-8.176,18.261-18.261,18.261Z" fill="#f4f4f4"></path>
        <path d="m825.106,246.734h-262.808c-.421,0-.762-.341-.762-.762s.341-.762.762-.762h262.808c.421,0,.762.341.762.762s-.341.762-.762.762Z" fill="#fff"></path>
        <path d="m825.106,271.305h-262.808c-.421,0-.762-.341-.762-.762s.341-.762.762-.762h262.808c.421,0,.762.341.762.762s-.341.762-.762.762Z" fill="#fff"></path>
        <path d="m825.106,295.877h-262.808c-.421,0-.762-.341-.762-.762s.341-.762.762-.762h262.808c.421,0,.762.341.762.762s-.341.762-.762.762Z" fill="#fff"></path>
        <path d="m779.408,320.448h-217.111c-.421,0-.762-.341-.762-.762s.341-.762.762-.762h217.111c.421,0,.762.341.762.762s-.341.762-.762.762Z" fill="#fff"></path>
      </g>
      <g>
        <path d="m31.34,596.375h200.567s30.4,22.769,30.4,22.769v-96.397c0-10.086-8.176-18.261-18.261-18.261H31.34c-10.086,0-18.261,8.176-18.261,18.261v55.366c0,10.086,8.176,18.261,18.261,18.261Z" fill="#f4f4f4"></path>
        <path d="m240.848,530.075H34.537c-.421,0-.762-.341-.762-.762s.341-.762.762-.762h206.311c.421,0,.762.341.762.762s-.341.762-.762.762Z" fill="#fff"></path>
        <path d="m240.848,552.924H34.537c-.421,0-.762-.341-.762-.762s.341-.762.762-.762h206.311c.421,0,.762.341.762.762s-.341.762-.762.762Z" fill="#fff"></path>
        <path d="m240.848,575.774h-122.528c-.421,0-.762-.341-.762-.762s.341-.762.762-.762h122.528c.421,0,.762.341.762.762s-.341.762-.762.762Z" fill="#fff"></path>
      </g>
      <g>
        <path d="m360.754,151.361H40.103L0,181.398V18.261C0,8.176,8.176,0,18.261,0h342.492c10.086,0,18.261,8.176,18.261,18.261v114.838c0,10.086-8.176,18.261-18.261,18.261Z" fill="#f4f4f4"></path>
        <path d="m350.707,33.513H28.308c-.421,0-.762-.341-.762-.762s.341-.762.762-.762h322.399c.421,0,.762.341.762.762s-.341.762-.762.762Z" fill="#fff"></path>
        <path d="m350.707,63.655H28.308c-.421,0-.762-.341-.762-.762s.341-.762.762-.762h322.399c.421,0,.762.341.762.762s-.341.762-.762.762Z" fill="#fff"></path>
        <path d="m350.707,93.798H28.308c-.421,0-.762-.341-.762-.762s.341-.762.762-.762h322.399c.421,0,.762.341.762.762s-.341.762-.762.762Z" fill="#fff"></path>
        <path d="m189.945,123.941H28.308c-.421,0-.762-.341-.762-.762s.341-.762.762-.762h161.637c.421,0,.762.341.762.762s-.341.762-.762.762Z" fill="#fff"></path>
      </g>
      <g>
        <g>
          <path d="m161.941,118.272s-10.288-10.232-10.4-30.558c-.087-15.737,12.782-3.787,12.782-3.787,0,0,.048-11.332,8.002-9.117,7.955,2.215,10.897,14.529,10.897,14.529" fill="#0c0c0c"></path>
          <path d="m214.06,81.854s39.644,9.825,17.631,62.353l-3.593-.249-7.293-.506" fill="#0c0c0c"></path>
          <path id="sk" d="m163.177,198.799c.179-.023,2.16,32.853,40.352,29.986,26.44-1.981,35.868-30.033,36.473-30.033-2.851-.606-6.374-1.525-7.774-1.841-4.651-1.048-10.458-4.887-11.8-12.972-.773-4.66.539-28.5.135-33.215l-40.586,9.059c.567,9.958,4.536,33.043-9.375,37.128-2.315.676-4.808,1.297-7.426,1.887Z" fill="#ff9e85"></path>
          <path id="sh" d="m179.409,187.477c.575-1.835.917-3.431,1.221-6.299.544-5.13.254-9.846-.265-14.651,8.199-1.091,16.071-4.54,22.431-9.827.754,2.783,4.898,14.944,3.751,17.59-2.169,5-12.362,13.188-27.137,13.188Z" fill="#0c0c0c" opacity=".22"></path>
          <path d="m185.479,177.888c16.058.75,36.418-6.672,39.641-28.168l2.909-19.396c3.223-21.496-5.454-40.615-25.693-43.65h0c-20.239-3.035-37.981,12.122-41.204,33.618l-1.288,8.587c-.265,1.768-.555,4.967-.565,8.917-.02,7.88-.02,19.867,4.143,28.545,3.93,8.193,11.798,11.068,22.057,11.547Z" fill="#ff9e85"></path>
          <g>
            <g>
              <circle id="e1_eye" cx="168.467" cy="135.197" r="2.231" fill="#0a0a0a"></circle>
              <g id="e1_n">
                <path d="m182.34,149.403c.452,0,.839-.341.887-.8.051-.49-.304-.929-.795-.981l-4.727-.494,2.91-9.443c.145-.471-.119-.971-.591-1.116-.471-.145-.97.119-1.116.59l-3.229,10.48c-.078.255-.038.532.109.755s.386.368.652.396l5.807.607c.031.003.063.005.093.005Z" fill="#0a0a0a"></path>
              </g>
              <g id="e1_m">
                <path d="m183.389,159.511c8.091,0,10.499-4.889,10.607-5.119.21-.446.019-.978-.426-1.188-.443-.21-.973-.021-1.186.421-.101.208-2.572,5.01-11.475,3.946-.499-.062-.934.291-.993.78-.058.489.291.934.78.992.961.115,1.858.167,2.693.167Z" fill="#0a0a0a"></path>
              </g>
              <path id="e1_eb" d="m190.142,123.959c-.214.665,2.205,1.659,5.606,2.571s6.48,1.569,6.711.73c.292-1.059-2.242-3.553-5.644-4.464s-6.336.118-6.673,1.164Z" fill="#0a0a0a"></path>
              <circle id="e1_eye-2" data-name="e1_eye" cx="190.845" cy="136.62" r="2.232" fill="#0a0a0a"></circle>
            </g>
            <path id="e1_eb-2" data-name="e1_eb" d="m163.038,124.426c.074.695,2.688.622,6.167.075s6.559-1.195,6.43-2.056c-.163-1.086-3.129-2.414-6.607-1.867-3.479.547-6.106,2.756-5.989,3.848Z" fill="#0a0a0a"></path>
          </g>
          <path d="m222.881,156.081c6.151.922,12.124-4.91,13.046-11.061.922-6.151-3.555-10.29-9.706-11.213l-3.787,3.646-4.841,17.835,5.288.793Z" fill="#ff9e85"></path>
          <path d="m220.008,145.429c-1.04-.049-1.847-.924-1.804-1.964.282-6.722.651-29.351-6.985-32.027-5.982-2.096-22.099,4.588-35.56.059-5.889-1.981-11.834-1.271-12.81,1.505-.386,1.099-1.927-15.669,9.232-26.706,8.884-8.788,33.936-8.181,44.72-3.423,29.859,13.174,10.507,52.45,10.507,52.45l-2.424,8.853c-.234.855-1.03,1.433-1.915,1.391l-2.961-.138Z" fill="#0c0c0c"></path>
          <ellipse cx="185.414" cy="86.508" rx="12.533" ry="8.515" transform="translate(41.719 232.157) rotate(-70.399)" fill="#0c0c0c"></ellipse>
        </g>
        <g>
          <path d="m228.443,762.261s26.598,14.726,21.257,37.716c-5.34,22.99,14.107,23.417,14.107,23.417l25.546-86.335-43.135-12.763-17.777,37.966Z" fill="#367cff"></path>
          <path d="m126.322,393.77s-49.414,195.905-35.82,224.902c13.364,28.507,151.755,155.171,151.755,155.171l24.932-46.332-105.972-127.94s30.111-69.305,47.471-122.585c10.465-32.119,21.819-60.929,23.491-94.668h0s-105.857,11.452-105.857,11.452Z" fill="#262626"></path>
          <polygon points="199.202 644.455 184.936 628.208 188.649 723.577 204.55 738.691 199.202 644.455" fill="#0a0a0a"></polygon>
          <path d="m197.127,510.744s2.596-53.238-2.351-43.025c-8.932,18.438-11.266,77.882-11.266,77.882l13.617-34.857Z" fill="#0a0a0a"></path>
          <path d="m215.792,847.832s-4.854,25.164-28.415,26.566c-23.561,1.402-18.452,20.172-18.452,20.172h90.036v-44.983s-43.169-1.755-43.169-1.755Z" fill="#367cff"></path>
          <path d="m287.066,388.8s.399-1.855.636,8.987c1.395,63.99-24.768,466.104-24.768,466.104l-59.163-.497-15.839-477.195,99.135,2.601Z" fill="#262626"></path>
        </g>
        <path d="m114.75,272.348c1.22,14.335,10.156,103.766,11.328,121.423h161.679c.913-15.925,2.014-85.559,5.478-116.7,3.306-29.716,9.792-45.669,5.038-54.454-7.769-14.358-29-21.58-43.476-23.54-8.84-1.197-22.135-2.055-22.135-2.055,0,0-1.126,22.773-27.969,24.04-36.541,1.724-34.101-24.04-34.282-24.04-13.267,0-38.375,3.174-48.01,9.726-21.666,14.733-10.241,35.222-7.651,65.599Z" fill="#367cff"></path>
        <path d="m124.327,216.479l-37.649,38.95-34.286-13.857-36.34,89.914-.225.537c-4.334,10.786-1.747,23.588,7.405,31.803,11.7,10.502,29.698,9.531,40.2-2.169l98.703-109.959-37.809-35.22Z" fill="#367cff"></path>
        <g>
          <path d="m157.476,204.623c-1.232-1.955-3.859-2.496-5.772-1.146-1.793,1.266-2.134,3.807-.964,5.663l1.872,2.721-20.58-12.962c-1.787-1.125-4.148-.589-5.273,1.198s-.589,4.148,1.198,5.273l8.57,5.398c-.022.018-.041.04-.059.063-1.949-.732-4.259.12-5.164,2.226-.774,1.801-.03,3.906,1.593,5.006l1.142.773c-.008.046-.006.093.003.138-1.784-.685-3.878-.04-4.922,1.689-1.134,1.879-.428,4.343,1.389,5.574l2.813,1.906c-.122.007-.239.066-.306.18-.038.063-.048.133-.047.201-1.669-.156-3.375.713-4.122,2.452-.774,1.801-.03,3.906,1.593,5.006l15.23,10.358c6.886,4.665,15.915,4.686,22.822.051l10.872-7.294-21.889-34.473Z" fill="#ff9e85"></path>
          <g fill="none" opacity=".2">
            <path d="m145.077,216.577c-.043-.009-.085-.025-.124-.049l-8.385-5.146c-.179-.11-.235-.345-.126-.524.111-.18.345-.234.524-.125l8.385,5.146c.179.11.235.345.126.524-.086.14-.248.204-.4.174Z" fill="#0c0c0c"></path>
            <path d="m140.897,223.369c-.044-.009-.087-.025-.127-.051l-6.559-4.096c-.178-.111-.232-.346-.121-.525s.346-.233.525-.121l6.559,4.096c.178.111.232.346.121.525-.086.138-.247.202-.398.172Z" fill="#0c0c0c"></path>
            <path d="m136.412,230.751c-.041-.008-.081-.023-.119-.046l-3.143-1.862c-.181-.107-.241-.341-.134-.521.108-.181.341-.242.521-.134l3.143,1.862c.181.107.241.341.134.521-.085.143-.249.21-.402.179Z" fill="#0c0c0c"></path>
          </g>
        </g>
        <g>
          <path d="m90.459,255.378h31.958c3.519,0,6.159-3.217,5.472-6.668l-12.644-63.541c-.523-2.628-2.84-4.513-5.519-4.49l-31.144.262c-3.473.029-6.075,3.19-5.437,6.604l11.83,63.279c.494,2.64,2.798,4.554,5.484,4.554Z" fill="#262626"></path>
          <path d="m115.075,219.992c-1.084-1.603-2.968-2.146-4.612-1.661-.012-.073-.026-.148-.081-.206-.1-.099-.231-.11-.356-.081l2.481-2.475c1.583-1.578,1.819-4.178.326-5.841-1.375-1.531-3.596-1.776-5.251-.747,0-.041-.032-.075-.045-.115l1.021-1.019c1.413-1.41,1.756-3.658.637-5.311-1.505-2.225-4.555-2.44-6.359-.642l-2.357,2.351c-.01-.014-.006-.034-.019-.047-.015-.018-.043-.013-.061-.027,1.008-1.594.826-3.724-.561-5.116-1.592-1.822-4.434-.931-5.958.589l-14.379,14.085.438-.657,2.036-5.189c.816-2.081-.01-4.557-2.045-5.481-2.171-.985-4.695.058-5.555,2.249l-11.904,29.439s25.01,18.098,31.008,12.116l20.958-20.902c1.413-1.41,1.756-3.658.638-5.311Z" fill="#ff9e85"></path>
          <g fill="none" opacity=".2">
            <path d="m86.679,217.52c.147.145.383.147.532.003l13.241-12.786c.151-.146.155-.387.009-.539-.126-.153-.388-.155-.539-.009l-13.241,12.786c-.151.146-.155.387-.009.539l.006.006Z" fill="#0c0c0c"></path>
            <path d="m92.157,223.515c.147.145.383.147.532.003l14.777-14.27c.151-.146.155-.387.009-.539-.134-.137-.387-.155-.539-.009l-14.777,14.27c-.151.146-.155.387-.009.539l.006.006Z" fill="#0c0c0c"></path>
            <path d="m98.053,230.043c.147.145.383.147.532.003l11.788-11.382c.151-.146.155-.387.009-.539-.151-.15-.387-.155-.539-.009l-11.788,11.382c-.151.146-.155.387-.009.539l.006.006Z" fill="#0c0c0c"></path>
          </g>
        </g>
        <polygon points="58.393 226.251 104.214 244.133 69.357 344.772 15.71 330.764 58.393 226.251" fill="#367cff"></polygon>
        <path d="m213.236,362.605c-10.266,0-19.75-5.511-24.83-14.446l-51.788-96.511,43.131-27.567,32.96,55.81,35.627-61.559,46.263,33.942-56.283,95.435c-4.959,9.101-14.46,14.801-24.823,14.894-.086,0-.173.001-.257.001Z" fill="#367cff"></path>
        <path d="m213.236,362.985c-10.387,0-20.027-5.609-25.161-14.639l-51.793-96.519c-.094-.176-.037-.394.13-.501l43.131-27.566c.087-.056.193-.075.294-.049.1.024.187.088.24.177l32.631,55.252,24.439-41.789c.106-.183.34-.242.521-.136.182.106.243.34.137.521l-24.767,42.348c-.068.116-.193.188-.328.189h0c-.135,0-.26-.071-.328-.187l-32.76-55.471-42.502,27.164,51.622,96.2c4.994,8.784,14.382,14.245,24.494,14.245h.254c10.218-.093,19.602-5.724,24.491-14.696l50.405-85.936c.108-.182.343-.242.521-.136.181.106.242.34.136.521l-50.399,85.926c-5.016,9.205-14.655,14.988-25.148,15.082h-.261Z" fill="#0c0c0c"></path>
        <path d="m224.933,301.904c-.132,0-.262-.07-.332-.193l-12.224-21.631c-.103-.183-.039-.415.144-.519.181-.102.416-.039.519.144l12.224,21.631c.103.183.039.415-.144.519-.06.033-.123.049-.187.049Z" fill="#0c0c0c"></path>
        <path d="m79.079,319.671c-.042,0-.083-.007-.125-.021-.199-.069-.303-.286-.235-.485l25.93-74.866c.07-.199.288-.302.485-.235.199.069.303.286.235.485l-25.93,74.866c-.055.158-.202.256-.36.256Z" fill="#0c0c0c"></path>
        <path d="m116.625,302.904c-.197,0-.364-.153-.379-.353l-1.504-20.533c-.015-.21.143-.392.353-.408.193-.019.391.142.408.352l1.504,20.533c.015.21-.143.392-.353.408-.009,0-.019.001-.028.001Z" fill="#0c0c0c"></path>
      </g>
      <path d="m826.493,895.636H63.627c-.42,0-.762-.341-.762-.762s.341-.762.762-.762h762.866c.421,0,.762.341.762.762s-.341.762-.762.762Z" fill="#292a2e"></path>
      <g>
        <g>
          <rect x="288.371" y="61.871" width="381.125" height="777.264" rx="43.928" ry="43.928" fill="#292a2e"></rect>
          <rect x="302.274" y="75.589" width="353.321" height="748.805" rx="30.164" ry="30.164" fill="#fff"></rect>
          <path d="m406.572,69.917h144.725v14.975c0,8.938-7.256,16.194-16.194,16.194h-112.337c-8.938,0-16.194-7.256-16.194-16.194v-14.975h0Z" fill="#292a2e"></path>
        </g>
        <g>
          <path d="m568.071,243.098h-220.911l-28.052,21.011v-110.731c0-8.923,7.233-16.156,16.156-16.156h232.807c8.923,0,16.156,7.233,16.156,16.156v73.564c0,8.923-7.233,16.156-16.156,16.156Z" fill="#367cff"></path>
          <polygon points="584.227 243.098 347.161 243.098 319.109 264.109 319.109 137.223 584.227 137.223 584.227 243.098" fill="#fff" opacity=".49"></polygon>
          <path d="m564.426,160.834h-225.516c-.388,0-.703-.315-.703-.703s.314-.703.703-.703h225.516c.388,0,.703.315.703.703s-.314.703-.703.703Z" fill="#fff"></path>
          <path d="m564.426,181.919h-225.516c-.388,0-.703-.315-.703-.703s.314-.703.703-.703h225.516c.388,0,.703.315.703.703s-.314.703-.703.703Z" fill="#fff"></path>
          <path d="m564.426,203.004h-225.516c-.388,0-.703-.315-.703-.703s.314-.703.703-.703h225.516c.388,0,.703.315.703.703s-.314.703-.703.703Z" fill="#fff"></path>
          <path d="m451.974,224.089h-113.064c-.388,0-.703-.315-.703-.703s.314-.703.703-.703h113.064c.388,0,.703.315.703.703s-.314.703-.703.703Z" fill="#fff"></path>
        </g>
        <g>
          <path d="m422.018,694.09h185.769s28.052,21.011,28.052,21.011v-89.646c0-8.923-7.233-16.156-16.156-16.156h-197.665c-8.923,0-16.156,7.233-16.156,16.156v52.479c0,8.923,7.233,16.156,16.156,16.156Z" fill="#367cff"></path>
          <path d="m422.018,694.09h185.769s28.052,21.011,28.052,21.011v-89.646c0-8.923-7.233-16.156-16.156-16.156h-197.665c-8.923,0-16.156,7.233-16.156,16.156v52.479c0,8.923,7.233,16.156,16.156,16.156Z" fill="#fff" opacity=".11"></path>
          <path d="m616.038,632.911h-190.375c-.388,0-.703-.314-.703-.703s.314-.703.703-.703h190.375c.388,0,.703.314.703.703s-.314.703-.703.703Z" fill="#fff"></path>
          <path d="m616.038,653.996h-190.375c-.388,0-.703-.314-.703-.703s.314-.703.703-.703h190.375c.388,0,.703.314.703.703s-.314.703-.703.703Z" fill="#fff"></path>
          <path d="m616.038,675.081h-113.064c-.388,0-.703-.314-.703-.703s.314-.703.703-.703h113.064c.388,0,.703.314.703.703s-.314.703-.703.703Z" fill="#fff"></path>
        </g>
        <g>
          <path d="m422.018,404.966h185.769s28.052,21.011,28.052,21.011v-109.646c0-8.923-7.233-16.156-16.156-16.156h-197.665c-8.923,0-16.156,7.233-16.156,16.156v72.479c0,8.923,7.233,16.156,16.156,16.156Z" fill="#367cff"></path>
          <path d="m422.018,404.966h185.769s28.052,21.011,28.052,21.011v-109.646c0-8.923-7.233-16.156-16.156-16.156h-197.665c-8.923,0-16.156,7.233-16.156,16.156v72.479c0,8.923,7.233,16.156,16.156,16.156Z" fill="#fff" opacity=".11"></path>
          <path d="m616.038,343.787h-190.375c-.388,0-.703-.314-.703-.703s.314-.703.703-.703h190.375c.388,0,.703.314.703.703s-.314.703-.703.703Z" fill="#fff"></path>
          <path d="m616.038,323.787h-190.375c-.388,0-.703-.314-.703-.703s.314-.703.703-.703h190.375c.388,0,.703.314.703.703s-.314.703-.703.703Z" fill="#fff"></path>
          <path d="m616.038,364.872h-190.375c-.388,0-.703-.314-.703-.703s.314-.703.703-.703h190.375c.388,0,.703.314.703.703s-.314.703-.703.703Z" fill="#fff"></path>
          <path d="m616.038,385.957h-113.064c-.388,0-.703-.314-.703-.703s.314-.703.703-.703h113.064c.388,0,.703.314.703.703s-.314.703-.703.703Z" fill="#fff"></path>
        </g>
        <g>
          <path d="m568.071,552.645h-220.911l-28.052,21.011v-91.754c0-8.923,7.233-16.156,16.156-16.156h232.807c8.923,0,16.156,7.233,16.156,16.156v54.588c0,8.923-7.233,16.156-16.156,16.156Z" fill="#367cff"></path>
          <polygon points="584.227 552.645 347.161 552.645 319.109 573.656 319.109 465.746 584.227 465.746 584.227 552.645" fill="#fff" opacity=".49"></polygon>
          <path d="m564.426,489.358h-225.516c-.388,0-.703-.315-.703-.703s.314-.703.703-.703h225.516c.388,0,.703.315.703.703s-.314.703-.703.703Z" fill="#fff"></path>
          <path d="m564.426,510.443h-225.516c-.388,0-.703-.315-.703-.703s.314-.703.703-.703h225.516c.388,0,.703.315.703.703s-.314.703-.703.703Z" fill="#fff"></path>
          <path d="m451.974,531.933h-113.064c-.388,0-.703-.315-.703-.703s.314-.703.703-.703h113.064c.388,0,.703.315.703.703s-.314.703-.703.703Z" fill="#fff"></path>
        </g>
        <path d="m626.447,792.168h-296.538c-8.622,0-15.612-6.99-15.612-15.612v-15.651c0-8.623,6.99-15.613,15.613-15.613h296.536c8.623,0,15.613,6.99,15.613,15.613v15.651c0,8.622-6.99,15.612-15.612,15.612Zm-296.538-45.47c-7.846,0-14.206,6.36-14.206,14.206v15.652c0,7.846,6.36,14.206,14.206,14.206h296.537c7.846,0,14.207-6.361,14.207-14.207v-15.65c0-7.846-6.361-14.207-14.207-14.207h-296.537Z" fill="#367cff"></path>
        <polygon points="601.279 758.635 606.727 767.732 627.822 758.57 608.807 771.206 615.301 782.049 631.801 756.679 601.279 758.635" fill="#bd0bad"></polygon>
      </g>
    </g>
  </g>
</svg>