<svg id="Layer_2" data-name="Layer 2" xmlns="http://www.w3.org/2000/svg" viewBox="0 0 978.465 761.3" style="width: 100%; height: 100%;">
  <g id="Layer_2-2" data-name="Layer 2">
    <g>
      <g>
        <rect x="665.355" width="124.956" height="162.646" fill="#f4f4f4"></rect>
        <rect x="790.312" width="4.053" height="162.646" transform="translate(1584.677 162.646) rotate(180)" fill="#f4f4f4"></rect>
        <rect x="790.312" width="4.053" height="162.646" transform="translate(1584.677 162.646) rotate(180)" fill="#292a2e" opacity=".05"></rect>
        <rect x="688.118" y="29.628" width="79.432" height="103.39" fill="#292a2e" opacity=".05"></rect>
        <rect x="763.409" y="29.628" width="4.14" height="103.39" fill="#292a2e" opacity=".03"></rect>
        <rect x="790.312" y="202.643" width="102.194" height="103.132" fill="#f4f4f4"></rect>
        <rect x="808.928" y="221.43" width="64.962" height="65.559" fill="#292a2e" opacity=".05"></rect>
        <rect x="892.505" y="202.643" width="4.053" height="103.132" transform="translate(1789.064 508.418) rotate(180)" fill="#f4f4f4"></rect>
        <rect x="892.505" y="202.643" width="4.053" height="103.132" transform="translate(1789.064 508.418) rotate(180)" fill="#292a2e" opacity=".05"></rect>
        <rect x="869.75" y="221.43" width="4.14" height="65.559" fill="#292a2e" opacity=".03"></rect>
      </g>
      <g>
        <rect id="c_3_c" x="188.118" y="16.93" width="367.668" height="367.668" fill="#f4f4f4"></rect>
        <rect id="c_3_c-2" data-name="c_3_c" x="555.786" y="16.93" width="4.214" height="367.668" fill="#f4f4f4"></rect>
        <rect id="c_3_c-3" data-name="c_3_c" x="555.786" y="16.93" width="4.214" height="367.668" fill="#292a2e" opacity=".05"></rect>
        <polygon id="c_3_c-4" data-name="c_3_c" points="466.717 270.283 466.717 174.089 387.92 174.089 387.92 229.976 265.863 229.976 265.863 328.93 213.987 328.93 213.987 384.598 265.863 384.598 275.857 384.598 538.1 384.598 538.1 270.283 466.717 270.283" fill="#292a2e" opacity=".05"></polygon>
        <g id="c_3_wh">
          <rect id="c_3_wh-2" data-name="c_3_wh" x="398.034" y="184.533" width="57.381" height="10.444" fill="#fffffa" opacity=".34"></rect>
          <rect id="c_3_wh-3" data-name="c_3_wh" x="398.034" y="206.177" width="57.381" height="10.444" fill="#fffffa" opacity=".34"></rect>
          <rect id="c_3_wh-4" data-name="c_3_wh" x="398.034" y="227.82" width="57.381" height="10.444" fill="#fffffa" opacity=".34"></rect>
        </g>
        <g id="c_3_wh-5" data-name="c_3_wh">
          <rect id="c_3_wh-6" data-name="c_3_wh" x="517.348" y="280.421" width="10.576" height="10.444" fill="#fffffa" opacity=".34"></rect>
          <rect id="c_3_wh-7" data-name="c_3_wh" x="517.348" y="302.064" width="10.576" height="10.444" fill="#fffffa" opacity=".34"></rect>
          <rect id="c_3_wh-8" data-name="c_3_wh" x="517.348" y="323.708" width="10.576" height="10.444" fill="#fffffa" opacity=".34"></rect>
          <rect id="c_3_wh-9" data-name="c_3_wh" x="497.783" y="280.421" width="10.576" height="10.444" fill="#fffffa" opacity=".34"></rect>
          <rect id="c_3_wh-10" data-name="c_3_wh" x="497.783" y="302.064" width="10.576" height="10.444" fill="#fffffa" opacity=".34"></rect>
          <rect id="c_3_wh-11" data-name="c_3_wh" x="497.783" y="323.708" width="10.576" height="10.444" fill="#fffffa" opacity=".34"></rect>
          <rect id="c_3_wh-12" data-name="c_3_wh" x="478.746" y="280.421" width="10.576" height="10.444" fill="#fffffa" opacity=".34"></rect>
          <rect id="c_3_wh-13" data-name="c_3_wh" x="478.746" y="302.064" width="10.576" height="10.444" fill="#fffffa" opacity=".34"></rect>
          <rect id="c_3_wh-14" data-name="c_3_wh" x="478.746" y="323.708" width="10.576" height="10.444" fill="#fffffa" opacity=".34"></rect>
        </g>
        <polygon points="555.786 198.701 481.805 198.701 481.805 16.93 475.687 16.93 475.687 198.701 275.857 198.701 275.857 16.93 269.738 16.93 269.738 198.701 188.118 198.701 188.118 204.82 269.738 204.82 269.738 384.598 275.857 384.598 275.857 204.82 475.687 204.82 475.687 384.598 481.805 384.598 481.805 204.82 555.786 204.82 555.786 198.701" fill="#fff"></polygon>
        <rect id="c_3_c-5" data-name="c_3_c" x="173.471" y="384.154" width="396.961" height="12.227" fill="#f4f4f4"></rect>
        <rect id="c_3_c-6" data-name="c_3_c" x="173.471" y="384.154" width="396.961" height="12.227" fill="#292a2e" opacity=".1"></rect>
        <rect id="c_3_c-7" data-name="c_3_c" x="570.433" y="384.154" width="5.731" height="12.227" fill="#292a2e" opacity=".1"></rect>
        <rect id="c_3_c-8" data-name="c_3_c" x="570.433" y="384.154" width="5.731" height="12.227" fill="#292a2e" opacity=".1"></rect>
      </g>
      <g>
        <g>
          <rect x="726.446" y="745.306" width="21.003" height="14.026" fill="#292a2e" opacity=".05"></rect>
          <rect x="858.295" y="745.306" width="21.003" height="14.026" fill="#292a2e" opacity=".05"></rect>
        </g>
        <rect x="707.194" y="531.599" width="191.357" height="213.707" fill="#f4f4f4"></rect>
        <rect x="707.194" y="531.599" width="191.357" height="213.707" fill="#292a2e" opacity=".03"></rect>
        <rect x="656.372" y="531.599" width="191.357" height="213.707" fill="#f4f4f4"></rect>
        <g>
          <rect x="675.625" y="745.306" width="21.003" height="14.026" fill="#292a2e" opacity=".05"></rect>
          <rect x="807.474" y="745.306" width="21.003" height="14.026" fill="#292a2e" opacity=".05"></rect>
        </g>
        <rect x="666.667" y="544.812" width="170.767" height="54.202" fill="#fff" opacity=".7"></rect>
        <rect x="666.667" y="612.281" width="170.767" height="54.202" fill="#fff" opacity=".7"></rect>
        <rect x="666.667" y="679.748" width="170.767" height="54.202" fill="#fff" opacity=".7"></rect>
        <circle cx="752.05" cy="571.913" r="7.584" fill="#292a2e" opacity=".05"></circle>
        <circle cx="752.05" cy="639.382" r="7.584" fill="#292a2e" opacity=".05"></circle>
        <circle cx="752.05" cy="706.85" r="7.584" fill="#292a2e" opacity=".05"></circle>
      </g>
      <g>
        <rect x="419.588" y="80.634" width="324.241" height="661.255" rx="37.372" ry="37.372" fill="#292a2e"></rect>
        <rect x="431.415" y="92.304" width="300.587" height="637.043" rx="25.662" ry="25.662" fill="#fff"></rect>
        <path d="m520.146,87.478h123.124v12.74c0,7.604-6.173,13.777-13.777,13.777h-95.571c-7.604,0-13.777-6.173-13.777-13.777v-12.74h0Z" fill="#292a2e"></path>
        <rect x="495.2" y="497.637" width="173.018" height="71.276" rx="15.213" ry="15.213" fill="#367cff" opacity=".8"></rect>
        <path d="m668.212,553.702v7c0,8.4-6.81,15.21-15.21,15.21h-142.59c-8.4,0-15.21-6.81-15.21-15.21v-7c0,8.4,6.81,15.21,15.21,15.21h142.59c8.4,0,15.21-6.81,15.21-15.21Z" fill="#367cff"></path>
        <path d="m572.202,554.331c-.576,0-1.155-.198-1.626-.602l-16.321-13.987c-1.048-.898-1.17-2.477-.271-3.525.899-1.049,2.477-1.169,3.525-.271l14.482,12.412,33.698-36.871c.932-1.021,2.513-1.09,3.532-.159,1.019.932,1.09,2.513.159,3.532l-35.331,38.658c-.492.539-1.167.813-1.846.813Z" fill="#fff"></path>
        <g fill="none" opacity=".5">
          <path d="m691.452,312.509c0,11.329-11.01,20.781-14.329,31.003-3.44,10.595-.207,24.69-6.625,33.509-6.482,8.907-20.93,10.157-29.837,16.639-8.819,6.418-14.437,19.808-25.032,23.249-10.223,3.319-22.592-4.103-33.921-4.103s-23.698,7.422-33.921,4.103c-10.595-3.44-16.213-16.831-25.032-23.249-8.907-6.482-23.354-7.732-29.837-16.639-6.418-8.819-3.185-22.913-6.625-33.508-3.319-10.223-14.329-19.674-14.329-31.004s11.01-20.781,14.329-31.003c3.44-10.595.207-24.69,6.625-33.509,6.482-8.907,20.93-10.157,29.837-16.639,8.819-6.418,14.437-19.808,25.032-23.249,10.223-3.319,22.592,4.103,33.921,4.103s23.698-7.422,33.921-4.103c10.595,3.44,16.213,16.831,25.032,23.249,8.907,6.482,23.354,7.732,29.837,16.639,6.418,8.819,3.185,22.913,6.625,33.508,3.319,10.223,14.329,19.674,14.329,31.004Z" fill="#367cff"></path>
        </g>
        <rect x="614.774" y="254.209" width="28.174" height="124.391" transform="translate(1257.721 632.809) rotate(180)" fill="#367cff"></rect>
        <path d="m592.265,281.921c-15.329,0-27.8-12.472-27.8-27.801s12.471-27.801,27.8-27.801,27.801,12.472,27.801,27.801-12.471,27.801-27.801,27.801Zm0-52.602c-13.675,0-24.8,11.126-24.8,24.801s11.125,24.801,24.8,24.801,24.801-11.126,24.801-24.801-11.125-24.801-24.801-24.801Z" fill="#367cff"></path>
        <path d="m595.42,254.209c0-.03.002-.059.002-.088,0-15.329-12.471-27.801-27.801-27.801s-27.801,12.472-27.801,27.801c0,.03.002.059.002.088h-19.354v124.391h94.304v-124.391h-19.354Zm-52.599-.088c0-13.675,11.125-24.801,24.801-24.801s24.801,11.126,24.801,24.801c0,.03-.002.059-.002.088h-49.597c0-.03-.002-.059-.002-.088Z" fill="#fff"></path>
      </g>
      <path d="m353.756,711.345l-2.162,13.701c-.484,3.064-3.11,5.331-6.212,5.361l-55.071.534c-3.716.036-4.901-4.992-1.561-6.619l33.062-16.108,31.943,3.13Z" fill="#ff9e85"></path>
      <g>
        <path d="m891.407,630.159c-.256,0-.512-.098-.707-.293-1.409-1.408-3.706-27.258-9.892-104.222-2.531-31.493-4.922-61.239-6.667-79.316-.125-1.291-.625-1.441-.79-1.49-2.386-.709-9.652,5.007-13.707,10.022-.347.43-.977.498-1.407.148-.429-.347-.496-.977-.149-1.406,2.682-3.316,11.418-11.999,15.838-10.681.891.268,1.996,1.043,2.206,3.215,1.746,18.093,4.137,47.847,6.669,79.348,3.759,46.77,8.018,99.754,9.417,103.091.282.391.247.939-.105,1.291-.195.195-.451.293-.707.293Z" fill="#494949"></path>
        <ellipse cx="853.811" cy="457.345" rx="38.507" ry="28.398" transform="translate(-98.435 634.503) rotate(-38.715)" fill="#bd0bad"></ellipse>
        <ellipse cx="853.811" cy="457.345" rx="38.507" ry="28.398" transform="translate(-98.435 634.503) rotate(-38.715)" fill="#fff" opacity=".2"></ellipse>
        <path d="m828.417,484.538c-.112,0-.225-.038-.319-.115-.212-.176-.242-.491-.065-.704l47.291-57.028c.176-.212.491-.241.704-.065.212.176.242.491.065.704l-47.291,57.028c-.099.119-.241.181-.385.181Z" fill="#fff"></path>
        <path d="m901.721,617.933c-.109,0-.22-.018-.329-.056-.521-.182-.797-.751-.616-1.272l17.764-51.087c1.066-3.066,3.586-5.352,6.741-6.113,3.157-.761,6.441.122,8.788,2.365l9.391,8.972c.399.381.414,1.014.032,1.413-.383.4-1.015.414-1.414.032l-9.391-8.972c-1.852-1.77-4.445-2.466-6.937-1.866-2.491.602-4.48,2.405-5.322,4.825l-17.764,51.087c-.144.413-.53.672-.944.672Z" fill="#494949"></path>
        <ellipse cx="945.801" cy="568.827" rx="28.398" ry="38.507" transform="translate(-148.833 709.822) rotate(-38.363)" fill="#bd0bad"></ellipse>
        <path d="m883.337,626.901c-.452,0-.862-.309-.972-.768l-29.811-124.645c-.422-1.767-1.729-3.079-3.494-3.51-1.764-.432-3.53.132-4.719,1.506l-9.189,10.619c-.361.418-.994.464-1.411.102-.417-.361-.463-.992-.102-1.41l9.189-10.619c1.665-1.923,4.235-2.744,6.706-2.141s4.373,2.515,4.965,4.988l29.811,124.645c.128.537-.203,1.076-.74,1.205-.078.019-.156.027-.233.027Z" fill="#494949"></path>
        <ellipse cx="844.355" cy="532.954" rx="38.507" ry="28.398" transform="translate(175.323 1274.151) rotate(-80.189)" fill="#bd0bad"></ellipse>
        <path d="m891.408,630.159c-.041,0-.082-.002-.124-.008-.548-.067-.938-.566-.871-1.114l19.036-154.558c.43-3.486,2.78-6.297,6.135-7.336,3.354-1.038,6.882-.049,9.206,2.584l21.758,24.643c.366.414.326,1.046-.087,1.412-.415.365-1.046.325-1.412-.088l-21.758-24.643c-1.796-2.035-4.522-2.802-7.116-1.997-2.593.803-4.41,2.976-4.741,5.669l-19.036,154.558c-.062.507-.494.878-.991.878Z" fill="#494949"></path>
        <ellipse cx="935.17" cy="489.426" rx="28.398" ry="38.507" transform="translate(54.246 1070.849) rotate(-61.051)" fill="#bd0bad"></ellipse>
        <ellipse cx="945.801" cy="568.827" rx="28.398" ry="38.507" transform="translate(-148.833 709.822) rotate(-38.363)" fill="#fff" opacity=".2"></ellipse>
        <ellipse cx="844.355" cy="532.954" rx="38.507" ry="28.398" transform="translate(175.323 1274.151) rotate(-80.189)" fill="#fff" opacity=".5"></ellipse>
        <ellipse cx="935.17" cy="489.426" rx="28.398" ry="38.507" transform="translate(54.246 1070.849) rotate(-61.051)" fill="#fff" opacity=".5"></ellipse>
        <polygon points="915.755 761.3 867.059 761.3 858.989 605.496 923.824 605.496 915.755 761.3" fill="#292a2e"></polygon>
        <polygon points="915.755 761.3 867.059 761.3 858.989 605.496 923.824 605.496 915.755 761.3" fill="#fff" opacity=".3"></polygon>
        <path d="m969.7,599.52c-.148,0-.294-.065-.393-.189l-47.799-60.387c-.171-.217-.135-.531.082-.702.218-.173.532-.134.703.081l47.799,60.387c.171.217.135.531-.082.702-.092.073-.202.108-.31.108Z" fill="#fff"></path>
        <path d="m965.687,512.903c-.102,0-.206-.031-.294-.097l-61.167-44.661c-.223-.163-.272-.477-.109-.699.162-.223.475-.272.699-.108l61.167,44.661c.223.163.272.477.109.699-.098.134-.25.205-.404.205Z" fill="#fff"></path>
        <path d="m835.312,570.251c-.043,0-.086-.006-.129-.017-.267-.071-.425-.346-.354-.612l19.472-72.953c.071-.268.35-.418.612-.354.267.071.425.346.354.612l-19.472,72.953c-.06.224-.262.371-.482.371Z" fill="#fff"></path>
      </g>
      <g>
        <path d="m52.101,736.539s-29.255,13.166-39.241,15.78-7.883,11.045,3.679,8.144l46.423.6s21.372.002,19.27-18.392-30.131-6.131-30.131-6.131Z" fill="#ff9e85"></path>
        <path d="m144.851,670.984s-.372,80.818,58.113,88.296l55.061-50.393,34.137-68.09-127.775,14.099-19.536,16.088Z" fill="#262626"></path>
        <path d="m143.277,666.582l-.174.046s-.569-3.425.174-.046Z" fill="#333"></path>
        <g>
          <path d="m368.75,431.944c-.006-.035-.039-.058-.056-.09l.703-1.026c.972-1.42.903-3.38-.309-4.603-1.631-1.645-4.25-1.34-5.49.472l-1.622,2.369c-.011-.011-.01-.028-.023-.037-.015-.013-.038-.005-.056-.013.6-1.511.105-3.288-1.293-4.245-1.64-1.289-3.906-.081-4.955,1.45l-9.668,13.605.896-4.722c.359-1.893-.737-3.86-2.609-4.318-1.997-.488-3.969.799-4.347,2.793l-4.892,25.783c-1.193,6.289,2.833,12.386,9.086,13.758h0c7.134,1.565,14.505-1.355,18.631-7.381,0,0,7.301-34.986,6.004-33.794Z" fill="#ff9e85"></path>
          <g>
            <path d="m360.329,392.925l2.939.286c1.341.13,2.291,1.215,2.139,2.441l-7.487,60.541c-.154,1.244-1.382,2.168-2.746,2.068l-3.367-.248,8.521-65.087Z" fill="#292a2e"></path>
            <g>
              <path d="m352.344,458.076l-6.235-.471c-1.237-.093-2.127-1.084-1.989-2.212l7.484-61.066c.138-1.128,1.253-1.967,2.49-1.873l6.235.471c1.237.093,2.127,1.084,1.989,2.212l-7.484,61.066c-.138,1.128-1.253,1.967-2.49,1.873Z" fill="#292a2e"></path>
              <path d="m351.708,456.818l-5.523-.454c-.849-.064-1.461-.744-1.366-1.519l7.421-59.966c.095-.775.86-1.35,1.71-1.286l5.45.459c.849.064,1.461.744,1.366,1.519l-7.348,59.961c-.095.775-.86,1.35-1.71,1.286Z" fill="#fff"></path>
              <path d="m358.017,396.068l-2.417-.183c-.456-.034-.784-.4-.733-.815l.228-1.86,4.068.308-.228,1.86c-.051.416-.462.725-.918.691Z" fill="#292a2e"></path>
            </g>
          </g>
          <path d="m347.719,438.437c.843-1.357,2.374-1.906,3.777-1.608.006-.064.012-.129.056-.182.079-.092.191-.11.3-.094l-2.303-1.965c-1.392-1.188-1.827-3.257-.818-4.783,1.046-1.583,3.051-2.018,4.615-1.207-.003-.035.023-.067.031-.102l-.946-.807c-1.31-1.117-1.755-3.027-.904-4.523,1.144-2.014,3.752-2.403,5.423-.978l2.184,1.863c.008-.013.003-.03.013-.042.011-.016.036-.014.05-.027-.973-1.302-.96-3.146.14-4.435,1.246-1.673,3.749-1.098,5.162.106l4.154,4.14c1.302,1.298,1.866,3.16,1.507,4.964-1.529,7.681-6.002,27.647-10.509,23.803l-11.096-9.464c-1.281-1.092-1.722-3.227-.833-4.657Z" fill="#ff9e85"></path>
        </g>
        <path d="m325.841,457.232l-16.311,88.262-41.693-64.258-31.853,37.421,66.433,90.742.563.526c2.982,2.719,6.616,4.814,10.754,6.013,14.44,4.184,29.538-4.13,33.722-18.57l27.362-132.279-48.977-7.856Z" fill="#367cff"></path>
        <path d="m307.268,554.175c-.044,0-.089-.006-.134-.019-.266-.073-.422-.349-.349-.614l2.262-8.182c.074-.267.353-.424.615-.349.266.073.422.349.349.614l-2.262,8.182c-.061.222-.262.367-.481.367Z" fill="#0c0c0c"></path>
        <g>
          <g>
            <path d="m127.296,410.155s-1.032,28.664-6.197,37.315c-14.869,24.903-19.069,44.303-3.521,58.53,15.549,14.228,113.173,12.788,120.008-20.654,5.754-28.155-7.658-30.946-11.298-54.031-1.647-10.445-6.063-32.331-6.063-32.331" fill="#0a0a0a"></path>
            <path id="sk" d="m218.777,470.899c-.17.013,4.416,30.762-31.415,35.568-24.805,3.33-38.985-20.737-39.545-20.619,2.514-1.116,6.776-2.866,7.813-3.737,3.408-2.878,7.712-6.033,7.373-13.762-.195-4.455-6.059-26.216-6.606-30.649l39.25.446c1.42,9.307,2.259,31.401,15.904,32.459,2.27.172,4.693.26,7.226.294Z" fill="#ff9e85"></path>
            <path id="sh" d="m201.577,463.611c-.889-1.582-1.516-2.989-2.357-5.579-1.503-4.631-2.156-9.043-2.614-13.582-7.785.592-15.728-1.057-22.634-4.699-.153,2.717-1.607,14.757-.031,16.976,2.979,4.194,13.99,9.767,27.636,6.884Z" fill="#0c0c0c" opacity=".22"></path>
            <path d="m191.621,460.874c-15.077,1.719-31.46-4.099-35.846-24.141l-7.216-17.983c-4.386-20.043,2.586-38.595,21.457-42.724h0c18.871-4.13,34.29,1.71,38.675,21.753,0,0,2.681,11.463,3.155,15.352,1.785,14.668,2.651,45.135-20.226,47.744Z" fill="#ff9e85"></path>
            <path id="e1_eb" d="m211.869,409.947c-.051.656-2.514.657-5.802.235s-6.205-.95-6.107-1.763c.124-1.027,2.904-1.516,6.193-1.094s5.797,1.59,5.716,2.622Z" fill="#0a0a0a"></path>
            <path d="m133.56,425.517l21.53,5.287c12.733-5.578,11.385-36.876,11.385-36.876,0,0,16.079,14.805,53.75,5.055,0,0-9.057-50.982-64.636-34.016-17.922,5.471-30.32,25.721-28.015,50.002,1.616,17.015,5.986,10.548,5.986,10.548Z" fill="#0a0a0a"></path>
            <path d="m155.025,442.684c-5.735,1.255-11.73-.626-13.596-9.263-1.239-5.738,3.316-10.25,9.051-11.505l3.796,3.196,5.679,16.493-4.931,1.079Z" fill="#ff9e85"></path>
            <g>
              <circle id="e1_eye" cx="206.81" cy="417.214" r="2.101" transform="translate(-11.76 6.039) rotate(-1.627)" fill="#0a0a0a"></circle>
              <g id="e1_n">
                <path d="m193.595,433.536c-.425.012-.798-.299-.856-.729-.062-.46.262-.883.722-.944l4.436-.592-2.991-8.81c-.149-.44.086-.917.526-1.066.439-.149.916.086,1.066.526l3.319,9.778c.081.238.05.5-.082.713s-.354.357-.603.39l-5.45.727c-.029.004-.059.006-.088.007Z" fill="#0a0a0a"></path>
              </g>
              <g id="e1_m">
                <path d="m192.689,442.607c-7.442,1.631-10.642-2.381-10.788-2.57-.283-.368-.215-.895.153-1.179.365-.283.891-.215,1.175.148.135.171,3.375,4.09,11.35,1.316.447-.157.918.08,1.071.518.152.438-.08.917-.518,1.07-.86.299-1.675.528-2.443.697Z" fill="#0a0a0a"></path>
              </g>
              <path id="e1_eb-2" data-name="e1_eb" d="m186.345,410.232c.219.62-2.031,1.621-5.208,2.569s-6.057,1.65-6.297.866c-.303-.989,2.039-2.564,5.216-3.513,3.177-.949,5.943-.898,6.288.077Z" fill="#0a0a0a"></path>
              <circle id="e1_eye-2" data-name="e1_eye" cx="184.83" cy="418.99" r="2.101" transform="translate(-11.819 5.415) rotate(-1.627)" fill="#0a0a0a"></circle>
            </g>
            <path d="m142.584,418.15l-.036,8.021c1.47-1.873,3.632-3.209,6.174-3.584.632-.102,1.261-.112,1.878-.078,3.918,2.927,1.353,8.549,4.489,8.295,1.781-.144,5.729-4.471,6.63-7.111.571-1.674-4.067-7.901-4.095-9.67" fill="#0a0a0a"></path>
          </g>
          <path d="m277.08,528.61c1.565,13.289,12.855,95.881,15.083,112.187l-147.311,30.187c-3.805-14.339-20.544-77.019-29.514-104.746-8.561-26.458-16.651-39.918-14.577-52.76,2.42-14.99,22.213-20.991,35.037-25.48,7.831-2.741,19.785-6.005,19.785-6.005,0,0,5.278,20.539,29.972,16.682,33.616-5.252,26.582-28.271,26.747-28.305,5.394-1.105,32.3-2.934,40.753-.01,23.034,7.955,20.714,30.088,24.026,58.249Z" fill="#367cff"></path>
        </g>
        <rect x="281.435" y="536.973" width="1" height="51.833" transform="translate(-78.323 46.608) rotate(-8.302)" fill="#0c0c0c"></rect>
        <path d="m88.177,749.48l-48.169-13.406c22.285-80.077,58.463-211.779,60.672-224.289-.027.154-.266,1.566-.237,3.579l49.995-.707c.07,4.925.112,7.897-31.521,123.452-15.188,55.479-30.585,110.818-30.739,111.371Z" fill="#367cff"></path>
        <rect x="109.441" y="585.134" width="46.59" height="1" transform="translate(-467.747 588.295) rotate(-77.483)" fill="#0c0c0c"></rect>
        <path d="m244.619,654.275s131.352-67.859,167.736-80.41c9.425-3.251,26.645-6.244,41.408,2.387,44.035,25.747,160.322,130.587,160.322,130.587l-28.249,42.212-153.619-110.015s-73.607,52.512-140.055,75.608l-67.072-7.925,19.529-52.443Z" fill="#262626"></path>
        <path d="m631.354,719.05s23.527-3.824,25.476-25.689c1.949-21.865,19.258-16.601,19.258-16.601l-2.466,83.703-41.819-1.232-.449-40.181Z" fill="#367cff"></path>
        <path d="m202.964,759.28s-7.025-.47,8.926.056c59.497,1.961,433.102.981,433.102.981l.189-56.044-442.091-31.368-.125,86.376Z" fill="#262626"></path>
        <path d="m361.884,684.484c-.021,0-.042,0-.063-.004l-43.575-5.492c-.274-.034-.468-.284-.434-.559.035-.273.28-.478.559-.434l43.575,5.492c.274.034.468.284.434.559-.032.253-.247.438-.496.438Z" fill="#fff"></path>
        <path d="m610.265,701.911c-.012,0-.024,0-.036,0l-104.699-7.418c-.275-.02-.483-.259-.463-.534.019-.275.264-.493.534-.464l104.699,7.418c.275.02.483.259.463.534-.019.264-.238.465-.498.465Z" fill="#fff"></path>
      </g>
      <path d="m953.263,761.3H.737c-.406,0-.737-.329-.737-.737s.33-.737.737-.737h952.527c.407,0,.737.329.737.737s-.329.737-.737.737Z" fill="#292a2e"></path>
    </g>
  </g>
</svg>