<svg id="Layer_2" data-name="Layer 2" xmlns="http://www.w3.org/2000/svg" viewBox="0 0 636.369 514.039" style="width: 100%; height: 100%;">
  <g id="Layer_2-2" data-name="Layer 2">
    <g>
      <path d="m636.369,318.177c0,73.228-24.741,140.679-66.317,194.445H66.317C24.741,458.856,0,391.406,0,318.177,0,142.447,142.461,0,318.192,0s318.178,142.447,318.178,318.177Z" fill="#367cff" opacity=".1"></path>
      <g>
        <g>
          <g>
            <path d="m419.977,286.468l16.046-30.259c1.477-2.785,5.039-3.754,7.745-2.003,2.4,1.552,3.038,4.804,1.699,7.329l-3.441,6.489,20.186-15.438c2.214-1.755,6.054-2.493,7.86.12,1.599,2.017,1.527,4.817-.015,6.745.019.019.044.033.06.056.013.017.017.038.028.057l3.415-2.707c2.633-2.087,6.607-1.335,8.223,1.831,1.183,2.318.392,5.17-1.647,6.787l-1.453,1.152c.014.058.018.117.01.175,2.331-1.105,5.223-.428,6.779,1.821,1.65,2.384.973,5.681-1.299,7.482l-3.609,2.861c.156-.006.312.052.419.186.06.079.085.17.092.263,2.266-.388,4.695.675,5.835,3.04,1.109,2.3.294,5.079-1.707,6.666l-30.453,24.141c-8.715,6.909-20.75,7.839-30.423,2.351h0c-8.477-4.81-11.59-15.491-7.024-24.102l2.674-5.042Z" fill="#ff9e85"></path>
            <g fill="none" opacity=".2">
              <path d="m450.153,274.83c.17.211.478.249.694.083l19.178-14.706c.219-.168.26-.482.092-.701-.141-.218-.482-.26-.701-.092l-19.178,14.706c-.219.168-.26.482-.092.701l.007.009Z" fill="#0c0c0c"></path>
            </g>
            <g fill="none" opacity=".2">
              <path d="m456.405,283.467c.17.211.478.249.694.083l21.403-16.411c.219-.168.26-.482.092-.701-.155-.199-.482-.26-.701-.092l-21.403,16.411c-.219.168-.26.482-.092.701l.007.009Z" fill="#0c0c0c"></path>
            </g>
            <g fill="none" opacity=".2">
              <path d="m463.123,292.861c.17.211.478.249.694.083l17.073-13.091c.219-.168.26-.482.092-.701-.174-.218-.482-.26-.701-.092l-17.073,13.091c-.219.168-.26.482-.092.701l.007.009Z" fill="#0c0c0c"></path>
            </g>
          </g>
          <path d="m419.977,286.468l16.046-30.259c1.477-2.785,5.039-3.754,7.745-2.003,2.4,1.552,3.038,4.804,1.699,7.329l-3.441,6.489-5.35,11.715" fill="#ff9e85"></path>
        </g>
        <path d="m305.678,288.144l51.889,90.953,53.031-96.834,63.375,35.383-85.318,149.921c-2.655,4.624-6.484,8.856-11.25,11.978-16.188,10.609-37.912,6.085-48.52-10.103l-.438-.669-91.001-138.864,68.232-41.766Z" fill="#367cff"></path>
        <g>
          <g>
            <path d="m248.594,185.752c1.147-.181,2.133-1.023,2.44-2.22.258-1.005,6.131-24.983-9.312-56.358-16.728-33.987-55.41-28.304-55.799-28.243-1.636.258-2.754,1.795-2.496,3.431.258,1.635,1.792,2.752,3.427,2.496h0c1.411-.218,34.732-5.006,49.485,24.966,14.473,29.406,8.94,51.995,8.883,52.219-.412,1.605.556,3.239,2.162,3.65.409.105.819.12,1.211.058Z" fill="#bd0bad"></path>
            <g>
              <circle cx="246.531" cy="188.263" r="22.79" fill="#bd0bad"></circle>
              <circle cx="246.531" cy="188.263" r="22.79" fill="#fff" opacity=".3"></circle>
              <circle cx="241.13" cy="189.115" r="22.79" fill="#bd0bad"></circle>
            </g>
          </g>
          <g>
            <g>
              <path d="m128.492,176.092s1.315,39.463-4.953,51.835c-18.045,35.617-21.964,62.658.746,80.714,22.709,18.056,156.637,6.771,162.835-39.806,5.218-39.213-13.466-41.767-20.666-73.122-3.258-14.187-11.409-43.822-11.409-43.822" fill="#0a0a0a"></path>
              <path id="sk" d="m246.275,268.686c-.229-.03-2.77,42.137-51.756,38.461-33.913-2.54-46.004-38.521-46.781-38.521,3.656-.777,9.813-1.907,11.437-2.774,5.34-2.869,11.947-5.855,13.669-16.225.992-5.977-.691-36.555-.173-42.602l52.056,11.619c-.727,12.772-5.818,42.381,12.025,47.621,2.969.867,6.167,1.664,9.524,2.421Z" fill="#ff9e85"></path>
              <path id="sh" d="m225.456,254.165c-.737-2.354-1.176-4.4-1.566-8.079-.697-6.58-.326-12.628.34-18.791-10.516-1.4-20.612-5.823-28.771-12.605-.967,3.57-6.283,19.168-4.811,22.561,2.782,6.413,15.856,16.915,34.807,16.915Z" fill="#0c0c0c" opacity=".22"></path>
              <path d="m218.664,239.611c-20.541,3.799-40.595-2.629-48.529-29.735l-11.624-24.008c-7.934-27.106-.129-53.248,25.393-60.718h0c25.522-7.47,47.252-.921,55.186,26.185,0,0,4.775,15.486,5.796,20.782,3.85,19.973,4.943,61.73-26.224,67.494Z" fill="#ff9e85"></path>
              <path d="m224.721,209.592c.434-.079.807.288.757.727-.645,5.69-5.449,9.491-11.328,9.283-5.857-.207-10.679-4.32-10.983-10.009-.024-.454.403-.796.839-.668,1.391.41,4.618,1.125,10.575,1.292,5.117.143,8.635-.352,10.14-.625Z" fill="#fff"></path>
              <path id="e1_eb" d="m240.046,168.445c-.008.905-3.389,1.142-7.946.877-4.557-.266-8.612-.713-8.555-1.839.072-1.422,3.844-2.359,8.4-2.093,4.557.266,8.112,1.631,8.1,3.055Z" fill="#0a0a0a"></path>
              <path d="m138.559,196.592l30.07,5.208c16.954-8.874,12.12-51.727,12.12-51.727,0,0,23.493,18.799,74.296,1.818,0,0-17.298-69.15-92.007-40.551-24.09,9.222-39.186,38.213-33.705,71.337,3.841,23.213,9.226,13.915,9.226,13.915Z" fill="#0a0a0a"></path>
              <path d="m169.673,218.12c-7.756,2.27-16.168.259-19.554-11.425-2.249-7.762,3.577-14.392,11.333-16.662l5.518,4.027,9.372,22.108-6.668,1.952Z" fill="#ff9e85"></path>
              <g>
                <circle id="e1_eye" cx="227.506" cy="178.253" r="2.892" transform="translate(-16.303 23.043) rotate(-5.598)" fill="#0a0a0a"></circle>
                <g id="e1_n">
                  <path d="m215.593,202.12c-.583.057-1.125-.334-1.245-.92-.128-.626.275-1.238.902-1.366l6.036-1.235-4.948-11.813c-.246-.59.031-1.267.621-1.514.589-.246,1.267.031,1.514.62l5.49,13.112c.133.319.117.682-.045.988s-.452.523-.791.593l-7.415,1.518c-.04.008-.08.014-.12.018Z" fill="#0a0a0a"></path>
                </g>
                <path id="e1_eb-2" data-name="e1_eb" d="m205.022,170.284c.36.831-2.634,2.419-6.907,4.025-4.272,1.606-8.161,2.843-8.565,1.79-.511-1.329,2.556-3.715,6.829-5.321,4.272-1.606,8.076-1.8,8.643-.494Z" fill="#0a0a0a"></path>
                <circle id="e1_eye-2" data-name="e1_eye" cx="198.818" cy="182.918" r="2.893" transform="translate(-16.895 20.267) rotate(-5.598)" fill="#0a0a0a"></circle>
              </g>
              <path d="m150.25,185.614l.716,11.019c1.839-2.713,4.681-4.752,8.137-5.511.858-.2,1.722-.274,2.571-.286,5.659,3.646,2.673,11.611,6.956,10.963,2.433-.368,7.441-6.686,8.427-10.398.625-2.353-6.338-10.463-6.545-12.889" fill="#0a0a0a"></path>
            </g>
            <path id="b_1_b" d="m193.311,296.983c-34.092-1.607-35.527-30.544-35.527-30.544,0,0-16.892,1.092-28.121,2.611-18.384,2.487-30.512,8.721-40.163,18.372-8.978,8.978-14.444,18.692-8.66,80.711,4.188,44.906,1.24,143.679,1.24,143.679h207.75s14.507-142.697,16.227-162.911c3.283-38.589,12.555-47.108-6.232-66.986-13.625-14.416-48.797-15.476-62.958-15.474-.231,0,2.873,32.73-43.555,30.541Z" fill="#367cff"></path>
            <path d="m289.288,507.839c-87.974,0-109.15-38.55-118.263-76.26-10.081-41.715-4.631-77.156.176-108.426,2.256-14.674,4.387-28.534,4.387-40.89,0-37.12-14.017-59.089-14.159-59.307l1.675-1.092c.145.222,14.483,22.645,14.483,60.399,0,12.509-2.142,26.442-4.41,41.194-4.78,31.086-10.197,66.32-.209,107.652,8.93,36.953,29.732,74.729,116.319,74.729v2Z" fill="#bd0bad"></path>
            <path d="m289.288,507.839c-87.974,0-109.15-38.55-118.263-76.26-10.081-41.715-4.631-77.156.176-108.426,2.256-14.674,4.387-28.534,4.387-40.89,0-37.12-14.017-59.089-14.159-59.307l1.675-1.092c.145.222,14.483,22.645,14.483,60.399,0,12.509-2.142,26.442-4.41,41.194-4.78,31.086-10.197,66.32-.209,107.652,8.93,36.953,29.732,74.729,116.319,74.729v2Z" fill="#fff" opacity=".3"></path>
            <path d="m302.799,356.907c.018-.275.255-.486.53-.468.276.018.485.255.468.53l-4.183,66.828c-.016.251-.215.448-.459.467-.023.002-.047.002-.071,0-.276-.018-.485-.255-.468-.53" fill="#0c0c0c"></path>
            <g>
              <path d="m264.272,415.996l31.273-13.967c2.879-1.286,6.282.144,7.337,3.19.935,2.701-.563,5.656-3.173,6.821l-6.706,2.995,25.411.261c2.826-.02,6.306,1.762,6.12,4.934.018,2.574-1.762,4.736-4.164,5.307.003.027.015.053.012.081,0,.022-.01.04-.013.061l4.358-.031c3.36-.024,6.028,3.016,5.352,6.505-.495,2.555-2.873,4.315-5.476,4.334l-1.854.013c-.025.054-.058.103-.1.144,2.518.564,4.379,2.878,4.221,5.608-.167,2.895-2.73,5.076-5.63,5.097l-4.606.033c.127.091.214.233.216.404-.001.099-.038.186-.089.264,2.025,1.089,3.284,3.423,2.727,5.987-.542,2.496-2.895,4.184-5.449,4.202l-38.86.277c-11.121.079-21.178-6.597-25.422-16.877h0c-3.72-9.009.403-19.343,9.303-23.317l5.211-2.327Z" fill="#ff9e85"></path>
              <g fill="none" opacity=".2">
                <path d="m295.216,425.402c.004.271.224.49.496.493l24.166.218c.276.002.502-.219.504-.496.023-.259-.22-.502-.496-.504l-24.166-.218c-.276-.002-.502.219-.504.496v.012Z" fill="#0c0c0c"></path>
              </g>
              <g fill="none" opacity=".2">
                <path d="m294.826,436.058c.004.271.224.49.496.493l26.969.243c.276.002.502-.219.504-.496,0-.252-.22-.502-.496-.504l-26.969-.243c-.276-.002-.502.219-.504.496v.012Z" fill="#0c0c0c"></path>
              </g>
              <g fill="none" opacity=".2">
                <path d="m294.337,447.596c.004.271.224.49.496.493l21.513.194c.276.002.502-.219.504-.496-.003-.279-.22-.502-.496-.504l-21.513-.194c-.276-.002-.502.219-.504.496v.012Z" fill="#0c0c0c"></path>
              </g>
            </g>
            <path id="b_4_b" d="m273.223,471.679l-173.387,39.415c-1.356.147-2.712.22-4.061.22-10.264,0-20.15-4.216-27.274-11.767-8.061-8.545-11.652-20.372-9.703-31.955l19.842-159.603c3.437-20.423,22.775-34.19,43.202-30.759,20.423,3.436,34.195,22.778,30.759,43.202l-9.555,114.235,120.464-27.261,9.714,64.273Z" fill="#367cff"></path>
            <g id="b_4_st">
              <path d="m118.669,439.159c-.244,0-.457-.178-.494-.426-.041-.273.147-.527.42-.568l24.161-5.159c.283-.043.528.147.569.42.041.273-.147.527-.42.568l-24.161,5.159c-.025.004-.05.006-.075.006Z" fill="#0c0c0c"></path>
            </g>
            <g id="b_4_st-2" data-name="b_4_st">
              <path d="m105.038,511.813c-.248,0-.462-.184-.495-.436-.036-.273.157-.524.431-.561l167.161-39.371-9.471-63.301-119.745,25.851c-.158.019-.315-.035-.425-.148-.11-.114-.16-.274-.134-.431l6.716-65.27c.045-.272.298-.461.576-.41.272.046.456.304.41.576l-6.604,64.602,119.434-25.87c.13-.037.269-.017.385.051s.2.18.233.311l9.714,64.273c.066.263-.091.532-.353.604l-167.767,39.527c-.022.003-.044.004-.065.004Z" fill="#0c0c0c"></path>
            </g>
          </g>
          <path d="m149.921,200.05c1.636-.258,2.754-1.795,2.496-3.431l-5.328-33.756c-2.711-17.177-.105-31.538,7.536-41.53,7.243-9.471,18.888-15.138,34.6-16.853,1.631-.175,2.837-1.66,2.657-3.307-.179-1.647-1.66-2.837-3.307-2.657-17.409,1.893-30.437,8.346-38.716,19.173-8.663,11.328-11.67,27.272-8.697,46.11l5.328,33.756c.258,1.636,1.795,2.754,3.431,2.496Z" fill="#bd0bad"></path>
          <g>
            <circle cx="154.883" cy="202.729" r="22.79" fill="#bd0bad"></circle>
            <circle cx="149.482" cy="203.582" r="22.79" fill="#bd0bad"></circle>
            <circle cx="149.482" cy="203.582" r="22.79" fill="#fff" opacity=".3"></circle>
          </g>
        </g>
      </g>
      <g>
        <path d="m348.591,499.33l37.372-114.881c1.347-4.141,5.207-6.945,9.562-6.945h152.257c6.833,0,11.676,6.668,9.562,13.166l-37.372,114.881c-1.347,4.141-5.207,6.945-9.562,6.945h-152.257c-6.833,0-11.676-6.668-9.562-13.166Z" fill="#292a2e"></path>
        <rect x="272.558" y="503.181" width="111.117" height="9.315" rx="4.598" ry="4.598" fill="#292a2e"></rect>
        <circle cx="455.259" cy="448.313" r="15.969" fill="#fff"></circle>
      </g>
      <g>
        <circle cx="519.956" cy="202.811" r="12.894" fill="#292a2e"></circle>
        <rect x="550.454" y="199.15" width="2" height="316.109" transform="translate(-51.902 97.094) rotate(-9.612)" fill="#292a2e"></rect>
        <rect x="540.454" y="199.15" width="2" height="316.109" transform="translate(-52.043 95.424) rotate(-9.612)" fill="#292a2e"></rect>
        <rect x="355.075" y="221.905" width="168.355" height="2" transform="translate(-48.365 153.203) rotate(-18.771)" fill="#292a2e"></rect>
        <rect x="355.075" y="231.905" width="168.355" height="2" transform="translate(-51.583 153.735) rotate(-18.771)" fill="#292a2e"></rect>
        <g>
          <ellipse cx="311.468" cy="205.431" rx="14.653" ry="33.548" transform="translate(-36.649 71.159) rotate(-12.315)" fill="#292a2e"></ellipse>
          <g fill="none" opacity=".06">
            <ellipse cx="311.468" cy="205.431" rx="14.653" ry="33.548" transform="translate(-36.649 71.159) rotate(-12.315)" fill="#fff"></ellipse>
          </g>
          <g>
            <path d="m341.603,159.185h12.674c4.438,0,8.042,3.603,8.042,8.042v51.555h-28.757v-51.555c0-4.438,3.603-8.042,8.042-8.042Z" transform="translate(-32.301 78.56) rotate(-12.315)" fill="#bd0bad"></path>
            <g fill="none" opacity=".27">
              <path d="m341.603,159.185h12.674c4.438,0,8.042,3.603,8.042,8.042v51.555h-28.757v-51.555c0-4.438,3.603-8.042,8.042-8.042Z" transform="translate(-32.301 78.56) rotate(-12.315)" fill="#fff"></path>
            </g>
            <path d="m342.108,217.86h28.757v10.986c0,5.274-4.282,9.555-9.555,9.555h-9.647c-5.274,0-9.555-4.282-9.555-9.555v-10.986h0Z" transform="translate(-40.454 81.283) rotate(-12.315)" fill="#bd0bad"></path>
          </g>
          <path d="m317.21,239.358c-8.174,0-17.161-12.849-21.034-30.589-1.94-8.887-2.249-17.587-.87-24.5,1.435-7.195,4.558-11.667,8.794-12.591,8.581-1.867,18.529,11.488,22.662,30.414h0c4.132,18.927.651,35.219-7.924,37.091-.538.117-1.081.175-1.627.175Zm-11.487-65.854c-.404,0-.803.042-1.196.128-3.362.734-6.008,4.753-7.26,11.028-1.326,6.648-1.02,15.059.863,23.682,3.762,17.235,13.041,30.468,20.281,28.887,7.23-1.579,10.16-17.474,6.397-34.71-3.559-16.299-12.057-29.015-19.084-29.015Z" fill="#292a2e"></path>
          <path d="m334.622,263.549c-6.562,0-12.486-4.562-13.941-11.23l-3.034-13.899,1.954-.427,3.034,13.899c.699,3.203,2.604,5.941,5.363,7.712,2.759,1.77,6.042,2.36,9.245,1.661l25.027-5.464.427,1.954-25.027,5.464c-1.021.223-2.042.33-3.047.33Z" fill="#292a2e"></path>
          <path d="m356.858,229.887h8.577v37.252c0,2.367-1.922,4.288-4.288,4.288h0c-2.367,0-4.288-1.922-4.288-4.288v-37.252h0Z" transform="translate(-45.152 82.796) rotate(-12.315)" fill="#bd0bad"></path>
        </g>
        <rect x="557.075" y="503.181" width="34.857" height="9.858" fill="#292a2e"></rect>
      </g>
      <g>
        <path d="m394.09,126.418h-95.908l-22.513,14.745V60.288c0-6.267,5.081-11.348,11.348-11.348h107.074c6.267,0,11.348,5.081,11.348,11.348v54.783c0,6.267-5.081,11.348-11.348,11.348Z" fill="#bd0bad"></path>
        <g>
          <path d="m291.65,105.209c-.47,0-.85-.381-.85-.85v-33.36c0-.47.381-.85.85-.85s.85.381.85.85v33.36c0,.47-.381.85-.85.85Z" fill="#fff"></path>
          <path d="m307.951,109.46c-.47,0-.85-.381-.85-.85v-41.861c0-.47.381-.85.85-.85s.85.381.85.85v41.861c0,.47-.381.85-.85.85Z" fill="#fff"></path>
          <path d="m389.456,100.958c-.47,0-.85-.381-.85-.85v-24.858c0-.47.381-.85.85-.85s.85.381.85.85v24.858c0,.47-.381.85-.85.85Z" fill="#fff"></path>
          <path d="m299.801,98.833c-.47,0-.85-.381-.85-.85v-20.607c0-.47.381-.85.85-.85s.85.381.85.85v20.607c0,.47-.381.85-.85.85Z" fill="#fff"></path>
          <path d="m324.252,94.582c-.47,0-.85-.381-.85-.85v-12.105c0-.47.381-.85.85-.85s.85.381.85.85v12.105c0,.47-.381.85-.85.85Z" fill="#fff"></path>
          <path d="m316.102,101.171c-.47,0-.85-.381-.85-.85v-25.283c0-.47.381-.85.85-.85s.85.381.85.85v25.283c0,.47-.381.85-.85.85Z" fill="#fff"></path>
          <path d="m365.005,109.46c-.47,0-.85-.381-.85-.85v-41.861c0-.47.381-.85.85-.85s.85.381.85.85v41.861c0,.47-.381.85-.85.85Z" fill="#fff"></path>
          <path d="m356.854,98.833c-.47,0-.85-.381-.85-.85v-20.607c0-.47.381-.85.85-.85s.85.381.85.85v20.607c0,.47-.381.85-.85.85Z" fill="#fff"></path>
          <path d="m381.306,94.582c-.47,0-.85-.381-.85-.85v-12.105c0-.47.381-.85.85-.85s.85.381.85.85v12.105c0,.47-.381.85-.85.85Z" fill="#fff"></path>
          <path d="m373.155,101.171c-.47,0-.85-.381-.85-.85v-25.283c0-.47.381-.85.85-.85s.85.381.85.85v25.283c0,.47-.381.85-.85.85Z" fill="#fff"></path>
          <path d="m348.703,96.707c-.47,0-.85-.381-.85-.85v-16.356c0-.47.381-.85.85-.85s.85.381.85.85v16.356c0,.47-.381.85-.85.85Z" fill="#fff"></path>
          <path d="m340.553,103.296c-.47,0-.85-.381-.85-.85v-29.534c0-.47.381-.85.85-.85s.85.381.85.85v29.534c0,.47-.381.85-.85.85Z" fill="#fff"></path>
          <path d="m332.403,111.585c-.47,0-.85-.381-.85-.85v-46.112c0-.47.381-.85.85-.85s.85.381.85.85v46.112c0,.47-.381.85-.85.85Z" fill="#fff"></path>
        </g>
      </g>
      <path d="m620.712,514.039H37.713c-.552,0-1-.448-1-1,0-.552.448-1,1-1h582.999c.552,0,1,.448,1,1,0,.552-.448,1-1,1Z" fill="#292a2e"></path>
    </g>
  </g>
</svg>