<svg id="Layer_2" data-name="Layer 2" xmlns="http://www.w3.org/2000/svg" viewBox="0 0 763.756 874.277" style="width: 100%; height: 100%;">
  <g id="Layer_2-2" data-name="Layer 2">
    <g>
      <g>
        <path d="m160.495,694.238c-.929,0-1.683-.753-1.683-1.683v-13.143c0-7.31-2.847-14.182-8.017-19.352s-12.039-8.013-19.348-8.013c-15.089,0-27.365,12.276-27.365,27.365v13.143c0,.929-.753,1.683-1.683,1.683s-1.683-.753-1.683-1.683v-13.143c0-16.945,13.786-30.731,30.73-30.731,8.208,0,15.925,3.196,21.728,8.999,5.805,5.805,9.003,13.523,9.003,21.731v13.143c0,.929-.753,1.683-1.683,1.683Z" fill="#494945"></path>
        <rect x="164.949" y="681.198" width="35.41" height="191.114" fill="#bd0bad"></rect>
        <rect x="164.949" y="681.198" width="35.41" height="191.114" fill="#0a0a0a" opacity=".21"></rect>
        <rect x="27.127" y="681.198" width="137.822" height="191.114" fill="#bd0bad"></rect>
        <path d="m125.087,694.238c-.929,0-1.683-.753-1.683-1.683v-13.143c0-7.31-2.847-14.182-8.017-19.352-5.168-5.167-12.039-8.013-19.348-8.013-15.089,0-27.365,12.276-27.365,27.365v13.143c0,.929-.753,1.683-1.683,1.683s-1.683-.753-1.683-1.683v-13.143c0-16.945,13.786-30.731,30.73-30.731,8.208,0,15.925,3.196,21.728,8.999,5.805,5.805,9.003,13.523,9.003,21.731v13.143c0,.929-.753,1.683-1.683,1.683Z" fill="#494945"></path>
        <polygon points="164.949 681.198 182.654 700.266 200.358 681.198 164.949 681.198" fill="#0a0a0a" opacity=".11"></polygon>
        <polygon points="164.949 872.312 182.654 853.244 200.358 872.312 164.949 872.312" fill="#0a0a0a" opacity=".11"></polygon>
      </g>
      <g>
        <g>
          <rect x="214.979" width="381.125" height="777.264" rx="43.928" ry="43.928" fill="#292a2e"></rect>
          <rect x="228.881" y="13.717" width="353.321" height="748.805" rx="30.164" ry="30.164" fill="#fff"></rect>
          <path d="m333.179,8.046h144.725v14.975c0,8.938-7.256,16.194-16.194,16.194h-112.337c-8.938,0-16.194-7.256-16.194-16.194v-14.975h0Z" fill="#292a2e"></path>
        </g>
        <g>
          <g fill="none" opacity=".15">
            <path d="m550.481,244.9h-289.879c-8.333,0-15.112-6.779-15.112-15.112V76.869c0-8.333,6.779-15.112,15.112-15.112h289.879c8.333,0,15.112,6.779,15.112,15.112v152.919c0,8.333-6.779,15.112-15.112,15.112ZM260.602,63.757c-7.23,0-13.112,5.882-13.112,13.112v152.919c0,7.23,5.882,13.112,13.112,13.112h289.879c7.23,0,13.112-5.882,13.112-13.112V76.869c0-7.23-5.882-13.112-13.112-13.112h-289.879Z" fill="#292a2e"></path>
          </g>
          <g fill="none" opacity=".43">
            <circle cx="412.366" cy="95.313" r="9.391" fill="#367cff"></circle>
            <circle cx="442.366" cy="95.313" r="9.391" fill="#367cff"></circle>
            <circle cx="472.366" cy="95.313" r="9.391" fill="#367cff"></circle>
            <circle cx="502.366" cy="95.313" r="9.391" fill="#367cff"></circle>
            <circle cx="532.366" cy="95.313" r="9.391" fill="#367cff"></circle>
          </g>
          <g fill="none" opacity=".15">
            <rect x="405.541" y="124.366" width="136.216" height="2" fill="#292a2e"></rect>
          </g>
          <g fill="none" opacity=".15">
            <rect x="405.541" y="144.366" width="136.216" height="2" fill="#292a2e"></rect>
          </g>
          <g fill="none" opacity=".15">
            <rect x="405.541" y="164.366" width="72.362" height="2" fill="#292a2e"></rect>
          </g>
          <g fill="none" opacity=".15">
            <path d="m542.757,218.921h-46.522v-14.816h46.522v14.816Zm-44.522-2h42.522v-10.816h-42.522v10.816Z" fill="#292a2e"></path>
          </g>
          <rect x="433.08" y="205.104" width="44.522" height="12.816" fill="#bd0bad"></rect>
          <path d="m369.924,112.404c-2.161-5.528-9.342-8.923-22.551-13.075-.418-.131-1.717-.449-3.03-.762-1.707-.407-3.36.849-3.423,2.603,0,0-1.597,6.966-13.353,6.966-13.899,0-15.799-6.966-15.799-6.966-.063-1.754-1.716-3.01-3.423-2.603-1.314.313-2.613.631-3.03.762-13.209,4.152-20.389,7.548-22.551,13.075-7.585,19.4-19.142,80.416-19.142,80.416l17.209,4.514,14.47-51.204c2.065,7.679,2.722,31.134,2.722,31.134h16.486s23.671-.001,23.671-.001h0s16.043.001,16.043.001c0,0,1.1-23.455,3.165-31.134l14.47,51.204,17.209-4.514s-11.557-61.016-19.142-80.416Z" fill="#367cff"></path>
          <path d="m369.924,112.404c-2.161-5.528-9.342-8.923-22.551-13.075-.418-.131-1.717-.449-3.03-.762-1.707-.407-3.36.849-3.423,2.603,0,0-1.597,6.966-13.353,6.966-13.899,0-15.799-6.966-15.799-6.966-.063-1.754-1.716-3.01-3.423-2.603-1.314.313-2.613.631-3.03.762-13.209,4.152-20.389,7.548-22.551,13.075-7.585,19.4-19.142,80.416-19.142,80.416l17.209,4.514,14.47-51.204c2.065,7.679,2.722,31.134,2.722,31.134h16.486s23.671-.001,23.671-.001h0s16.043.001,16.043.001c0,0,1.1-23.455,3.165-31.134l14.47,51.204,17.209-4.514s-11.557-61.016-19.142-80.416Z" fill="#fff" opacity=".48"></path>
        </g>
        <g>
          <g fill="none" opacity=".15">
            <path d="m550.481,460.232h-289.879c-8.333,0-15.112-6.779-15.112-15.111v-152.919c0-8.333,6.779-15.112,15.112-15.112h289.879c8.333,0,15.112,6.779,15.112,15.112v152.919c0,8.332-6.779,15.111-15.112,15.111Zm-289.879-181.143c-7.23,0-13.112,5.882-13.112,13.112v152.919c0,7.229,5.882,13.111,13.112,13.111h289.879c7.23,0,13.112-5.882,13.112-13.111v-152.919c0-7.23-5.882-13.112-13.112-13.112h-289.879Z" fill="#292a2e"></path>
          </g>
          <g fill="none" opacity=".43">
            <circle cx="412.366" cy="310.646" r="9.391" fill="#367cff"></circle>
            <circle cx="442.366" cy="310.646" r="9.391" fill="#367cff"></circle>
            <circle cx="472.366" cy="310.646" r="9.391" fill="#367cff"></circle>
            <circle cx="502.366" cy="310.646" r="9.391" fill="#367cff"></circle>
            <circle cx="532.366" cy="310.646" r="9.391" fill="#367cff"></circle>
          </g>
          <g fill="none" opacity=".15">
            <rect x="405.541" y="339.698" width="136.216" height="2" fill="#292a2e"></rect>
          </g>
          <g fill="none" opacity=".15">
            <rect x="405.541" y="359.698" width="136.216" height="2" fill="#292a2e"></rect>
          </g>
          <g fill="none" opacity=".15">
            <rect x="405.541" y="379.698" width="72.362" height="2" fill="#292a2e"></rect>
          </g>
          <g fill="none" opacity=".15">
            <path d="m542.757,434.253h-46.522v-14.816h46.522v14.816Zm-44.522-2h42.522v-10.816h-42.522v10.816Z" fill="#292a2e"></path>
          </g>
          <rect x="433.08" y="420.437" width="44.522" height="12.816" fill="#bd0bad"></rect>
          <path d="m369.138,336.228c-3.244-4.013-10.392-6.575-18.744-8.604-3.392-.824-5.694-1.133-5.694-1.133-2.687,6.81-10.994,11.741-18.316,11.742h-.507c-7.322-.001-15.203-4.932-17.89-11.742,0,0-2.302.309-5.694,1.133-8.352,2.029-15.499,4.591-18.744,8.604-4.986,6.168-11.963,29.382-11.963,29.382l20.231,8.429c.156.422.309.844.46,1.266.108.302.215.604.32.905-.01-.03-.021-.06-.032-.089.026.07.05.142.074.213h0c4.868,14.007,6.688,27.392,7.168,31.497.087-.028,52.985-.028,53.072,0,.48-4.106,2.3-17.49,7.168-31.498h0c.023-.071.048-.142.074-.213.095-.272.191-.544.288-.816.151-.422.304-.844.46-1.266l20.231-8.429s-6.977-23.214-11.963-29.382Z" fill="#fff" opacity=".48"></path>
          <path d="m369.138,336.228c-3.244-4.013-10.392-6.575-18.744-8.604-3.392-.824-5.694-1.133-5.694-1.133-2.687,6.81-10.994,11.741-18.316,11.742h-.507c-7.322-.001-15.203-4.932-17.89-11.742,0,0-2.302.309-5.694,1.133-8.352,2.029-15.499,4.591-18.744,8.604-4.986,6.168-11.963,29.382-11.963,29.382l20.231,8.429c.156.422.309.844.46,1.266.108.302.215.604.32.905-.01-.03-.021-.06-.032-.089.026.07.05.142.074.213h0c4.868,14.007,6.688,27.392,7.168,31.497.087-.028,52.985-.028,53.072,0,.48-4.106,2.3-17.49,7.168-31.498h0c.023-.071.048-.142.074-.213.095-.272.191-.544.288-.816.151-.422.304-.844.46-1.266l20.231-8.429s-6.977-23.214-11.963-29.382Z" fill="#367cff"></path>
          <path d="m369.138,336.228c-3.244-4.013-10.392-6.575-18.744-8.604-3.392-.824-5.694-1.133-5.694-1.133-2.687,6.81-10.994,11.741-18.316,11.742h-.507c-7.322-.001-15.203-4.932-17.89-11.742,0,0-2.302.309-5.694,1.133-8.352,2.029-15.499,4.591-18.744,8.604-4.986,6.168-11.963,29.382-11.963,29.382l20.231,8.429c.156.422.309.844.46,1.266.108.302.215.604.32.905-.01-.03-.021-.06-.032-.089.026.07.05.142.074.213h0c4.868,14.007,6.688,27.392,7.168,31.497.087-.028,52.985-.028,53.072,0,.48-4.106,2.3-17.49,7.168-31.498h0c.023-.071.048-.142.074-.213.095-.272.191-.544.288-.816.151-.422.304-.844.46-1.266l20.231-8.429s-6.977-23.214-11.963-29.382Z" fill="#fff" opacity=".48"></path>
        </g>
        <g>
          <g fill="none" opacity=".15">
            <path d="m550.481,672.564h-289.879c-8.333,0-15.112-6.779-15.112-15.112v-152.919c0-8.332,6.779-15.111,15.112-15.111h289.879c8.333,0,15.112,6.779,15.112,15.111v152.919c0,8.333-6.779,15.112-15.112,15.112Zm-289.879-181.143c-7.23,0-13.112,5.882-13.112,13.111v152.919c0,7.23,5.882,13.112,13.112,13.112h289.879c7.23,0,13.112-5.882,13.112-13.112v-152.919c0-7.229-5.882-13.111-13.112-13.111h-289.879Z" fill="#292a2e"></path>
          </g>
          <g fill="none" opacity=".43">
            <circle cx="412.366" cy="522.976" r="9.391" fill="#367cff"></circle>
            <circle cx="442.366" cy="522.976" r="9.391" fill="#367cff"></circle>
            <circle cx="472.366" cy="522.976" r="9.391" fill="#367cff"></circle>
            <circle cx="502.366" cy="522.976" r="9.391" fill="#367cff"></circle>
            <circle cx="532.366" cy="522.976" r="9.391" fill="#367cff"></circle>
          </g>
          <g fill="none" opacity=".15">
            <rect x="405.541" y="552.029" width="136.216" height="2" fill="#292a2e"></rect>
          </g>
          <g fill="none" opacity=".15">
            <rect x="405.541" y="572.029" width="136.216" height="2" fill="#292a2e"></rect>
          </g>
          <g fill="none" opacity=".15">
            <rect x="405.541" y="592.029" width="72.362" height="2" fill="#292a2e"></rect>
          </g>
          <g fill="none" opacity=".15">
            <path d="m542.757,646.584h-46.522v-14.816h46.522v14.816Zm-44.522-2h42.522v-10.816h-42.522v10.816Z" fill="#292a2e"></path>
          </g>
          <rect x="433.08" y="632.767" width="44.522" height="12.816" fill="#bd0bad"></rect>
          <path d="m354.222,633.757c2.297,0,3.958-2.153,3.421-4.386-3.591-14.934-3.865-43.047-.766-55.13l3.43-13.371-.006-.062c.12-.928-.188-1.859-.841-2.529-12.969-13.309-11.263-26.977-11.263-26.977h-5.587s.666,4.561-.622,9.628c-1.4,5.524-5.125,11.656-14.568,13.129h-.005c-1.381.219-2.888.336-4.526.336s-3.145-.117-4.526-.336h-.005c-9.443-1.473-13.168-7.605-14.568-13.129-1.289-5.067-.622-9.628-.622-9.628h-5.587s1.706,13.668-11.263,26.977c-.653.67-.961,1.601-.841,2.529l-.046.062,3.43,13.371c3.099,12.083,2.826,40.196-.766,55.13-.537,2.233,1.124,4.386,3.421,4.386h62.71Z" fill="#fff" opacity=".48"></path>
          <path d="m354.222,633.757c2.297,0,3.958-2.153,3.421-4.386-3.591-14.934-3.865-43.047-.766-55.13l3.43-13.371-.006-.062c.12-.928-.188-1.859-.841-2.529-12.969-13.309-11.263-26.977-11.263-26.977h-5.587s.666,4.561-.622,9.628c-1.4,5.524-5.125,11.656-14.568,13.129h-.005c-1.381.219-2.888.336-4.526.336s-3.145-.117-4.526-.336h-.005c-9.443-1.473-13.168-7.605-14.568-13.129-1.289-5.067-.622-9.628-.622-9.628h-5.587s1.706,13.668-11.263,26.977c-.653.67-.961,1.601-.841,2.529l-.046.062,3.43,13.371c3.099,12.083,2.826,40.196-.766,55.13-.537,2.233,1.124,4.386,3.421,4.386h62.71Z" fill="#367cff"></path>
          <path d="m354.222,633.757c2.297,0,3.958-2.153,3.421-4.386-3.591-14.934-3.865-43.047-.766-55.13l3.43-13.371-.006-.062c.12-.928-.188-1.859-.841-2.529-12.969-13.309-11.263-26.977-11.263-26.977h-5.587s.666,4.561-.622,9.628c-1.4,5.524-5.125,11.656-14.568,13.129h-.005c-1.381.219-2.888.336-4.526.336s-3.145-.117-4.526-.336h-.005c-9.443-1.473-13.168-7.605-14.568-13.129-1.289-5.067-.622-9.628-.622-9.628h-5.587s1.706,13.668-11.263,26.977c-.653.67-.961,1.601-.841,2.529l-.046.062,3.43,13.371c3.099,12.083,2.826,40.196-.766,55.13-.537,2.233,1.124,4.386,3.421,4.386h62.71Z" fill="#fff" opacity=".48"></path>
        </g>
      </g>
      <g>
        <g>
          <g>
            <path d="m678.028,830.035s-4.515,23.404-26.428,24.708c-21.913,1.304-17.161,18.761-17.161,18.761h83.739v-41.837l-40.15-1.632Z" fill="#367cff"></path>
            <path d="m703.857,403.105s-.263-7.036-.207,8.924c.207,59.529,1.24,127.525,3.764,167.315,4.057,63.964,14.459,265.628,14.459,265.628l-55.026-.462-53.333-443.823,90.342,2.419Z" fill="#262626"></path>
            <path d="m641.718,473.303s-2.28,43.2-2.703,53.341c-.978,23.455-1.318,47.739-1.318,75.273l-8.674-72.18s6.347-22.621,12.695-56.434Z" fill="#0a0a0a"></path>
            <path d="m580.067,830.035s-4.515,23.404-26.428,24.708c-21.913,1.304-17.161,18.761-17.161,18.761h83.739v-41.837s-40.15-1.632-40.15-1.632Z" fill="#367cff"></path>
            <path d="m553.424,407.727s-4.874,203.456-4.16,213.4l20.464,222.303,54.117,1-5.274-231.343s3.72-63.816,19.139-123.073c7.912-30.406,12.613-61.557,14.168-92.938h0s-98.454,10.651-98.454,10.651Z" fill="#262626"></path>
            <path d="m704.455,403.098l.18.01s-.13-3.47-.18-.01Z" fill="#333"></path>
            <path d="m545.678,294.796c1.135,13.332,6.655,96.51,7.746,112.931h150.372c.849-14.811,4.664-79.575,7.885-108.539,3.075-27.638,9.108-41.475,4.686-49.646-7.226-13.354-26.972-21.071-40.436-22.894-8.222-1.113-20.587-1.911-20.587-1.911,0,0-1.047,21.181-26.013,22.359-33.986,1.603-31.716-22.359-31.884-22.359-5.506,0-37.565,2.589-44.653,8.046-12.396,9.545-9.525,33.759-7.116,62.012Z" fill="#367cff"></path>
            <path d="m543.602,278.09c-.263,0-.483-.206-.499-.471l-1.213-21.171c-.016-.276.195-.512.47-.528.271-.012.512.195.528.47l1.213,21.171c.016.276-.195.512-.47.528-.01,0-.02,0-.029,0Z" fill="#0c0c0c"></path>
          </g>
          <g>
            <path d="m736.306,406.856c8.397,0,16.401-3.854,21.635-10.558,5.849-7.491,7.408-17.475,4.12-26.393-1.553-4.213-37.973-100.656-44.906-118.526l-51.339,20.802c3.898,10.048,18.023,48.132,29.37,78.811l-18.852-2.049-5.934,54.585,62.935,3.167c.993.108,1.985.161,2.971.161Z" fill="#367cff"></path>
            <path id="h_3_sk" d="m579.532,222.912c.168-.022,4.781,17.336,40.778,14.635,24.921-1.867,30.997-18.829,31.568-18.829-2.687-.571-7.05-1.164-8.243-1.801-3.924-2.108-6.783-4.675-8.221-10.183-1.125-4.308-1.698-20.891-1.698-29.211l-38.347,8.617c.534,9.385,4.275,31.143-8.836,34.994-2.182.637-4.532,1.223-6.999,1.779Z" fill="#ff9e85"></path>
            <path d="m596.694,204.591c15.117,1.193,34.537-5.19,38.226-25.359l3.328-18.199c3.689-20.169-3.914-38.457-22.905-41.93h0c-18.99-3.473-36.175,10.281-39.864,30.45l-1.474,8.057c-1.415,7.739-4.284,44.853,22.688,46.981Z" fill="#ff9e85"></path>
            <path d="m582.677,186.073c2.714-13.634,3.958-22.731,3.814-32.328-3.822-6.704-2.817-14.399-1.948-17.724-3.746,2.044-5.313,2.266-8.839,2.266,0,0,6.321-25.368,27.805-32.194,3.95-1.538,14.037-3.48,27.43-1.643,11.392,1.562,39.471,10.08,43.483,41.693h.002s0,.009.001.018c.133,1.048,2.829,30.175,8.204,44.15,7.226,18.787,17.37,24.624,17.113,46.299-.331,27.881-51.587,31.592-82.504,29.507-30.916-2.086-48.174-12.251-48.398-32.344-.251-22.513,8.407-20.422,13.837-47.7Z" fill="#0a0a0a"></path>
          </g>
          <rect x="651.64" y="353.245" width="108.028" height="1" transform="translate(327.987 1046.891) rotate(-88.04)" fill="#0c0c0c"></rect>
          <g id="b_4_ha">
            <path d="m380.799,176.339l16.16,19.086-1.001-3.277c-.577-2.203.555-4.609,2.724-5.301,2.314-.738,4.743.62,5.351,2.939l7.388,27.819c1.939,7.303-2.297,14.82-9.549,16.943h0c-8.282,2.424-17.207-.419-22.56-7.187l-11.828-15.008c-1.262-1.595-1.339-3.91-.011-5.45,1.284-1.487,3.248-1.826,4.85-1.148.021-.064.05-.126.104-.174.102-.091.236-.112.359-.081l-2.191-2.77c-1.341-1.695-1.371-4.192.148-5.73,1.577-1.597,4.006-1.645,5.632-.342.005-.046.02-.084.041-.126l-.899-1.136c-1.17-1.479-1.259-3.972-.042-5.412,1.557-1.843,4.147-1.971,5.857-.612l.058-.057-6.79-8.019c-1.461-1.726-1.193-4.337.63-5.724,1.709-1.3,4.181-.87,5.569.769Z" fill="#ff9e85"></path>
            <path id="b_4_ha_sh" d="m381.167,189.817c.016.042.039.082.071.118l6.686,7.712c.143.165.392.183.557.04.165-.142.182-.392.04-.557l-6.686-7.712c-.143-.165-.392-.183-.557-.04-.129.112-.168.289-.11.44Z" fill="#0c0c0c" opacity=".2"></path>
            <path id="b_4_ha_sh-2" data-name="b_4_ha_sh" d="m376.386,196.838c.016.041.038.08.068.115l5.208,6.103c.142.166.391.186.557.044.166-.142.187-.391.044-.557l-5.208-6.103c-.142-.166-.391-.186-.557-.044-.131.112-.171.29-.113.442Z" fill="#0c0c0c" opacity=".2"></path>
            <path id="b_4_ha_sh-3" data-name="b_4_ha_sh" d="m372.322,206.016c.017.044.042.085.075.122l2.527,2.825c.145.163.395.177.557.031.164-.146.179-.395.031-.558l-2.527-2.825c-.145-.163-.395-.177-.557-.031-.126.113-.163.287-.106.436Z" fill="#0c0c0c" opacity=".2"></path>
          </g>
        </g>
        <path d="m460.567,356.05c-2.231,0-4.472-.253-6.681-.767-7.771-1.807-14.479-6.685-18.593-13.52l-65.389-108.629,50.549-30.428,49.709,82.581,82.631-52.504,35.009,46.94-111.267,71.63c-4.802,3.091-10.353,4.695-15.97,4.695Z" fill="#367cff"></path>
        <path d="m546.515,306.779c-.181,0-.355-.099-.444-.271-.127-.246-.03-.547.215-.674l14.278-7.367c.246-.126.548-.03.674.215.127.246.03.547-.215.674l-14.278,7.367c-.073.038-.152.056-.229.056Z" fill="#0c0c0c"></path>
      </g>
      <g>
        <polygon points="319.187 872.312 283.777 872.312 269.445 727.198 304.855 727.198 319.187 872.312" fill="#367cff"></polygon>
        <polygon points="319.187 872.312 283.777 872.312 269.445 727.198 304.855 727.198 319.187 872.312" fill="#0a0a0a" opacity=".21"></polygon>
        <polygon points="283.777 872.312 145.956 872.312 160.288 727.198 269.445 727.198 283.777 872.312" fill="#367cff"></polygon>
        <path d="m214.868,786.575c-8.208,0-15.925-3.196-21.728-8.999-5.805-5.805-9.003-13.523-9.003-21.731v-13.143c0-.929.753-1.683,1.683-1.683s1.683.753,1.683,1.683v13.143c0,7.31,2.847,14.182,8.017,19.352,5.167,5.167,12.039,8.013,19.348,8.013,15.089,0,27.365-12.276,27.365-27.365v-13.143c0-.929.753-1.683,1.683-1.683s1.683.753,1.683,1.683v13.143c0,16.945-13.786,30.731-30.73,30.731Z" fill="#fff"></path>
        <polygon points="269.445 727.198 288.994 746.266 304.855 727.198 269.445 727.198" fill="#0a0a0a" opacity=".08"></polygon>
        <polygon points="283.777 872.312 299.592 853.244 319.187 872.312 283.777 872.312" fill="#0a0a0a" opacity=".08"></polygon>
      </g>
      <path d="m752.242,874.277H.773c-.426,0-.773-.346-.773-.773s.346-.773.773-.773h751.469c.427,0,.773.346.773.773s-.346.773-.773.773Z" fill="#3f3f3f"></path>
    </g>
  </g>
</svg>