<svg id="Layer_2" data-name="Layer 2" xmlns="http://www.w3.org/2000/svg" viewBox="0 0 1112.057 829.803" style="width: 100%; height: 100%;">
  <g id="Layer_2-2" data-name="Layer 2">
    <g>
      <g>
        <polygon points="1031.183 736.235 1045.775 827.924 945.428 827.924 963.406 736.235 1031.183 736.235" fill="#262626"></polygon>
        <polygon points="1031.183 736.235 1045.775 827.924 945.428 827.924 963.406 736.235 1031.183 736.235" fill="#fff" opacity=".2"></polygon>
        <path d="m998.154,736.526c-.051,0-.104-.004-.156-.013-.518-.085-.868-.575-.782-1.092l27.636-166.752c.085-.518.572-.876,1.092-.782.518.085.868.575.782,1.092l-27.636,166.752c-.077.466-.48.795-.936.795Z" fill="#494949"></path>
        <path d="m1004.668,698.733c-.366,0-.715-.212-.871-.57-.211-.481.009-1.041.49-1.25l67.475-29.501c.483-.212,1.041.01,1.25.49.211.481-.009,1.041-.49,1.25l-67.475,29.501c-.123.055-.253.08-.379.08Z" fill="#494949"></path>
        <path d="m1008.011,670.179c-.122-.026-.243-.078-.352-.155l-45.517-32.516c-.427-.305-.526-.898-.221-1.325.305-.426.898-.526,1.325-.221l45.517,32.516c.427.305.526.898.221,1.325-.227.317-.614.454-.973.377Z" fill="#494949"></path>
        <ellipse cx="1070.867" cy="678.997" rx="39.855" ry="46.183" transform="translate(-190.17 546.416) rotate(-26.375)" fill="#bd0bad"></ellipse>
        <path d="m1096.329,713.771c-19.718,9.778-44.893-.821-56.223-23.67-7.684-15.497-7.03-32.647.346-45.136,2.797-2.977,6.109-5.468,9.898-7.347,19.718-9.778,44.893.821,56.223,23.67,7.689,15.505,7.034,32.656-.346,45.137-2.797,2.977-6.109,5.468-9.898,7.347Z" fill="#fff" opacity=".5"></path>
        <ellipse cx="1026.739" cy="571.237" rx="39.585" ry="41.433" transform="translate(112.788 1309.613) rotate(-68.024)" fill="#bd0bad"></ellipse>
        <path d="m1065.162,586.74c-.309.766-.641,1.513-1,2.249-10.48,14.776-30.701,20.796-48.979,13.421-21.22-8.563-31.791-31.941-23.61-52.215.309-.766.641-1.513.999-2.249,10.48-14.776,30.701-20.796,48.979-13.421,21.22,8.563,31.791,31.941,23.61,52.215Z" fill="#fff" opacity=".5"></path>
        <ellipse cx="954.373" cy="633.979" rx="40.5" ry="34.951" transform="translate(-57.792 1170.896) rotate(-61.54)" fill="#bd0bad"></ellipse>
        <path d="m930.95,663.641c16.969,9.198,39.368.713,50.027-18.95,7.229-13.336,7.202-28.387,1.137-39.567-2.356-2.698-5.179-4.987-8.44-6.754-16.969-9.198-39.368-.713-50.027,18.95-7.233,13.343-7.206,28.394-1.137,39.567,2.356,2.698,5.179,4.987,8.44,6.754Z" fill="#fff" opacity=".5"></path>
      </g>
      <g>
        <g>
          <g>
            <ellipse cx="406.145" cy="89.8" rx="31.227" ry="20.363" transform="translate(189.612 444.95) rotate(-71.097)" fill="#f4f4f4"></ellipse>
            <ellipse cx="378.072" cy="62.19" rx="15.05" ry="23.003" transform="translate(7.846 160.875) rotate(-24.266)" fill="#f4f4f4"></ellipse>
          </g>
          <path d="m373.194,110.081h40.533c7.419,0,13.442,6.023,13.442,13.442v18.441c0,7.419-6.023,13.442-13.442,13.442h-40.533v-45.326h0Z" fill="#f4f4f4"></path>
          <g fill="none" opacity=".05">
            <path d="m373.194,110.081h40.533c7.419,0,13.442,6.023,13.442,13.442v18.441c0,7.419-6.023,13.442-13.442,13.442h-40.533v-45.326h0Z" fill="#292a2e"></path>
          </g>
          <g fill="none" opacity=".05">
            <path d="m421.992,78.79c-.017,0-.033,0-.051-.003-.166-.017-.312-.115-.391-.263-.208-.393-.104-.823-.028-1.138.233-.979.171-2.049-.168-2.953-.097-.258.035-.546.294-.644.257-.096.547.034.644.294.326.872.439,1.871.329,2.826.599-.54,1.25-.991,1.928-1.332.245-.124.546-.026.671.222.124.246.025.547-.222.671-.96.483-1.865,1.223-2.62,2.138-.096.115-.237.182-.386.182Z" fill="#292a2e"></path>
            <path d="m406.833,66.884c-.064,0-.129-.013-.19-.038-.409-.168-.6-.569-.738-.861-.43-.908-1.142-1.688-1.961-2.159-.239-.138-.322-.443-.185-.683.138-.24.444-.321.683-.185.793.456,1.5,1.146,2.01,1.949.125-.808.345-1.582.653-2.287.111-.253.407-.365.658-.258.253.11.368.405.258.658-.438,1.003-.677,2.168-.688,3.368-.002.166-.085.32-.224.412-.083.055-.18.083-.276.083Z" fill="#292a2e"></path>
            <path d="m394.052,83.01c-.064,0-.129-.013-.189-.037-.408-.167-.598-.564-.735-.854-.435-.916-1.146-1.695-1.966-2.167-.239-.138-.322-.443-.185-.683.138-.24.444-.322.683-.185.793.456,1.5,1.146,2.011,1.95.123-.809.344-1.582.652-2.288.111-.253.406-.365.658-.258.253.11.368.405.258.658-.439,1.004-.677,2.168-.687,3.367,0,.166-.085.32-.224.412-.083.056-.18.084-.276.084Z" fill="#292a2e"></path>
            <path d="m407.62,80.572c-.064,0-.129-.013-.189-.037-.41-.168-.6-.567-.737-.859-.433-.911-1.145-1.69-1.964-2.162-.239-.138-.321-.444-.184-.684s.442-.32.684-.184c.791.456,1.498,1.146,2.009,1.949.124-.808.344-1.582.652-2.287.11-.253.408-.366.658-.258.253.11.368.405.258.658-.439,1.004-.677,2.168-.687,3.367,0,.166-.085.32-.224.412-.083.056-.18.084-.276.084Z" fill="#292a2e"></path>
            <path d="m416.25,94.669c-.078,0-.156-.019-.228-.055-.148-.076-.249-.221-.269-.386-.053-.441.196-.802.379-1.066.569-.826.893-1.844.9-2.812.002-.275.226-.496.5-.496h.004c.276.002.498.228.496.504-.008.939-.263,1.918-.712,2.77.755-.28,1.527-.457,2.284-.521.268-.021.518.18.54.456.023.275-.181.518-.456.54-1.065.09-2.171.437-3.198,1.003-.074.042-.158.062-.241.062Z" fill="#292a2e"></path>
            <path d="m395.196,103.356c-.069,0-.14-.015-.205-.044-.403-.182-.581-.588-.711-.885-.402-.921-1.091-1.723-1.896-2.22-.235-.146-.308-.454-.163-.688.146-.235.454-.305.688-.163.777.481,1.464,1.193,1.949,2.012.148-.803.392-1.569.722-2.266.119-.25.419-.353.667-.237.249.119.355.417.237.667-.47.988-.742,2.145-.789,3.344-.007.166-.096.318-.236.405-.081.05-.172.075-.264.075Z" fill="#292a2e"></path>
            <path d="m407.723,107.999c-.017,0-.034,0-.051-.003-.167-.017-.313-.116-.392-.264-.206-.391-.104-.819-.029-1.132.234-.986.172-2.056-.166-2.958-.098-.259.033-.547.292-.644.257-.099.547.034.644.292.327.872.44,1.872.33,2.828.599-.541,1.25-.992,1.928-1.333.245-.124.546-.026.671.222.124.246.025.547-.222.671-.959.483-1.864,1.223-2.619,2.139-.096.115-.237.182-.386.182Z" fill="#292a2e"></path>
          </g>
          <g fill="none" opacity=".05">
            <path d="m385.266,60.287c-.017,0-.033,0-.051-.003-.166-.017-.312-.115-.391-.263-.208-.393-.104-.823-.028-1.138.233-.979.171-2.049-.168-2.953-.097-.258.035-.546.294-.644.256-.097.546.035.644.294.326.872.439,1.871.329,2.826.599-.54,1.25-.991,1.928-1.332.245-.123.546-.026.671.222.124.246.025.547-.222.671-.96.483-1.865,1.223-2.62,2.138-.096.115-.237.182-.386.182Z" fill="#292a2e"></path>
            <path d="m374.755,49.093c-.064,0-.129-.013-.189-.037-.41-.168-.6-.567-.737-.859-.433-.911-1.145-1.69-1.964-2.162-.239-.138-.321-.444-.184-.684.139-.239.442-.32.684-.184.791.456,1.498,1.146,2.009,1.949.124-.808.344-1.582.652-2.287.111-.253.407-.366.658-.258.253.11.368.405.258.658-.439,1.004-.677,2.168-.687,3.367,0,.166-.085.32-.224.412-.083.056-.18.084-.276.084Z" fill="#292a2e"></path>
            <path d="m373.069,61.002c-.064,0-.129-.013-.19-.038-.409-.168-.6-.569-.738-.861-.43-.908-1.142-1.688-1.961-2.159-.239-.138-.322-.443-.185-.683.138-.24.445-.321.683-.185.793.456,1.5,1.146,2.01,1.949.125-.808.345-1.582.653-2.287.111-.253.407-.367.658-.258.253.11.368.405.258.658-.438,1.003-.677,2.168-.688,3.368-.002.166-.085.32-.224.412-.083.055-.18.083-.276.083Z" fill="#292a2e"></path>
            <path d="m381.699,75.098c-.078,0-.157-.019-.229-.056-.148-.076-.249-.221-.269-.387-.051-.439.198-.801.379-1.064.569-.826.894-1.844.902-2.812.003-.274.226-.495.5-.495h.005c.275.003.498.229.495.505-.009.939-.264,1.918-.713,2.769.756-.281,1.528-.458,2.285-.521.248-.025.517.181.539.457.023.274-.182.517-.457.539-1.062.088-2.167.436-3.197,1.003-.075.042-.158.062-.241.062Z" fill="#292a2e"></path>
            <path d="m371.242,71.993c-.395,0-.711-.24-.947-.419-.795-.603-1.774-.956-2.711-.985-.276-.009-.493-.24-.484-.516s.239-.504.516-.484c.913.029,1.856.309,2.675.782-.258-.781-.414-1.579-.459-2.358-.016-.275.194-.512.471-.527.308-.026.513.195.527.471.063,1.098.378,2.243.909,3.312.073.146.07.32-.009.464s-.224.239-.387.256c-.034.004-.068.006-.101.006Z" fill="#292a2e"></path>
          </g>
        </g>
        <g>
          <rect x="235.555" y="122.388" width="111.51" height="32" transform="translate(582.62 276.776) rotate(180)" fill="#f4f4f4"></rect>
          <rect x="235.555" y="122.388" width="111.51" height="32" transform="translate(582.62 276.776) rotate(180)" fill="#292a2e" opacity=".05"></rect>
          <rect x="250.53" y="122.388" width="14.612" height="32" transform="translate(515.671 276.776) rotate(180)" fill="#fff"></rect>
          <rect x="272.063" y="128.471" width="60.754" height="18.963" transform="translate(604.879 275.904) rotate(180)" fill="#fff"></rect>
        </g>
        <g>
          <rect x="208.967" y="90.419" width="109.978" height="32" transform="translate(527.912 212.837) rotate(-180)" fill="#f4f4f4"></rect>
          <rect x="289.765" y="90.419" width="14.411" height="32" transform="translate(593.941 212.837) rotate(-180)" fill="#292a2e" opacity=".05"></rect>
          <rect x="223.02" y="96.501" width="59.919" height="18.963" transform="translate(505.959 211.965) rotate(-180)" fill="#fff"></rect>
        </g>
        <g>
          <rect x="123.572" y="85.608" width="111.51" height="32" transform="translate(373.075 31.292) rotate(130.517)" fill="#f4f4f4"></rect>
          <rect x="150.274" y="111.056" width="14.612" height="32" transform="translate(356.545 89.805) rotate(130.517)" fill="#292a2e" opacity=".05"></rect>
          <rect x="155.85" y="83.382" width="60.754" height="18.963" transform="translate(377.809 11.622) rotate(130.517)" fill="#292a2e" opacity=".05"></rect>
        </g>
        <rect x="116.817" y="153.804" width="321.971" height="12.652" fill="#f4f4f4"></rect>
      </g>
      <g>
        <rect id="c_3_c" x="609.936" y="0" width="405.081" height="405.081" fill="#f4f4f4"></rect>
        <rect id="c_3_c-2" data-name="c_3_c" x="1015.017" y="0" width="4.643" height="405.081" fill="#f4f4f4"></rect>
        <rect id="c_3_c-3" data-name="c_3_c" x="1015.017" y="0" width="4.643" height="405.081" fill="#292a2e" opacity=".05"></rect>
        <polygon id="c_3_c-4" data-name="c_3_c" points="916.884 279.134 916.884 173.152 830.069 173.152 830.069 234.725 695.592 234.725 695.592 343.749 638.437 343.749 638.437 405.081 695.592 405.081 706.603 405.081 995.531 405.081 995.531 279.134 916.884 279.134" fill="#292a2e" opacity=".05"></polygon>
        <g id="c_3_wh">
          <rect id="c_3_wh-2" data-name="c_3_wh" x="841.213" y="184.659" width="63.22" height="11.507" fill="#fffffa" opacity=".34"></rect>
          <rect id="c_3_wh-3" data-name="c_3_wh" x="841.213" y="208.505" width="63.22" height="11.507" fill="#fffffa" opacity=".34"></rect>
          <rect id="c_3_wh-4" data-name="c_3_wh" x="841.213" y="232.35" width="63.22" height="11.507" fill="#fffffa" opacity=".34"></rect>
        </g>
        <g id="c_3_wh-5" data-name="c_3_wh">
          <rect id="c_3_wh-6" data-name="c_3_wh" x="972.668" y="290.304" width="11.652" height="11.507" fill="#fffffa" opacity=".34"></rect>
          <rect id="c_3_wh-7" data-name="c_3_wh" x="972.668" y="314.15" width="11.652" height="11.507" fill="#fffffa" opacity=".34"></rect>
          <rect id="c_3_wh-8" data-name="c_3_wh" x="972.668" y="337.995" width="11.652" height="11.507" fill="#fffffa" opacity=".34"></rect>
          <rect id="c_3_wh-9" data-name="c_3_wh" x="951.112" y="290.304" width="11.652" height="11.507" fill="#fffffa" opacity=".34"></rect>
          <rect id="c_3_wh-10" data-name="c_3_wh" x="951.112" y="314.15" width="11.652" height="11.507" fill="#fffffa" opacity=".34"></rect>
          <rect id="c_3_wh-11" data-name="c_3_wh" x="951.112" y="337.995" width="11.652" height="11.507" fill="#fffffa" opacity=".34"></rect>
          <rect id="c_3_wh-12" data-name="c_3_wh" x="930.138" y="290.304" width="11.652" height="11.507" fill="#fffffa" opacity=".34"></rect>
          <rect id="c_3_wh-13" data-name="c_3_wh" x="930.138" y="314.15" width="11.652" height="11.507" fill="#fffffa" opacity=".34"></rect>
          <rect id="c_3_wh-14" data-name="c_3_wh" x="930.138" y="337.995" width="11.652" height="11.507" fill="#fffffa" opacity=".34"></rect>
        </g>
        <polygon points="1015.017 200.268 933.508 200.268 933.508 0 926.767 0 926.767 200.268 706.603 200.268 706.603 0 699.862 0 699.862 200.268 609.936 200.268 609.936 207.009 699.862 207.009 699.862 405.081 706.603 405.081 706.603 207.009 926.767 207.009 926.767 405.081 933.508 405.081 933.508 207.009 1015.017 207.009 1015.017 200.268" fill="#fff"></polygon>
        <rect id="c_3_c-5" data-name="c_3_c" x="593.799" y="404.592" width="437.355" height="13.471" fill="#f4f4f4"></rect>
        <rect id="c_3_c-6" data-name="c_3_c" x="593.799" y="404.592" width="437.355" height="13.471" fill="#292a2e" opacity=".1"></rect>
        <rect id="c_3_c-7" data-name="c_3_c" x="1031.154" y="404.592" width="6.314" height="13.471" fill="#292a2e" opacity=".1"></rect>
        <rect id="c_3_c-8" data-name="c_3_c" x="1031.154" y="404.592" width="6.314" height="13.471" fill="#292a2e" opacity=".1"></rect>
      </g>
      <g>
        <path d="m845.365,657.405H157.34c-17.768,0-32.173,14.404-32.173,32.173v19.816c0,17.769,14.404,32.173,32.173,32.173h38.914l-20.79,87.345h20.058l31.879-87.345h547.705l31.186,87.345h20.95l-20.79-87.345h38.914c17.769,0,32.173-14.404,32.173-32.173v-19.816c0-17.769-14.404-32.173-32.173-32.173Z" fill="#262626"></path>
        <path d="m845.365,657.405H157.34c-17.768,0-32.173,14.404-32.173,32.173v19.816c0,17.768,14.404,32.173,32.173,32.173h38.914l-20.79,87.345h20.059l31.879-87.345h547.705l31.186,87.345h20.95l-20.79-87.345h38.914c17.769,0,32.173-14.404,32.173-32.173v-19.816c0-17.768-14.404-32.173-32.173-32.173Z" fill="#fff" opacity=".2"></path>
        <path d="m183.979,280.097h634.748c52.427,0,94.992,42.564,94.992,94.992v248.3c0,18.924-15.364,34.288-34.288,34.288H123.275c-18.924,0-34.288-15.364-34.288-34.288v-248.3c0-52.427,42.564-94.992,94.992-94.992Z" fill="#367cff"></path>
        <path d="m183.979,280.097h634.748c52.427,0,94.992,42.564,94.992,94.992v248.3c0,18.924-15.364,34.288-34.288,34.288H123.275c-18.924,0-34.288-15.364-34.288-34.288v-248.3c0-52.427,42.564-94.992,94.992-94.992Z" fill="#fff" opacity=".74"></path>
        <g>
          <path d="m968.826,397.806c-25.576-8.133-52.897,6.008-61.029,31.582l-64.707,176.753H159.615l-64.707-176.753c-8.131-25.574-35.454-39.715-61.029-31.582-25.574,8.132-39.714,35.455-31.582,61.029l75.475,210.62c6.412,20.168,25.142,33.866,46.305,33.866h754.549c21.163,0,39.893-13.698,46.305-33.866l75.475-210.62c8.132-25.574-6.008-52.898-31.582-61.029Z" fill="#367cff"></path>
          <path d="m968.826,397.806c-25.576-8.133-52.897,6.008-61.029,31.582l-64.707,176.753H159.615l-64.707-176.753c-8.131-25.574-35.454-39.715-61.029-31.582-25.574,8.132-39.714,35.455-31.582,61.029l75.475,210.62c6.412,20.168,25.142,33.866,46.305,33.866h754.549c21.163,0,39.893-13.698,46.305-33.866l75.475-210.62c8.132-25.574-6.008-52.898-31.582-61.029Z" fill="#fff" opacity=".87"></path>
        </g>
      </g>
      <path d="m1092.673,829.803H20c-.493,0-.892-.399-.892-.892s.399-.892.892-.892h1072.674c.493,0,.892.399.892.892s-.399.892-.892.892Z" fill="#292a2e"></path>
      <g fill="none" opacity=".65">
        <path d="m1092.673,829.803H20c-.493,0-.892-.399-.892-.892s.399-.892.892-.892h1072.674c.493,0,.892.399.892.892s-.399.892-.892.892Z" fill="#292a2e"></path>
      </g>
      <g>
        <path d="m722.815,529.709l-190.588-138.875c-15.533-11.484-36.96-13.721-55.067-3.911l-3.61,1.956-224.886,114.543,66.767,101.239,186.2-122.337,175.659,113.261,45.525-65.877Z" fill="#262626"></path>
        <path d="m722.815,529.709l-190.588-138.875c-15.533-11.484-36.96-13.721-55.067-3.911l-3.61,1.956-224.886,114.543,66.767,101.239,186.2-122.337,175.659,113.261,45.525-65.877Z" fill="#0a0a0a" opacity=".8"></path>
        <path id="st" d="m120.621,399.698c-.178.034-.366-.042-.465-.206-.128-.211-.061-.485.149-.613l22.108-13.458c.211-.128.485-.061.613.149.128.211.061.485-.149.613l-22.108,13.458c-.047.029-.096.047-.147.057Z" fill="#0c0c0c"></path>
        <path d="m761.642,547.022s30.368-1.745,35.732-29.241c5.363-27.496,26.639-18.528,26.639-18.528l-14.19,105.92-52.919-7.09,4.739-51.061Z" fill="#367cff"></path>
        <path d="m283.725,480.378l-142.11,10.521s-6.655,27.242,3.238,58.172c8.198,25.633,27.197,55.353,70.848,56.182h553.149l3.68-72.595-488.805-52.281Z" fill="#262626"></path>
        <g>
          <g>
            <g>
              <path d="m228.06,171.952s10.028-13.646,6.51-37.106c-2.724-18.164-15.419-2.073-15.419-2.073,0,0-2.088-13.06-10.864-9.078-8.776,3.981-9.959,18.71-9.959,18.71" fill="#0c0c0c"></path>
              <path d="m161.42,139.307s-43.955,18.444-9.143,75.07l4.099-.932,8.32-1.892" fill="#0c0c0c"></path>
              <path id="sk" d="m241.085,265.038c-.21.005,3.405,38.273-41.154,41.822-30.847,2.461-46.752-28.198-47.451-28.089,3.179-1.21,7.076-2.903,8.634-3.518,5.176-2.043,11.184-7.512,11.28-17.077.056-5.513-5.736-32.77-6.116-38.28l48.429,3.164c1.133,11.585.698,38.919,17.474,41.134,2.791.364,5.777.633,8.902.844Z" fill="#ff9e85"></path>
              <path id="sh" d="m220.335,254.894c-.992-2.013-1.673-3.792-2.538-7.045-1.547-5.818-2.06-11.308-2.323-16.943-9.651.213-19.347-2.352-27.631-7.308-.37,3.345-2.967,18.113-1.169,20.957,3.399,5.377,16.623,12.99,33.662,10.338Z" fill="#0c0c0c" opacity=".22"></path>
              <path d="m211.614,244.926c-18.384,3.747-43.195-1.159-50.77-25.37l-6.835-21.846c-7.575-24.211-.999-47.816,21.797-54.948h0c22.796-7.132,45.975,7.164,53.55,31.375l3.026,9.671c.623,1.991,1.531,5.629,2.252,10.182,1.437,9.084,3.588,22.907.345,33.662-3.061,10.153-11.62,14.88-23.365,17.274Z" fill="#ff9e85"></path>
              <g>
                <g>
                  <circle id="e1_eye" cx="223.571" cy="192.642" r="2.604" transform="translate(-26.962 36.667) rotate(-8.845)" fill="#0a0a0a"></circle>
                  <g id="e1_n">
                    <path d="m210.122,211.513c-.521.081-1.028-.243-1.166-.763-.147-.556.184-1.126.741-1.274l5.363-1.418-5.05-10.367c-.251-.517-.036-1.141.481-1.393.517-.251,1.14-.037,1.393.48l5.604,11.507c.136.28.14.607.01.89s-.379.494-.681.573l-6.588,1.742c-.036.009-.072.017-.107.022Z" fill="#0a0a0a"></path>
                  </g>
                  <g id="e1_m">
                    <path d="m210.726,223.358c-9.331,1.452-12.985-3.755-13.151-4-.322-.476-.198-1.124.278-1.447.473-.322,1.118-.198,1.443.273.154.222,3.865,5.316,13.942,2.491.565-.161,1.13.168,1.285.722.155.554-.168,1.129-.722,1.284-1.087.305-2.112.526-3.075.676Z" fill="#0a0a0a"></path>
                  </g>
                  <path id="e1_eb" d="m196.558,183.571c.366.728-2.245,2.309-6.003,3.97-3.759,1.661-7.191,2.972-7.608,2.046-.527-1.169,1.948-4.5,5.707-6.161,3.759-1.661,7.328-1.001,7.905.145Z" fill="#0a0a0a"></path>
                  <circle id="e1_eye-2" data-name="e1_eye" cx="198.02" cy="198.298" r="2.605" transform="translate(-28.135 32.805) rotate(-8.845)" fill="#0a0a0a"></circle>
                </g>
                <path id="e1_eb-2" data-name="e1_eb" d="m227.899,179.245c.039.814-2.988,1.2-7.098,1.193-4.11-.007-7.778-.202-7.784-1.217-.007-1.282,3.175-3.346,7.285-3.339,4.11.007,7.536,2.082,7.598,3.363Z" fill="#0a0a0a"></path>
              </g>
              <path d="m164.568,226.489c-6.928,2.167-14.862-3.487-17.029-10.414-2.167-6.928,2.253-12.505,9.181-14.672l5.022,3.525,8.783,19.698-5.956,1.863Z" fill="#ff9e85"></path>
              <path d="m165.97,213.69c1.191-.243,1.965-1.397,1.728-2.589-1.531-7.701-6.017-33.731,2.308-38.187,6.522-3.491,26.309,1.326,41.019-6.313,6.435-3.342,13.419-3.59,15.042-.563.643,1.199-.59-18.415-15.439-29.141-11.823-8.54-40.604-3.344-52.186,4.077-32.07,20.55-2.704,62.371-2.704,62.371l4.384,9.774c.423.944,1.444,1.468,2.458,1.261l3.389-.691Z" fill="#0c0c0c"></path>
              <ellipse cx="195.291" cy="139.534" rx="9.937" ry="14.627" transform="translate(-42.886 109.868) rotate(-28.446)" fill="#0c0c0c"></ellipse>
            </g>
            <path d="m308.628,336.736c1.771,16.597,11.639,120.376,14.196,140.747l-181.073,35.056c-4.552-17.938-24.58-96.353-35.393-131.062-10.319-33.12-18.58-47.502-16.279-58.861,4.059-20.034,26.806-33.033,42.864-38.458,9.806-3.312,24.761-7.222,24.761-7.222,0,0,6.304,25.692,37.16,21.216,42.004-6.094,33.542-34.904,33.748-34.944,6.743-1.305,44.397-3.508,54.733.697,14.598,5.939,20.659,16.712,22.858,27.261,2.532,12.146.418,26.745,2.424,45.569Z" fill="#367cff"></path>
          </g>
          <g>
            <path d="m437.774,236.858c-2.505-1.9-5.968-.991-7.29,1.681l2.779-5.617c1.16-2.345.444-5.316-1.837-6.597-2.433-1.366-5.481-.402-6.703,2.067l1.258-2.542c1.036-2.094.57-4.715-1.292-6.127-2.505-1.9-5.968-.991-7.29,1.681l-2.204,4.453c1.183-2.392.204-5.289-2.188-6.473h0c-2.45-1.42-5.266.636-6.383,2.894l-10.4,20.129.304-6.518c.122-2.613-1.726-5.047-4.33-5.305-2.777-.275-5.182,1.831-5.311,4.583l-2.385,51.175,15.562,1.17c9.887.743,19.237-4.587,23.634-13.474l15.365-31.054c1.036-2.094.57-4.715-1.292-6.127Z" fill="#ff9e85"></path>
            <path d="m405.369,244.803c.217.106.48.019.591-.197l9.866-19.155c.113-.219.027-.487-.192-.601-.197-.122-.488-.026-.601.192l-9.866,19.155c-.113.219-.027.487.192.601l.009.005Z" fill="#ff9e85"></path>
            <path d="m413.697,249.387c.217.106.48.019.591-.197l11.01-21.377c.113-.219.027-.487-.192-.601-.201-.102-.488-.026-.601.192l-11.01,21.377c-.113.219-.027.487.192.601l.009.005Z" fill="#ff9e85"></path>
            <path d="m422.689,254.404c.217.106.48.019.591-.197l8.783-17.052c.113-.219.027-.487-.192-.601-.223-.109-.488-.026-.601.192l-8.783,17.052c-.113.219-.027.487.192.601l.009.005Z" fill="#ff9e85"></path>
            <g fill="none" opacity=".1">
              <path d="m405.369,244.803c.217.106.48.019.591-.197l9.866-19.155c.113-.219.027-.487-.192-.601-.197-.122-.488-.026-.601.192l-9.866,19.155c-.113.219-.027.487.192.601l.009.005Z" fill="#0c0c0c"></path>
            </g>
            <g fill="none" opacity=".1">
              <path d="m413.697,249.387c.217.106.48.019.591-.197l11.01-21.377c.113-.219.027-.487-.192-.601-.201-.102-.488-.026-.601.192l-11.01,21.377c-.113.219-.027.487.192.601l.009.005Z" fill="#0c0c0c"></path>
            </g>
            <g fill="none" opacity=".1">
              <path d="m422.689,254.404c.217.106.48.019.591-.197l8.783-17.052c.113-.219.027-.487-.192-.601-.223-.109-.488-.026-.601.192l-8.783,17.052c-.113.219-.027.487.192.601l.009.005Z" fill="#0c0c0c"></path>
            </g>
          </g>
          <path d="m376.406,261.633l-21.055,79.79-56.142-65.994-52.174,41.823,98.227,115.463.47.588c4.572,5.7,11.054,9.93,18.749,11.607,17.853,3.892,35.48-7.426,39.372-25.279l31.355-143.837-58.802-14.161Z" fill="#367cff"></path>
          <path id="st-2" data-name="st" d="m314.312,413.645c-.026.005-.052.008-.079.008-.246.003-.448-.193-.452-.44l-.757-54.307c-.003-.246.191-.448.44-.452.246-.003.448.193.452.44l.757,54.307c.003.219-.152.403-.361.444Z" fill="#0c0c0c"></path>
          <g id="b">
            <rect x="279.803" y="326.413" width="47.253" height="57.951" transform="translate(-4.36 3.769) rotate(-.707)" fill="snow"></rect>
            <path d="m280.033,374.187c-10.205.126-18.609-8.074-18.735-18.278-.126-10.205,8.074-18.609,18.278-18.735s18.609,8.074,18.735,18.278c.126,10.205-8.074,18.609-18.278,18.735Zm-.38-30.773c-6.764.083-12.198,5.654-12.115,12.418.083,6.764,5.654,12.198,12.418,12.115s12.198-5.654,12.115-12.418c-.083-6.764-5.654-12.198-12.418-12.115Z" fill="snow"></path>
            <path d="m312.002,312.361c-.314.004-.621-.159-.787-.451-.243-.428-.093-.972.335-1.216,4.284-2.431,4.701-9.016,2.63-13.978-.939-2.248-2.251-4.403-3.52-6.487-1.626-2.67-3.307-5.432-4.293-8.499-2.316-7.205-.269-15.636,5.093-20.978.349-.346.913-.346,1.261.003.347.349.346.913-.003,1.261-4.899,4.881-6.77,12.585-4.654,19.169.921,2.866,2.474,5.417,4.119,8.118,1.303,2.141,2.652,4.355,3.642,6.727,2.339,5.601,1.943,13.188-3.394,16.217-.136.077-.283.114-.428.116Z" fill="snow"></path>
            <path d="m293.605,294.915c-.324.004-.639-.169-.8-.475-2.626-4.969-5.894-11.153-5.616-17.651.221-5.167,2.597-9.804,4.894-14.289,1.414-2.759,2.875-5.612,3.8-8.536.148-.469.647-.73,1.119-.581.469.149.729.65.581,1.119-.97,3.066-2.466,5.986-3.913,8.811-2.312,4.512-4.495,8.774-4.7,13.552-.258,6.015,2.754,11.713,5.41,16.741.23.435.064.974-.372,1.204-.129.069-.268.102-.404.103Z" fill="snow"></path>
          </g>
          <g id="ha">
            <path id="sk-2" data-name="sk" d="m282.786,373.209c-1.263-2.818-4.675-3.666-7.073-1.986l5.041-3.53c2.104-1.474,2.887-4.371,1.525-6.549-1.452-2.323-4.533-2.929-6.749-1.378l2.282-1.598c1.879-1.316,2.712-3.794,1.774-5.888-1.263-2.818-4.675-3.665-7.073-1.986l-3.997,2.799c2.146-1.503,2.668-4.461,1.165-6.608h0c-1.442-2.378-4.836-1.933-6.863-.514l-8.213,5.325,2.162-3.249c1.336-2.194.891-5.162-1.231-6.611-2.263-1.545-5.328-.864-6.735,1.446l-24.995,40.744,12.857,8.34c8.168,5.299,18.735,5.112,26.711-.474l17.638-12.399c1.879-1.316,2.712-3.794,1.774-5.887Z" fill="#ff9e85"></path>
            <path id="sk-3" data-name="sk" d="m263.521,356.652c-.174.034-.36-.039-.461-.199-.132-.208-.071-.483.137-.615l5.569-3.537c.208-.13.483-.071.615.137.132.208.071.483-.137.615l-5.569,3.537c-.049.031-.101.051-.154.061Z" fill="#ff9e85"></path>
            <path id="sk-4" data-name="sk" d="m268.536,364.526c-.173.034-.357-.038-.459-.196-.134-.206-.074-.483.133-.616l7.602-4.913c.205-.132.482-.075.616.133.134.206.074.483-.133.616l-7.602,4.913c-.049.032-.102.053-.157.063Z" fill="#ff9e85"></path>
            <path id="sk-5" data-name="sk" d="m273.919,373.085c-.177.034-.365-.042-.465-.204-.128-.21-.063-.484.147-.613l3.645-2.236c.209-.128.484-.063.613.147.128.21.063.484-.147.613l-3.645,2.236c-.047.029-.097.048-.148.058Z" fill="#ff9e85"></path>
            <path id="sh-2" data-name="sh" d="m263.521,356.652c-.174.034-.36-.039-.461-.199-.132-.208-.071-.483.137-.615l5.569-3.537c.208-.13.483-.071.615.137.132.208.071.483-.137.615l-5.569,3.537c-.049.031-.101.051-.154.061Z" fill="#0c0c0c" opacity=".17"></path>
            <path id="sh-3" data-name="sh" d="m268.536,364.526c-.173.034-.357-.038-.459-.196-.134-.206-.074-.483.133-.616l7.602-4.913c.205-.132.482-.075.616.133.134.206.074.483-.133.616l-7.602,4.913c-.049.032-.102.053-.157.063Z" fill="#0c0c0c" opacity=".17"></path>
            <path id="sh-4" data-name="sh" d="m273.919,373.085c-.177.034-.365-.042-.465-.204-.128-.21-.063-.484.147-.613l3.645-2.236c.209-.128.484-.063.613.147.128.21.063.484-.147.613l-3.645,2.236c-.047.029-.097.048-.148.058Z" fill="#0c0c0c" opacity=".17"></path>
          </g>
          <path id="b-2" data-name="b" d="m104.832,511.093c-8.364,1.62-17.21.015-24.62-4.816-11.118-7.247-16.896-20.385-14.725-33.478l23.902-144.116c3.022-18.216,20.235-30.535,38.454-27.512,18.215,3.021,30.533,20.237,27.512,38.453l-11.43,68.917,87.949-56.632,35.111,55.148-150.199,99.183c-3.703,2.425-7.769,4.043-11.954,4.853Z" fill="#367cff"></path>
          <path id="st-3" data-name="st" d="m135.627,494.303c-.172.033-.354-.037-.457-.192-.136-.205-.079-.482.126-.618l131.074-86.565-35.025-54.156-88.464,55.408c-.149.095-.339.091-.487-.009-.146-.099-.22-.275-.188-.449l7.435-40.806c.044-.243.277-.403.519-.358.242.044.402.276.358.519l-7.254,39.812,87.98-55.105c.207-.129.479-.068.611.135l35.503,54.896c.133.206.076.479-.129.614l-131.442,86.808c-.05.034-.105.055-.161.066Z" fill="#0c0c0c"></path>
          <path d="m350.326,375.38c-.049.009-.101.011-.153.003-.243-.038-.41-.265-.372-.508l5.669-36.802c.038-.243.264-.411.509-.373.243.038.41.265.372.508l-5.669,36.802c-.029.191-.176.335-.356.37Z" fill="#0c0c0c"></path>
          <path d="m388.538,242.949l.328-8.917c.122-2.613-1.726-5.047-4.33-5.305-2.777-.275-5.182,1.831-5.311,4.583l-.853,18.294" fill="#ff9e85"></path>
          <g>
            <polygon points="421.054 254.154 397.061 233.655 410.186 139.909 437.326 162.238 421.054 254.154" fill="#bd0bad"></polygon>
            <path d="m408.243,160.71l3.189-18.043s3.54,13.758,22.183,21.012l-.667,14.762-25.56-9.345.855-8.386Z" fill="#bd0bad"></path>
            <path d="m408.243,160.71l3.189-18.043s3.54,13.758,22.183,21.012l-.667,14.762-25.56-9.345.855-8.386Z" fill="#fff" opacity=".49"></path>
            <path d="m429.265,165.367s-32.432-13.592-58.333-8.212l56.208,12.298,2.125-4.086Z" fill="#bd0bad"></path>
            <path d="m429.265,165.367s-32.432-13.592-58.333-8.212l56.208,12.298,2.125-4.086Z" fill="#fff" opacity=".81"></path>
            <polygon points="437.326 162.238 427.74 165.959 412.139 256.921 421.054 254.154 437.326 162.238" fill="#bd0bad"></polygon>
            <polygon points="437.326 162.238 427.74 165.959 412.139 256.921 421.054 254.154 437.326 162.238" fill="#fff" opacity=".25"></polygon>
            <polygon points="367.787 154.963 427.74 165.959 412.139 256.921 353.445 246.8 367.787 154.963" fill="#bd0bad"></polygon>
          </g>
        </g>
      </g>
    </g>
  </g>
</svg>