<svg id="Layer_2" data-name="Layer 2" xmlns="http://www.w3.org/2000/svg" viewBox="0 0 978.258 916.556" style="width: 100%; height: 100%;">
  <g id="Layer_2-2" data-name="Layer 2">
    <g>
      <g fill="none" opacity=".7">
        <rect x="659.897" y="7.983" width="172.061" height="203.958" fill="#f4f4f4"></rect>
        <rect x="831.958" y="7.983" width="5.582" height="203.958" transform="translate(1669.498 219.924) rotate(180)" fill="#f4f4f4"></rect>
        <rect x="831.958" y="7.983" width="5.582" height="203.958" transform="translate(1669.498 219.924) rotate(180)" fill="#292a2e" opacity=".05"></rect>
        <rect x="691.24" y="48.78" width="109.375" height="122.365" fill="#292a2e" opacity=".05"></rect>
        <rect x="794.915" y="48.78" width="5.7" height="122.365" fill="#292a2e" opacity=".03"></rect>
        <rect x="831.958" y="267.016" width="140.718" height="142.01" fill="#f4f4f4"></rect>
        <rect x="857.592" y="292.885" width="89.451" height="90.272" fill="#292a2e" opacity=".05"></rect>
        <rect x="972.676" y="267.016" width="5.582" height="142.01" transform="translate(1950.934 676.042) rotate(-180)" fill="#f4f4f4"></rect>
        <rect x="972.676" y="267.016" width="5.582" height="142.01" transform="translate(1950.934 676.042) rotate(-180)" fill="#292a2e" opacity=".05"></rect>
        <rect x="941.342" y="292.885" width="5.7" height="90.272" fill="#292a2e" opacity=".03"></rect>
      </g>
      <g fill="none" opacity=".7">
        <rect id="c_3_c" x="74.579" y="0" width="405.081" height="405.081" fill="#f4f4f4"></rect>
        <rect id="c_3_c-2" data-name="c_3_c" x="69.936" y="0" width="4.643" height="405.081" fill="#f4f4f4"></rect>
        <rect id="c_3_c-3" data-name="c_3_c" x="69.936" y="0" width="4.643" height="405.081" fill="#292a2e" opacity=".05"></rect>
        <polygon id="c_3_c-4" data-name="c_3_c" points="172.712 279.134 172.712 173.152 259.527 173.152 259.527 234.725 394.004 234.725 394.004 343.749 451.159 343.749 451.159 405.081 394.004 405.081 382.994 405.081 94.065 405.081 94.065 279.134 172.712 279.134" fill="#292a2e" opacity=".05"></polygon>
        <g id="c_3_wh">
          <rect id="c_3_wh-2" data-name="c_3_wh" x="185.164" y="184.659" width="63.22" height="11.507" fill="#fffffa" opacity=".34"></rect>
          <rect id="c_3_wh-3" data-name="c_3_wh" x="185.164" y="208.505" width="63.22" height="11.507" fill="#fffffa" opacity=".34"></rect>
          <rect id="c_3_wh-4" data-name="c_3_wh" x="185.164" y="232.35" width="63.22" height="11.507" fill="#fffffa" opacity=".34"></rect>
        </g>
        <g id="c_3_wh-5" data-name="c_3_wh">
          <rect id="c_3_wh-6" data-name="c_3_wh" x="105.276" y="290.304" width="11.652" height="11.507" fill="#fffffa" opacity=".34"></rect>
          <rect id="c_3_wh-7" data-name="c_3_wh" x="105.276" y="314.15" width="11.652" height="11.507" fill="#fffffa" opacity=".34"></rect>
          <rect id="c_3_wh-8" data-name="c_3_wh" x="105.276" y="337.995" width="11.652" height="11.507" fill="#fffffa" opacity=".34"></rect>
          <rect id="c_3_wh-9" data-name="c_3_wh" x="126.833" y="290.304" width="11.652" height="11.507" fill="#fffffa" opacity=".34"></rect>
          <rect id="c_3_wh-10" data-name="c_3_wh" x="126.833" y="314.15" width="11.652" height="11.507" fill="#fffffa" opacity=".34"></rect>
          <rect id="c_3_wh-11" data-name="c_3_wh" x="126.833" y="337.995" width="11.652" height="11.507" fill="#fffffa" opacity=".34"></rect>
          <rect id="c_3_wh-12" data-name="c_3_wh" x="147.807" y="290.304" width="11.652" height="11.507" fill="#fffffa" opacity=".34"></rect>
          <rect id="c_3_wh-13" data-name="c_3_wh" x="147.807" y="314.15" width="11.652" height="11.507" fill="#fffffa" opacity=".34"></rect>
          <rect id="c_3_wh-14" data-name="c_3_wh" x="147.807" y="337.995" width="11.652" height="11.507" fill="#fffffa" opacity=".34"></rect>
        </g>
        <polygon points="74.579 200.268 156.088 200.268 156.088 0 162.829 0 162.829 200.268 382.994 200.268 382.994 0 389.735 0 389.735 200.268 479.66 200.268 479.66 207.009 389.735 207.009 389.735 405.081 382.994 405.081 382.994 207.009 162.829 207.009 162.829 405.081 156.088 405.081 156.088 207.009 74.579 207.009 74.579 200.268" fill="#fff"></polygon>
        <rect id="c_3_c-5" data-name="c_3_c" x="58.442" y="404.592" width="437.355" height="13.471" fill="#f4f4f4"></rect>
        <rect id="c_3_c-6" data-name="c_3_c" x="58.442" y="404.592" width="437.355" height="13.471" fill="#292a2e" opacity=".1"></rect>
        <rect id="c_3_c-7" data-name="c_3_c" x="52.128" y="404.592" width="6.314" height="13.471" fill="#292a2e" opacity=".1"></rect>
        <rect id="c_3_c-8" data-name="c_3_c" x="52.128" y="404.592" width="6.314" height="13.471" fill="#292a2e" opacity=".1"></rect>
      </g>
      <g>
        <g>
          <path d="m308.373,50.298h474.137c14.213,0,25.752,11.539,25.752,25.752v567.882c0,14.522-11.79,26.312-26.312,26.312h-473.016c-14.522,0-26.312-11.79-26.312-26.312V76.049c0-14.213,11.539-25.752,25.752-25.752Z" fill="#fff"></path>
          <path d="m781.95,671.243h-473.016c-15.084,0-27.312-12.228-27.312-27.312V75.049c0-14.222,11.529-25.752,25.752-25.752h476.137c14.222,0,25.752,11.529,25.752,25.752v568.882c0,15.084-12.228,27.312-27.312,27.312ZM283.622,76.006v567.926c0,13.979,11.333,25.312,25.312,25.312h473.016c13.979,0,25.312-11.333,25.312-25.312V75.756c0-13.508-10.95-24.458-24.458-24.458h-474.474c-13.646,0-24.708,11.062-24.708,24.708Z" fill="#292a2e"></path>
        </g>
        <path d="m384.588,173.577h-57.459c-6.661,0-12.08-5.418-12.08-12.079v-57.459c0-6.661,5.419-12.079,12.08-12.079h57.459c6.661,0,12.08,5.418,12.08,12.079v57.459c0,6.661-5.419,12.079-12.08,12.079Zm-57.459-79.618c-5.558,0-10.08,4.521-10.08,10.079v57.459c0,5.558,4.521,10.079,10.08,10.079h57.459c5.558,0,10.08-4.521,10.08-10.079v-57.459c0-5.558-4.521-10.079-10.08-10.079h-57.459Z" fill="#292a2e"></path>
        <path d="m384.588,287.415h-57.459c-6.661,0-12.08-5.419-12.08-12.08v-57.459c0-6.661,5.419-12.08,12.08-12.08h57.459c6.661,0,12.08,5.419,12.08,12.08v57.459c0,6.661-5.419,12.08-12.08,12.08Zm-57.459-79.618c-5.558,0-10.08,4.521-10.08,10.08v57.459c0,5.558,4.521,10.08,10.08,10.08h57.459c5.558,0,10.08-4.521,10.08-10.08v-57.459c0-5.558-4.521-10.08-10.08-10.08h-57.459Z" fill="#292a2e"></path>
        <path d="m384.588,401.253h-57.459c-6.661,0-12.08-5.419-12.08-12.08v-57.459c0-6.661,5.419-12.079,12.08-12.079h57.459c6.661,0,12.08,5.418,12.08,12.079v57.459c0,6.661-5.419,12.08-12.08,12.08Zm-57.459-79.618c-5.558,0-10.08,4.521-10.08,10.079v57.459c0,5.558,4.521,10.08,10.08,10.08h57.459c5.558,0,10.08-4.521,10.08-10.08v-57.459c0-5.558-4.521-10.079-10.08-10.079h-57.459Z" fill="#292a2e"></path>
        <path d="m384.588,513.527h-57.459c-6.661,0-12.08-5.418-12.08-12.079v-57.459c0-6.661,5.419-12.08,12.08-12.08h57.459c6.661,0,12.08,5.419,12.08,12.08v57.459c0,6.661-5.419,12.079-12.08,12.079Zm-57.459-79.618c-5.558,0-10.08,4.521-10.08,10.08v57.459c0,5.558,4.521,10.079,10.08,10.079h57.459c5.558,0,10.08-4.521,10.08-10.079v-57.459c0-5.558-4.521-10.08-10.08-10.08h-57.459Z" fill="#292a2e"></path>
        <path d="m384.588,625.801h-57.459c-6.661,0-12.08-5.419-12.08-12.08v-57.459c0-6.661,5.419-12.08,12.08-12.08h57.459c6.661,0,12.08,5.419,12.08,12.08v57.459c0,6.661-5.419,12.08-12.08,12.08Zm-57.459-79.618c-5.558,0-10.08,4.521-10.08,10.08v57.459c0,5.558,4.521,10.08,10.08,10.08h57.459c5.558,0,10.08-4.521,10.08-10.08v-57.459c0-5.558-4.521-10.08-10.08-10.08h-57.459Z" fill="#292a2e"></path>
        <path d="m345.638,269.594c-.998,0-1.996-.371-2.771-1.116l-16.748-16.097c-1.593-1.531-1.643-4.063-.112-5.656,1.531-1.592,4.062-1.643,5.656-.112l13.908,13.367,34.861-35.176c1.555-1.569,4.088-1.581,5.657-.026,1.569,1.555,1.581,4.088.026,5.657l-37.634,37.975c-.782.789-1.812,1.185-2.842,1.185Z" fill="#bd0bad"></path>
        <path d="m345.638,383.432c-.998,0-1.996-.371-2.771-1.116l-16.748-16.097c-1.593-1.531-1.643-4.063-.112-5.656,1.531-1.592,4.062-1.643,5.656-.112l13.908,13.367,34.861-35.177c1.555-1.569,4.088-1.581,5.657-.026,1.569,1.555,1.581,4.088.026,5.657l-37.634,37.975c-.782.789-1.811,1.185-2.842,1.185Z" fill="#bd0bad"></path>
        <rect x="425.281" y="114.977" width="342.57" height="5.582" rx="2.791" ry="2.791" fill="#262626" opacity=".5"></rect>
        <rect x="425.281" y="144.977" width="222.57" height="5.582" rx="2.791" ry="2.791" fill="#262626" opacity=".5"></rect>
        <rect x="425.281" y="228.815" width="342.57" height="5.582" rx="2.791" ry="2.791" fill="#262626" opacity=".5"></rect>
        <rect x="425.281" y="258.815" width="222.57" height="5.582" rx="2.791" ry="2.791" fill="#262626" opacity=".5"></rect>
        <rect x="425.281" y="342.653" width="342.57" height="5.582" rx="2.791" ry="2.791" fill="#262626" opacity=".5"></rect>
        <rect x="425.281" y="372.653" width="222.57" height="5.582" rx="2.791" ry="2.791" fill="#262626" opacity=".5"></rect>
        <rect x="425.281" y="454.927" width="342.57" height="5.582" rx="2.791" ry="2.791" fill="#262626" opacity=".5"></rect>
        <rect x="425.281" y="484.927" width="222.57" height="5.582" rx="2.791" ry="2.791" fill="#262626" opacity=".5"></rect>
        <rect x="425.281" y="567.2" width="342.57" height="5.582" rx="2.791" ry="2.791" fill="#262626" opacity=".5"></rect>
        <rect x="425.281" y="597.2" width="222.57" height="5.582" rx="2.791" ry="2.791" fill="#262626" opacity=".5"></rect>
      </g>
      <g>
        <g>
          <path d="m342.752,153.226c.703-1.72,2.285-2.281,3.683-2.189-.003-.062-.054-.212.054-.211l-2.503-1.581c-1.513-.955-2.222-2.897-1.459-4.516.792-1.678,2.672-2.379,4.299-1.811-.008-.034.013-.068.016-.103l-1.028-.65c-1.423-.899-2.12-2.685-1.505-4.252.827-2.109,3.297-2.849,5.113-1.702l2.374,1.499c.006-.014-.001-.029.007-.042.009-.017.033-.019.045-.034-1.124-1.125-1.368-2.912-.483-4.313.973-1.793,3.476-1.585,5.011-.616l4.597,3.428c1.442,1.075,2.246,2.799,2.15,4.595-.41,7.647-1.957,27.596-6.855,24.503l-12.059-7.614c-1.392-.879-2.078-2.868-1.456-4.391Z" fill="#ff9e85"></path>
          <path d="m345.638,154.616c-.998,0-1.996-.371-2.771-1.116l-16.748-16.097c-1.593-1.531-1.643-4.063-.112-5.656,1.531-1.592,4.062-1.643,5.656-.112l13.908,13.367,34.861-35.177c1.555-1.57,4.088-1.581,5.657-.026,1.569,1.555,1.581,4.088.026,5.657l-37.634,37.975c-.782.789-1.812,1.185-2.842,1.185Z" fill="#bd0bad"></path>
          <path d="m334.113,144.852c.352-2.445,2.681-4.117,5.135-3.632,2.301.455,3.741,2.787,3.406,5.109l-.121,6.14c-.053,2.688,1.909,4.993,4.571,5.371h0c2.606.37,5.09-1.222,5.843-3.743l3.133-10.484-3.408-5.087c1.192-1.919,2.193-6.884,4.257-5.405,1.747,1.085,5.714,3.712,6.803,6.201.022.01,2.053,21.357.947,23.137l-9.783,26.155c-4.691,7.552-27.329,1.708-27.329,1.708l6.544-45.469Z" fill="#ff9e85"></path>
          <path d="m345.57,145.002l34.861-35.177c1.555-1.57,4.088-1.581,5.657-.026,1.569,1.555,1.581,4.088.026,5.657l-37.634,37.975" fill="#bd0bad"></path>
        </g>
        <path d="m167.648,326.809l141.087-11.874c10.389.273,19.433-8.364,23.243-18.056l36.964-115.857-48.354-19.008-32.629,99.243-124.081,8.684,3.77,56.868Z" fill="#367cff"></path>
        <g>
          <path d="m85.728,872.299s4.515,23.404,26.428,24.708c21.913,1.304,17.161,18.761,17.161,18.761H45.578v-41.837s40.15-1.632,40.15-1.632Z" fill="#367cff"></path>
          <path d="m59.899,445.368s.263-7.036.207,8.924c-.207,59.529-1.24,127.525-3.764,167.315-4.057,63.964-14.459,265.628-14.459,265.628l55.026-.462,53.333-443.823-90.342,2.419Z" fill="#262626"></path>
          <path d="m122.039,515.567s2.28,43.2,2.703,53.341c.978,23.455,1.318,47.739,1.318,75.273l8.674-72.18s-6.347-22.621-12.695-56.434Z" fill="#0a0a0a"></path>
          <path d="m183.689,872.299s4.515,23.404,26.428,24.708c21.913,1.304,17.161,18.761,17.161,18.761h-83.739v-41.837s40.15-1.632,40.15-1.632Z" fill="#367cff"></path>
          <path d="m210.332,449.991s4.874,203.456,4.16,213.4l-20.464,222.303-54.117,1,5.274-231.343s-3.72-63.816-19.139-123.073c-7.912-30.406-12.613-61.557-14.168-92.938h0s98.454,10.651,98.454,10.651Z" fill="#262626"></path>
          <path d="m59.301,445.362l-.18.01s.13-3.47.18-.01Z" fill="#333"></path>
          <path d="m218.078,343.06c-1.135,13.332-6.655,90.51-7.746,106.931H59.96c-.849-14.811-4.664-79.575-7.885-108.539-3.075-27.638-9.108-41.475-4.686-49.646,7.226-13.354,26.972-21.071,40.436-22.894,8.222-1.113,78.316-1.911,78.484-1.911,5.506,0,37.565,2.589,44.653,8.046,12.823,9.874,9.098,44.763,7.116,68.012Z" fill="#367cff"></path>
          <path d="m220.155,322.783c.263,0,.483-.206.499-.471l1.213-19.171c.016-.276-.195-.512-.47-.528-.271-.012-.512.195-.528.47l-1.213,19.171c-.016.276.195.512.47.528.01,0,.02,0,.029,0Z" fill="#0c0c0c"></path>
        </g>
        <g>
          <path d="m27.45,449.119c-8.397,0-16.401-3.854-21.635-10.558-5.849-7.491-7.408-17.475-4.12-26.393,1.553-4.213,37.973-100.656,44.906-118.526l51.339,20.802c-3.898,10.048-18.023,48.132-29.37,78.811l18.852-2.049,5.934,54.585-62.935,3.167c-.993.108-1.985.161-2.971.161Z" fill="#367cff"></path>
          <path id="h_3_sk" d="m184.224,265.176c-.168-.022-4.781,17.336-40.778,14.635-24.921-1.867-30.997-18.829-31.568-18.829,2.687-.571,7.05-1.164,8.243-1.801,3.924-2.108,6.783-4.675,8.221-10.183,1.125-4.308,1.698-20.891,1.698-29.211l38.347,8.617c-.534,9.385-4.275,31.143,8.836,34.994,2.182.637,4.532,1.223,6.999,1.779Z" fill="#ff9e85"></path>
          <path d="m167.062,246.854c-15.117,1.193-34.537-5.19-38.226-25.359l-3.328-18.199c-3.689-20.169,3.914-38.457,22.905-41.93h0c18.99-3.473,36.175,10.281,39.864,30.45l1.474,8.057c1.415,7.739,4.284,44.853-22.688,46.981Z" fill="#ff9e85"></path>
          <path d="m181.079,228.336c-2.714-13.634-3.958-22.731-3.814-32.328,3.822-6.704,2.817-14.399,1.948-17.724,3.746,2.044,5.313,2.266,8.839,2.266,0,0-6.321-25.368-27.805-32.194-3.95-1.538-14.037-3.48-27.43-1.643-11.392,1.562-39.471,10.08-43.483,41.693h-.002s0,.009-.001.018c-.133,1.048-2.829,30.175-8.204,44.15-7.226,18.787-17.37,24.624-17.113,46.299.331,27.881,51.587,31.592,82.504,29.507,30.916-2.086,48.174-12.251,48.398-32.344.251-22.513-8.407-20.422-13.837-47.7Z" fill="#0a0a0a"></path>
        </g>
        <rect x="57.603" y="341.995" width="1" height="108.028" transform="translate(-13.507 2.218) rotate(-1.96)" fill="#0c0c0c"></rect>
      </g>
      <path d="m955.491,916.47H15.072c-.388,0-.702-.314-.702-.702s.314-.702.702-.702h940.419c.388,0,.702.314.702.702s-.314.702-.702.702Z" fill="#292a2e"></path>
      <g>
        <path d="m858.421,785.415c-.256,0-.512-.098-.707-.293-1.409-1.409-3.706-27.259-9.892-104.223-2.531-31.492-4.922-61.238-6.667-79.315-.125-1.291-.625-1.441-.79-1.491-2.388-.721-9.652,5.007-13.707,10.022-.347.429-.977.497-1.407.149-.429-.348-.496-.977-.149-1.407,2.682-3.316,11.422-12.009,15.838-10.68.891.268,1.996,1.042,2.206,3.214,1.746,18.093,4.137,47.847,6.669,79.347,3.759,46.77,8.018,99.756,9.417,103.093.282.391.247.939-.105,1.291-.195.195-.451.293-.707.293Z" fill="#494949"></path>
        <ellipse cx="820.825" cy="612.601" rx="38.507" ry="28.398" transform="translate(-202.787 647.987) rotate(-38.715)" fill="#bd0bad"></ellipse>
        <ellipse cx="820.825" cy="612.601" rx="38.507" ry="28.398" transform="translate(-202.787 647.987) rotate(-38.715)" fill="#fff" opacity=".2"></ellipse>
        <path d="m795.431,639.793c-.112,0-.225-.038-.319-.115-.212-.176-.242-.491-.065-.704l47.291-57.029c.176-.211.491-.242.704-.065.212.176.242.491.065.704l-47.291,57.029c-.099.119-.241.181-.385.181Z" fill="#fff"></path>
        <path d="m868.736,773.189c-.109,0-.22-.018-.329-.056-.521-.181-.797-.751-.616-1.273l17.764-51.087c1.066-3.065,3.586-5.351,6.741-6.112,3.156-.763,6.44.122,8.788,2.364l9.391,8.971c.399.381.414,1.015.032,1.414-.382.399-1.015.413-1.414.032l-9.391-8.971c-1.853-1.77-4.445-2.469-6.937-1.867-2.49.601-4.479,2.405-5.321,4.825l-17.764,51.087c-.144.413-.53.672-.944.672Z" fill="#494949"></path>
        <ellipse cx="912.815" cy="724.083" rx="28.398" ry="38.507" transform="translate(-252.314 722.871) rotate(-38.363)" fill="#bd0bad"></ellipse>
        <path d="m850.351,782.157c-.452,0-.862-.309-.972-.768l-29.811-124.645c-.422-1.767-1.729-3.079-3.494-3.51-1.765-.429-3.53.133-4.718,1.506l-9.189,10.619c-.361.417-.994.463-1.411.102-.417-.361-.463-.993-.102-1.411l9.189-10.619c1.665-1.924,4.233-2.744,6.705-2.141,2.471.603,4.374,2.514,4.965,4.988l29.811,124.645c.128.537-.203,1.077-.74,1.205-.078.019-.156.027-.233.027Z" fill="#494949"></path>
        <ellipse cx="811.37" cy="688.21" rx="38.507" ry="28.398" transform="translate(-5.027 1370.449) rotate(-80.189)" fill="#bd0bad"></ellipse>
        <path d="m858.423,785.415c-.041,0-.082-.002-.124-.007-.548-.068-.938-.567-.871-1.115l19.036-154.558c.43-3.486,2.78-6.296,6.135-7.335,3.354-1.039,6.883-.049,9.207,2.583l21.758,24.643c.366.414.326,1.046-.088,1.412-.414.366-1.046.326-1.411-.087l-21.758-24.643c-1.797-2.035-4.522-2.799-7.116-1.997-2.593.803-4.41,2.975-4.741,5.669l-19.036,154.558c-.062.507-.494.878-.991.878Z" fill="#494949"></path>
        <ellipse cx="902.184" cy="644.682" rx="28.398" ry="38.507" transform="translate(-98.63 1122.093) rotate(-61.051)" fill="#bd0bad"></ellipse>
        <ellipse cx="912.815" cy="724.083" rx="28.398" ry="38.507" transform="translate(-252.314 722.871) rotate(-38.363)" fill="#fff" opacity=".2"></ellipse>
        <ellipse cx="811.37" cy="688.21" rx="38.507" ry="28.398" transform="translate(-5.027 1370.449) rotate(-80.189)" fill="#fff" opacity=".5"></ellipse>
        <ellipse cx="902.184" cy="644.682" rx="28.398" ry="38.507" transform="translate(-98.63 1122.093) rotate(-61.051)" fill="#fff" opacity=".5"></ellipse>
        <polygon points="882.77 916.556 834.073 916.556 826.004 760.752 890.839 760.752 882.77 916.556" fill="#292a2e"></polygon>
        <polygon points="882.77 916.556 834.073 916.556 826.004 760.752 890.839 760.752 882.77 916.556" fill="#fff" opacity=".3"></polygon>
        <path d="m936.715,754.776c-.148,0-.294-.065-.393-.189l-47.799-60.386c-.171-.217-.135-.531.082-.703.218-.172.532-.134.703.082l47.799,60.386c.171.217.135.531-.082.703-.092.073-.202.108-.31.108Z" fill="#fff"></path>
        <path d="m932.701,668.159c-.102,0-.206-.031-.294-.096l-61.167-44.663c-.223-.163-.272-.476-.109-.699.163-.223.476-.272.699-.109l61.167,44.663c.223.163.272.476.109.699-.098.134-.25.205-.404.205Z" fill="#fff"></path>
        <path d="m802.327,725.507c-.043,0-.086-.005-.129-.017-.267-.071-.425-.345-.354-.612l19.472-72.953c.071-.267.35-.424.612-.354.267.071.425.345.354.612l-19.472,72.953c-.06.224-.262.371-.482.371Z" fill="#fff"></path>
      </g>
    </g>
  </g>
</svg>