<svg id="Layer_2" data-name="Layer 2" xmlns="http://www.w3.org/2000/svg" viewBox="0 0 1050.734 938.434" style="width: 100%; height: 100%;">
  <g id="Layer_2-2" data-name="Layer 2">
    <g>
      <g>
        <path d="m139.213,805.068c-.256,0-.512-.098-.707-.293-1.409-1.409-3.706-27.259-9.892-104.223-2.531-31.492-4.922-61.238-6.667-79.315-.125-1.291-.625-1.441-.79-1.491-2.388-.721-9.652,5.007-13.707,10.022-.347.429-.977.497-1.407.149-.429-.348-.496-.977-.149-1.407,2.682-3.316,11.422-12.009,15.838-10.68.891.268,1.996,1.042,2.206,3.214,1.746,18.093,4.137,47.847,6.669,79.347,3.759,46.77,8.018,99.756,9.417,103.093.282.391.247.939-.105,1.291-.195.195-.451.293-.707.293Z" fill="#494949"></path>
        <ellipse cx="101.617" cy="632.255" rx="38.507" ry="28.398" transform="translate(-373.111 202.481) rotate(-38.715)" fill="#bd0bad"></ellipse>
        <ellipse cx="101.617" cy="632.255" rx="38.507" ry="28.398" transform="translate(-373.111 202.481) rotate(-38.715)" fill="#fff" opacity=".2"></ellipse>
        <path d="m76.223,659.447c-.112,0-.225-.038-.319-.115-.212-.176-.242-.491-.065-.704l47.291-57.029c.176-.211.491-.242.704-.065.212.176.242.491.065.704l-47.291,57.029c-.099.119-.241.181-.385.181Z" fill="#fff"></path>
        <path d="m149.528,792.843c-.109,0-.22-.018-.329-.056-.521-.181-.797-.751-.616-1.273l17.764-51.087c1.066-3.065,3.586-5.351,6.741-6.112,3.156-.763,6.44.122,8.788,2.364l9.391,8.971c.399.381.414,1.015.032,1.414-.382.399-1.015.413-1.414.032l-9.391-8.971c-1.853-1.77-4.445-2.469-6.937-1.867-2.49.601-4.479,2.405-5.321,4.825l-17.764,51.087c-.144.413-.53.672-.944.672Z" fill="#494949"></path>
        <ellipse cx="193.607" cy="743.737" rx="28.398" ry="38.507" transform="translate(-419.795 280.74) rotate(-38.363)" fill="#bd0bad"></ellipse>
        <path d="m131.143,801.811c-.452,0-.862-.309-.972-.768l-29.811-124.645c-.422-1.767-1.729-3.079-3.494-3.51-1.765-.429-3.53.133-4.718,1.506l-9.189,10.619c-.361.417-.994.463-1.411.102-.417-.361-.463-.993-.102-1.411l9.189-10.619c1.665-1.924,4.233-2.744,6.705-2.141,2.471.603,4.374,2.514,4.965,4.988l29.811,124.645c.128.537-.203,1.077-.74,1.205-.078.019-.156.027-.233.027Z" fill="#494949"></path>
        <ellipse cx="92.161" cy="707.864" rx="38.507" ry="28.398" transform="translate(-621.055 678.063) rotate(-80.189)" fill="#bd0bad"></ellipse>
        <path d="m139.215,805.068c-.041,0-.082-.002-.124-.007-.548-.068-.938-.567-.871-1.115l19.036-154.558c.43-3.486,2.78-6.296,6.135-7.335,3.354-1.039,6.883-.049,9.207,2.583l21.758,24.643c.366.414.326,1.046-.088,1.412-.414.366-1.046.326-1.411-.087l-21.758-24.643c-1.797-2.035-4.522-2.799-7.116-1.997-2.593.803-4.41,2.975-4.741,5.669l-19.036,154.558c-.062.507-.494.878-.991.878Z" fill="#494949"></path>
        <ellipse cx="182.976" cy="664.336" rx="28.398" ry="38.507" transform="translate(-486.918 502.89) rotate(-61.051)" fill="#bd0bad"></ellipse>
        <ellipse cx="193.607" cy="743.737" rx="28.398" ry="38.507" transform="translate(-419.795 280.74) rotate(-38.363)" fill="#fff" opacity=".2"></ellipse>
        <ellipse cx="92.161" cy="707.864" rx="38.507" ry="28.398" transform="translate(-621.055 678.063) rotate(-80.189)" fill="#fff" opacity=".5"></ellipse>
        <ellipse cx="182.976" cy="664.336" rx="28.398" ry="38.507" transform="translate(-486.918 502.89) rotate(-61.051)" fill="#fff" opacity=".5"></ellipse>
        <polygon points="163.561 936.21 114.865 936.21 106.795 780.406 171.63 780.406 163.561 936.21" fill="#292a2e"></polygon>
        <polygon points="163.561 936.21 114.865 936.21 106.795 780.406 171.63 780.406 163.561 936.21" fill="#fff" opacity=".3"></polygon>
        <path d="m217.507,774.43c-.148,0-.294-.065-.393-.189l-47.799-60.386c-.171-.217-.135-.531.082-.703.218-.172.532-.134.703.082l47.799,60.386c.171.217.135.531-.082.703-.092.073-.202.108-.31.108Z" fill="#fff"></path>
        <path d="m213.493,687.813c-.102,0-.206-.031-.294-.096l-61.167-44.663c-.223-.163-.272-.476-.109-.699.163-.223.476-.272.699-.109l61.167,44.663c.223.163.272.476.109.699-.098.134-.25.205-.404.205Z" fill="#fff"></path>
        <path d="m83.118,745.161c-.043,0-.086-.005-.129-.017-.267-.071-.425-.345-.354-.612l19.472-72.953c.071-.267.35-.424.612-.354.267.071.425.345.354.612l-19.472,72.953c-.06.224-.262.371-.482.371Z" fill="#fff"></path>
      </g>
      <g>
        <g>
          <path d="m451.152,794.422h-169.143l-26.499,19.848v-105.061c0-8.175,6.627-14.803,14.803-14.803h180.839c8.175,0,14.803,6.627,14.803,14.803v70.41c0,8.175-6.627,14.803-14.803,14.803Z" fill="#f4f4f4"></path>
          <path d="m447.25,716.665h-173.035c-.341,0-.617-.276-.617-.617s.276-.617.617-.617h173.035c.341,0,.617.276.617.617s-.276.617-.617.617Z" fill="#fff"></path>
          <path d="m447.25,736.583h-173.035c-.341,0-.617-.276-.617-.617s.276-.617.617-.617h173.035c.341,0,.617.276.617.617s-.276.617-.617.617Z" fill="#fff"></path>
          <path d="m447.25,756.5h-173.035c-.341,0-.617-.276-.617-.617s.276-.617.617-.617h173.035c.341,0,.617.276.617.617s-.276.617-.617.617Z" fill="#fff"></path>
          <path d="m410.207,776.418h-135.992c-.341,0-.617-.276-.617-.617s.276-.617.617-.617h135.992c.341,0,.617.276.617.617s-.276.617-.617.617Z" fill="#fff"></path>
        </g>
        <g>
          <path d="m294.21,520.861H36.203l-32.691,24.485v-129.607c0-10.086,8.176-18.261,18.261-18.261h272.436c10.086,0,18.261,8.176,18.261,18.261v86.861c0,10.086-8.176,18.261-18.261,18.261Z" fill="#f4f4f4"></path>
          <path d="m289.396,424.936H26.588c-.421,0-.762-.341-.762-.762s.341-.762.762-.762h262.808c.421,0,.762.341.762.762s-.341.762-.762.762Z" fill="#fff"></path>
          <path d="m289.396,449.507H26.588c-.421,0-.762-.341-.762-.762s.341-.762.762-.762h262.808c.421,0,.762.341.762.762s-.341.762-.762.762Z" fill="#fff"></path>
          <path d="m289.396,474.078H26.588c-.421,0-.762-.341-.762-.762s.341-.762.762-.762h262.808c.421,0,.762.341.762.762s-.341.762-.762.762Z" fill="#fff"></path>
          <path d="m243.698,498.65H26.588c-.421,0-.762-.341-.762-.762s.341-.762.762-.762h217.111c.421,0,.762.341.762.762s-.341.762-.762.762Z" fill="#fff"></path>
        </g>
        <g>
          <path d="m458.269,604.303h307.617s38.976,29.193,38.976,29.193v-154.528c0-12.025-9.748-21.773-21.773-21.773h-324.821c-12.025,0-21.773,9.748-21.773,21.773v103.563c0,12.025,9.748,21.773,21.773,21.773Z" fill="#f4f4f4"></path>
          <path d="m464.009,489.934h313.341c.502,0,.908-.407.908-.908,0-.502-.406-.908-.908-.908h-313.341c-.502,0-.908.407-.908.908s.406.908.908.908Z" fill="#fff"></path>
          <path d="m464.009,519.23h313.341c.502,0,.908-.407.908-.908s-.406-.908-.908-.908h-313.341c-.502,0-.908.407-.908.908,0,.502.406.908.908.908Z" fill="#fff"></path>
          <path d="m464.009,548.526h313.341c.502,0,.908-.407.908-.908,0-.502-.406-.908-.908-.908h-313.341c-.502,0-.908.407-.908.908s.406.908.908.908Z" fill="#fff"></path>
          <path d="m518.493,577.822h258.857c.502,0,.908-.407.908-.908s-.406-.908-.908-.908h-258.857c-.502,0-.908.407-.908.908s.406.908.908.908Z" fill="#fff"></path>
        </g>
        <g>
          <path d="m704.659,339.578h258.007s32.691,24.485,32.691,24.485v-129.607c0-10.086-8.176-18.261-18.261-18.261h-272.436c-10.086,0-18.261,8.176-18.261,18.261v86.861c0,10.086,8.176,18.261,18.261,18.261Z" fill="#f4f4f4"></path>
          <path d="m709.472,243.653h262.808c.421,0,.762-.341.762-.762s-.341-.762-.762-.762h-262.808c-.421,0-.762.341-.762.762s.341.762.762.762Z" fill="#fff"></path>
          <path d="m709.472,268.224h262.808c.421,0,.762-.341.762-.762s-.341-.762-.762-.762h-262.808c-.421,0-.762.341-.762.762s.341.762.762.762Z" fill="#fff"></path>
          <path d="m709.472,292.795h262.808c.421,0,.762-.341.762-.762,0-.421-.341-.762-.762-.762h-262.808c-.421,0-.762.341-.762.762s.341.762.762.762Z" fill="#fff"></path>
          <path d="m755.17,317.367h217.111c.421,0,.762-.341.762-.762s-.341-.762-.762-.762h-217.111c-.421,0-.762.341-.762.762s.341.762.762.762Z" fill="#fff"></path>
        </g>
      </g>
      <g>
        <g>
          <rect x="67.491" y="26.202" width="564.97" height="456.164" rx="24.703" ry="24.703" transform="translate(699.952 508.567) rotate(-180)" fill="#fff"></rect>
          <path d="m66.667,457.662V50.905c0-14.075,11.451-25.527,25.527-25.527h515.564c14.075,0,25.527,11.451,25.527,25.527v406.758c0,14.075-11.451,25.527-25.527,25.527H92.194c-14.076,0-25.527-11.451-25.527-25.527ZM92.194,27.025c-13.167,0-23.88,10.712-23.88,23.88v406.758c0,13.167,10.713,23.88,23.88,23.88h515.564c13.167,0,23.88-10.712,23.88-23.88V50.905c0-13.167-10.712-23.88-23.88-23.88H92.194Z" fill="#292a2e"></path>
        </g>
        <path d="m67.491,50.902v24.858s564.967,0,564.967,0v-24.858c0-13.643-11.06-24.703-24.703-24.703H92.194c-13.643,0-24.703,11.06-24.703,24.703Z" fill="#292a2e"></path>
      </g>
      <g>
        <path d="m603.878,178.991h150.661s22.751,17.04,22.751,17.04v-88.924c0-7.236-5.866-13.103-13.103-13.103h-160.309c-7.236,0-13.103,5.866-13.103,13.103v58.782c0,7.236,5.866,13.103,13.103,13.103Z" fill="#367cff"></path>
        <path d="m603.878,178.991h150.661s22.751,17.04,22.751,17.04v-88.924c0-7.236-5.866-13.103-13.103-13.103h-160.309c-7.236,0-13.103,5.866-13.103,13.103v58.782c0,7.236,5.866,13.103,13.103,13.103Z" fill="#fff" opacity=".11"></path>
        <path d="m603.878,178.991h150.661s22.751,17.04,22.751,17.04v-88.924c0-7.236-5.866-13.103-13.103-13.103h-160.309c-7.236,0-13.103,5.866-13.103,13.103v58.782c0,7.236,5.866,13.103,13.103,13.103Z" fill="#fff" opacity=".49"></path>
        <path d="m606.834,129.374h154.397c.315,0,.57-.255.57-.57s-.255-.57-.57-.57h-154.397c-.315,0-.57.255-.57.57s.255.57.57.57Z" fill="#fff"></path>
        <path d="m606.834,113.153h154.397c.315,0,.57-.255.57-.57,0-.315-.255-.57-.57-.57h-154.397c-.315,0-.57.255-.57.57,0,.315.255.57.57.57Z" fill="#fff"></path>
        <path d="m606.834,146.474h154.397c.315,0,.57-.255.57-.57,0-.315-.255-.57-.57-.57h-154.397c-.315,0-.57.255-.57.57,0,.315.255.57.57.57Z" fill="#fff"></path>
        <path d="m606.834,163.574h91.696c.315,0,.57-.255.57-.57s-.255-.57-.57-.57h-91.696c-.315,0-.57.255-.57.57s.255.57.57.57Z" fill="#fff"></path>
      </g>
      <g>
        <path d="m15.889,103.061h162.701s27.589,20.664,27.589,20.664V15.889C206.179,7.114,199.065,0,190.29,0H15.889C7.114,0,0,7.114,0,15.889v71.282c0,8.775,7.114,15.889,15.889,15.889Z" fill="#367cff"></path>
        <path d="m15.889,103.061h162.701s27.589,20.664,27.589,20.664V15.889C206.179,7.114,199.065,0,190.29,0H15.889C7.114,0,0,7.114,0,15.889v71.282c0,8.775,7.114,15.889,15.889,15.889Z" fill="#fff" opacity=".11"></path>
        <path d="m186.705,42.892H19.474c-.382,0-.691-.309-.691-.691s.309-.691.691-.691h167.231c.382,0,.691.309.691.691s-.309.691-.691.691Z" fill="#fff"></path>
        <path d="m186.705,23.222H19.474c-.382,0-.691-.309-.691-.691s.309-.691.691-.691h167.231c.382,0,.691.309.691.691s-.309.691-.691.691Z" fill="#fff"></path>
        <path d="m186.705,63.628H19.474c-.382,0-.691-.309-.691-.691s.309-.691.691-.691h167.231c.382,0,.691.309.691.691,0,.382-.309.691-.691.691Z" fill="#fff"></path>
        <path d="m186.705,84.365h-111.197c-.382,0-.691-.309-.691-.691s.309-.691.691-.691h111.197c.382,0,.691.309.691.691s-.309.691-.691.691Z" fill="#fff"></path>
      </g>
      <g>
        <g>
          <path d="m517.807,158.706c.674-2.585,3.379-4.1,5.957-3.282,2.418.767,3.683,3.447,3.043,5.902l-1.596,6.122,13.905-17.009c1.513-1.918,4.596-3.304,6.636-1.465,1.747,1.378,2.239,3.746,1.327,5.675.022.013.047.02.066.038.015.012.022.029.035.042l2.333-2.958c1.79-2.27,5.258-2.438,7.253-.132,1.483,1.713,1.399,4.293-.004,6.072l-.993,1.259c.024.047.04.098.045.15,1.726-1.383,4.262-1.405,6.018.135,1.907,1.673,1.99,4.635.419,6.627l-2.44,3.094c.13-.036.273-.018.389.073.067.054.105.126.13.202,1.786-.76,3.977-.386,5.411,1.27,1.483,1.713,1.399,4.293-.004,6.072l-20.807,26.377c-5.954,7.549-15.894,10.729-25.124,8.04l-14.528-4.233,12.53-48.07Z" fill="#e98862"></path>
          <g fill="none" opacity=".2">
            <path d="m533.404,171.555c.185.144.452.114.6-.068l13.203-16.192c.151-.185.123-.457-.062-.608-.162-.156-.458-.123-.608.062l-13.203,16.192c-.151.185-.123.457.062.608l.008.006Z" fill="#0c0c0c"></path>
          </g>
          <g fill="none" opacity=".2">
            <path d="m540.385,177.575c.185.144.452.114.6-.068l14.734-18.071c.151-.185.123-.457-.062-.608-.17-.137-.457-.123-.608.062l-14.734,18.071c-.151.185-.123.457.062.608l.008.006Z" fill="#0c0c0c"></path>
          </g>
          <g fill="none" opacity=".2">
            <path d="m547.908,184.138c.185.144.452.114.6-.068l11.753-14.415c.151-.185.123-.457-.062-.608-.19-.149-.457-.123-.608.062l-11.753,14.415c-.151.185-.123.457.062.608l.008.006Z" fill="#0c0c0c"></path>
          </g>
        </g>
        <g>
          <path d="m244.692,127.309s-5.91,33.61-13.413,42.958c-21.6,26.912-29.726,49.085-13.732,68.397,15.993,19.312,131.272,33.6,144.802-4.69,11.391-32.236-3.957-37.721-4.467-65.521-.231-12.579-1.851-39.093-1.851-39.093" fill="#0a0a0a"></path>
          <path id="sk" d="m338.41,218.717c-.201-.026-2.426,36.894-45.316,33.675-29.693-2.224-40.28-33.728-40.96-33.728,3.201-.68,8.592-1.67,10.014-2.429,4.676-2.512,10.461-5.126,11.968-14.206.869-5.233-.605-32.006-.151-37.301l45.579,10.173c-.637,11.183-5.094,37.107,10.529,41.696,2.599.759,5.4,1.457,8.339,2.12Z" fill="#ff9e85"></path>
          <path id="sh" d="m320.181,206.002c-.646-2.061-1.03-3.853-1.371-7.074-.61-5.761-.286-11.057.298-16.453-9.208-1.226-18.048-5.098-25.191-11.036-.846,3.126-5.501,16.783-4.212,19.753,2.436,5.615,13.883,14.81,30.476,14.81Z" fill="#0c0c0c" opacity=".22"></path>
          <path d="m312.189,197.611c-18.048-.442-36.403-9.981-38.289-34.318l-5.558-22.373c-1.887-24.337,9.366-45.057,32.281-46.834h0c22.915-1.776,40.128,7.629,42.014,31.967,0,0,1.283,13.947,1.204,18.608-.298,17.577-4.267,53.622-31.652,52.951Z" fill="#ff9e85"></path>
          <path d="m319.686,172.202c.382.046.599.447.445.799-1.993,4.575-6.967,6.512-11.811,4.835s-7.791-6.33-6.589-11.147c.096-.384.539-.56.87-.342,1.054.697,3.559,2.119,8.478,3.781,4.225,1.428,7.283,1.916,8.607,2.074Z" fill="#fff"></path>
          <path id="e1_eb" d="m340.575,139.859c-.167.764-3.07.363-6.876-.673-3.806-1.036-7.157-2.135-6.908-3.078.314-1.19,3.671-1.311,7.477-.275,3.806,1.036,6.57,2.823,6.307,4.025Z" fill="#0a0a0a"></path>
          <path d="m249.558,146.439l24.505,9.756c15.918-4.489,19.455-41.592,19.455-41.592,0,0,16.524,20.08,62.512,14.758,0,0-2.325-61.562-70.599-50.669-22.015,3.512-39.942,25.346-41.2,54.336-.882,20.316,5.327,13.41,5.327,13.41Z" fill="#0a0a0a"></path>
          <path d="m272.042,170.183c-6.964.54-13.721-2.658-14.505-13.142-.521-6.965,5.586-11.535,12.55-12.075l3.95,4.388,3.992,20.366-5.987.464Z" fill="#ff9e85"></path>
          <g>
            <circle id="e1_eye" cx="335.877" cy="145.748" r="2.5" transform="translate(154.242 463.655) rotate(-83.716)" fill="#0a0a0a"></circle>
            <g id="e1_n">
              <path d="m316.019,165.305c-.503-.055-.892-.483-.889-.999.003-.552.453-.998,1.006-.995l5.325.029-2.082-10.872c-.103-.542.252-1.066.795-1.17.542-.103,1.066.251,1.17.794l2.31,12.066c.056.294-.023.597-.214.827s-.475.362-.775.361l-6.541-.036c-.035,0-.07-.002-.104-.006Z" fill="#0a0a0a"></path>
            </g>
            <path id="e1_eb-2" data-name="e1_eb" d="m310.451,136.016c.157.767-2.658,1.577-6.558,2.175s-7.408.952-7.563-.01c-.196-1.215,2.823-2.687,6.722-3.285,3.899-.598,7.151-.086,7.398,1.12Z" fill="#0a0a0a"></path>
            <circle id="e1_eye-2" data-name="e1_eye" cx="309.997" cy="145.748" r="2.5" transform="translate(131.194 437.93) rotate(-83.716)" fill="#0a0a0a"></circle>
          </g>
          <path d="m261.399,139.235l-1.356,9.447c2.038-1.967,4.805-3.186,7.863-3.213.761-.017,1.505.075,2.225.216,4.138,4.091.195,10.296,3.932,10.51,2.123.122,7.483-4.331,8.977-7.294.947-1.879-3.498-9.977-3.242-12.066" fill="#0a0a0a"></path>
        </g>
        <polygon points="196.424 436.323 188.725 483.256 380.733 483.256 373.556 436.04 196.424 436.323" fill="#262626"></polygon>
        <path id="b_1_b" d="m292.784,243.038c-29.473-1.389-30.713-26.405-30.713-26.405,0,0-14.603.944-24.311,2.257-15.893,2.15-26.378,7.54-34.722,15.883-7.762,7.762-12.487,16.16-7.487,69.775,3.621,38.821.873,131.774.873,131.774l177.132-.284s16.527-119.202,18.014-136.677c2.838-33.361-3.209-61.563-10.136-68.489-14.24-14.24-38.754-14.24-50.996-14.238-.199,0,2.483,28.295-37.654,26.403Z" fill="#367cff"></path>
        <path d="m503.451,180.829l-57.278,104.993-68.35-57.939-42.03,49.583,98.78,83.733.705.607c1.968,1.649,4.168,3.084,6.583,4.256,15.849,7.689,34.931,1.075,42.621-14.775l69.961-144.199-50.991-26.259Z" fill="#367cff"></path>
        <path d="m213.542,393.035l10.783,88.508h-64.993s-10.84-94.028-10.84-94.028c-.04-4.03.68-8.03,2.1-11.8l47.07-132.88,61.79,21.01-45.91,129.19Z" fill="#367cff"></path>
        <polygon points="223.829 481.603 213.031 392.969 213.077 392.851 242.782 317.465 243.713 317.833 214.054 393.1 224.821 481.482 223.829 481.603" fill="#0c0c0c"></polygon>
        <rect x="376.11" y="309.291" width="28.717" height=".865" transform="translate(34.427 658.476) rotate(-82.829)" fill="#0c0c0c"></rect>
      </g>
      <g>
        <path d="m1025.577,938.434H25.157c-.388,0-.702-.314-.702-.702s.314-.702.702-.702h1000.419c.388,0,.702.314.702.702s-.314.702-.702.702Z" fill="#292a2e"></path>
        <g fill="none" opacity=".65">
          <path d="m1025.577,938.434H25.157c-.388,0-.702-.314-.702-.702s.314-.702.702-.702h1000.419c.388,0,.702.314.702.702s-.314.702-.702.702Z" fill="#292a2e"></path>
        </g>
      </g>
      <g>
        <circle cx="349.976" cy="412.451" r="46.83" fill="#fff" opacity=".49"></circle>
        <circle cx="349.976" cy="412.451" r="34.68" fill="#fff"></circle>
        <path d="m373.348,423.864c.837.558,1.089,1.676.57,2.54l-2.27,3.782c-.603,1.023-1.575,1.776-2.716,2.1-3.773,1.035-12.093,1.243-25.43-12.092-13.335-13.337-13.127-21.658-12.092-25.43.324-1.142,1.077-2.115,2.098-2.718l3.784-2.27c.863-.517,1.981-.266,2.539.572l6.032,9.048c.546.821.367,1.926-.411,2.533l-3.388,2.634c-.734.566-.945,1.584-.496,2.397.994,1.788,1.936,3.895,6.601,8.566,4.665,4.671,6.778,5.607,8.566,6.601.812.45,1.829.239,2.395-.497l2.635-3.386c.607-.78,1.711-.959,2.533-.411l9.048,6.03Z" fill="#bd0bad"></path>
      </g>
      <g>
        <g>
          <path d="m883.82,520.307c-49.793,0-90.158,13.584-90.158,30.341v36.121h180.315v-36.121c0-16.757-40.365-30.341-90.158-30.341Z" fill="#367cff"></path>
          <path d="m883.82,520.307c-49.793,0-90.158,13.584-90.158,30.341v36.121h180.315v-36.121c0-16.757-40.365-30.341-90.158-30.341Z" fill="#fff" opacity=".49"></path>
          <path d="m949.417,550.652v36.115h-155.757v-36.115c0-15.36,33.896-28.05,77.878-30.056,43.982,2.006,77.878,14.696,77.878,30.056Z" fill="#fff" opacity=".49"></path>
          <polygon points="973.977 937.743 977.003 937.743 973.977 583.565 970.977 586.59 973.117 833.994 866.304 835.809 864.149 586.565 861.149 586.59 863.304 835.86 798.825 836.956 796.661 586.565 793.661 583.59 796.686 937.732 799.661 937.717 798.851 839.957 863.33 838.861 864.149 937.743 867.149 937.717 866.33 838.81 973.143 836.994 973.977 937.743" fill="#292a2e"></polygon>
        </g>
        <g>
          <path d="m698.531,884.705s-5.362,27.794-31.385,29.343c-26.023,1.549-20.38,22.28-20.38,22.28h99.444v-49.684s-47.68-1.938-47.68-1.938Z" fill="#367cff"></path>
          <path d="m755.269,801.11s7.457,27.306-15.209,40.183c-22.667,12.877-8.452,28.988-8.452,28.988l89.232-43.896-21.931-44.582-43.639,19.307Z" fill="#367cff"></path>
          <path d="m745.828,819.157l-67.238-253.689c-5.103-28.026,2.578-40.174,14.41-51.975,20.786-20.733,106.917-64.861,106.917-64.861l103.329-.282c27.398,0,54.334,27.017,54.334,54.416s-27.854,50.633-55.252,50.633l-127.242,12.698,34.491,232.286-63.749,20.775Z" fill="#262626"></path>
          <polygon points="809.577 798.383 795.999 706.935 727.207 748.899 745.828 819.157 809.577 798.383" fill="#0c0c0c"></polygon>
          <path d="m825.171,499.968s-43.437,9.681-86.457,52.701c-26.083,26.083-23.944,73.284-20.031,164.067l42.727-63.11,46.864-84.522,16.897-69.136Z" fill="#0c0c0c"></path>
          <path d="m975.568,448.319l-70.173-.331-.027.924h-21.248s-53.224,48.979-96.078,79.842c-31.17,22.448-50.185,43.85-51.83,67.177-4.011,56.86-49.249,299.365-49.249,299.365l68.082,10.309,59.742-289.811s93.425-43.068,115.034-58.056c20.348-14.114,34.721-19.569,41.454-34.971,11.63-26.601,4.293-74.447,4.293-74.447Z" fill="#262626"></path>
        </g>
        <g>
          <g>
            <path id="sk-2" data-name="sk" d="m839.911,233.842c.204-.027,2.469,37.552,46.124,34.276,30.222-2.264,40.998-34.329,41.691-34.329-3.258-.693-7.285-1.744-8.886-2.104-5.317-1.198-11.954-5.586-13.488-14.827-.884-5.327.616-32.577.154-37.966l-46.391,10.355c.648,11.382,5.185,37.769-10.716,42.439-2.646.772-5.496,1.483-8.488,2.157Z" fill="#ff9e85"></path>
            <path id="sh-2" data-name="sh" d="m858.465,220.9c.657-2.097,1.048-3.921,1.395-7.2.621-5.864.291-11.254-.303-16.747,9.372-1.247,18.369-5.189,25.64-11.233.861,3.181,5.599,17.082,4.287,20.106-2.479,5.715-14.131,15.074-31.019,15.074Z" fill="#0c0c0c" opacity=".22"></path>
            <g>
              <path d="m839.852,140.378s-11.286-12.154-10.493-35.373c.614-17.978,14.77-3.745,14.77-3.745,0,0,.568-12.941,9.553-10.05,8.985,2.89,11.787,17.088,11.787,17.088" fill="#0c0c0c"></path>
              <path d="m901.032,101.148s44.833,13.019,17.309,72.016l-4.092-.447-8.307-.908" fill="#0c0c0c"></path>
              <path d="m864.032,209.537c18.307,1.585,41.897-5.969,46.554-30.374l4.202-22.021c4.656-24.405-4.387-46.635-27.366-51.02h0c-22.979-4.384-43.929,12.123-48.586,36.528l-1.86,9.749c-.383,2.007-.859,5.648-1.05,10.159-.38,9-.924,22.69,3.437,32.79,4.117,9.536,12.973,13.176,24.669,14.189Z" fill="#ff9e85"></path>
              <path d="m856.053,184.471c-.384-.025-.67.33-.583.705,1.125,4.861,5.663,7.673,10.732,6.907s8.814-4.804,8.51-9.76c-.024-.396-.428-.649-.793-.494-1.163.494-3.886,1.434-9.026,2.173-4.415.634-7.51.556-8.84.47Z" fill="#fff"></path>
              <g>
                <g>
                  <circle id="e1_eye-3" data-name="e1_eye" cx="845.133" cy="154.243" r="2.551" transform="translate(657.48 992.591) rotate(-87.726)" fill="#0a0a0a"></circle>
                  <g id="e1_n-2" data-name="e1_n">
                    <path d="m861.739,176.86c.516.02.973-.352,1.049-.873.081-.558-.305-1.075-.864-1.156l-5.377-.779,3.752-10.653c.187-.532-.092-1.114-.624-1.301-.531-.187-1.114.092-1.301.623l-4.163,11.824c-.101.288-.068.606.09.867s.424.438.727.482l6.605.957c.036.005.071.008.106.01Z" fill="#0a0a0a"></path>
                  </g>
                  <path id="e1_eb-3" data-name="e1_eb" d="m871.804,148.153c-.275.75,2.443,1.995,6.286,3.19s7.33,2.085,7.632,1.138c.382-1.196-2.4-4.16-6.243-5.355-3.843-1.195-7.242-.152-7.675,1.027Z" fill="#0a0a0a"></path>
                  <circle id="e1_eye-4" data-name="e1_eye" cx="873.796" cy="156.842" r="2.551" transform="translate(682.41 1023.727) rotate(-87.726)" fill="#0a0a0a"></circle>
                </g>
                <path id="e1_eb-4" data-name="e1_eb" d="m840.826,147.457c.053.797,3.042.832,7.04.365,3.998-.467,7.545-1.068,7.437-2.056-.136-1.248-3.464-2.899-7.462-2.432-3.998.467-7.099,2.87-7.015,4.123Z" fill="#0a0a0a"></path>
              </g>
              <path d="m907.74,186.326c6.983,1.332,14.07-5.058,15.402-12.041,1.332-6.983-3.594-11.914-10.577-13.247l-4.491,3.993-6.338,20.15,6.004,1.146Z" fill="#ff9e85"></path>
              <path d="m904.941,174.03c-1.186-.103-2.068-1.139-1.971-2.325.627-7.664,2.074-33.494-6.526-36.896-6.737-2.665-25.449,4.238-40.618-1.545-6.636-2.53-13.459-1.989-14.699,1.138-.491,1.238-1.49-17.983,11.755-30.083,10.546-9.634,39.131-7.805,51.232-1.882,33.506,16.4,9.622,60.382,9.622,60.382l-3.171,10.001c-.306.966-1.241,1.59-2.25,1.502l-3.375-.292Z" fill="#0c0c0c"></path>
              <ellipse cx="868.102" cy="105.164" rx="14.326" ry="9.733" transform="translate(447.072 871.581) rotate(-68.125)" fill="#0c0c0c"></ellipse>
            </g>
          </g>
          <path d="m787.718,314.52c1.348,15.833,10.903,114.61,12.199,134.112h175.575c1.009-17.589,5.538-94.5,9.364-128.895,3.652-32.821,8.77-47.757,4.564-57.957-7.418-17.989-31.03-26.023-47.019-28.188-9.764-1.322-24.449-2.269-24.449-2.269,0,0-1.243,25.153-30.891,26.553-40.36,1.904-37.664-26.553-37.864-26.553-6.538,0-42.128,4.755-51.027,10.555-12.569,8.192-16.284,19.357-16.431,29.614-.169,11.81,4.449,25.071,5.98,43.028Z" fill="#367cff"></path>
          <g>
            <path d="m633.071,229.836c-1.21-2.381-4.177-3.284-6.521-1.933-2.198,1.266-2.861,4.154-1.712,6.416l2.867,5.64-17.218-13.646c-1.888-1.551-5.196-2.246-6.796-.014-1.412,1.719-1.387,4.138-.084,5.827-.019.017-.042.03-.056.051-.012.015-.015.033-.025.048l-2.911-2.391c-2.234-1.835-5.657-1.258-7.114,1.42-1.082,1.99-.45,4.493,1.301,5.931l1.239,1.018c-.013.051-.018.104-.012.156-1.981-.982-4.464-.462-5.85,1.418-1.506,2.042-.954,4.953,1.006,6.563l3.045,2.501c-.134-.007-.27.041-.364.154-.053.067-.076.146-.084.226-1.907-.361-3.968.472-5.014,2.397-1.082,1.99-.45,4.493,1.301,5.931l25.962,21.322c7.43,6.102,17.819,7.086,26.262,2.486l13.289-7.239-22.512-44.283Z" fill="#e98862"></path>
            <g fill="none" opacity=".2">
              <path d="m620.579,245.721c-.15.18-.417.208-.601.062l-16.357-12.998c-.187-.149-.218-.42-.069-.608.125-.187.421-.218.608-.069l16.357,12.998c.187.149.218.42.069.608l-.006.008Z" fill="#0c0c0c"></path>
            </g>
            <g fill="none" opacity=".2">
              <path d="m615.046,253.093c-.15.18-.417.208-.601.062l-18.255-14.506c-.187-.149-.218-.42-.069-.608.137-.17.421-.218.608-.069l18.255,14.506c.187.149.218.42.069.608l-.006.008Z" fill="#0c0c0c"></path>
            </g>
            <g fill="none" opacity=".2">
              <path d="m609.099,261.113c-.15.18-.417.208-.601.062l-14.562-11.571c-.187-.149-.218-.42-.069-.608.154-.186.421-.218.608-.069l14.562,11.571c.187.149.218.42.069.608l-.006.008Z" fill="#0c0c0c"></path>
            </g>
          </g>
          <g>
            <path d="m881.726,485.377c-2.6.611-4.181,3.278-3.425,5.876.709,2.436,3.357,3.765,5.826,3.185l6.159-1.447-17.341,13.489c-1.954,1.466-3.415,4.515-1.625,6.599,1.335,1.779,3.69,2.329,5.641,1.464.012.022.019.048.036.067.012.015.028.023.041.036l-3.013,2.261c-2.312,1.735-2.564,5.197-.308,7.248,1.677,1.524,4.258,1.503,6.07.143l1.283-.962c.047.025.097.042.149.049-1.424,1.692-1.508,4.227-.011,6.019,1.626,1.947,4.585,2.102,6.615.579l3.152-2.365c-.039.129-.025.272.063.391.053.068.124.108.199.135-.803,1.767-.483,3.966,1.139,5.44,1.677,1.524,4.258,1.503,6.07.143l26.873-20.162c7.69-5.77,11.111-15.629,8.646-24.922l-3.88-14.627-48.36,11.363Z" fill="#e98862"></path>
            <g fill="none" opacity=".2">
              <path d="m894.194,501.281c.139.188.103.454-.083.598l-16.507,12.807c-.189.146-.46.112-.607-.077-.152-.166-.112-.461.077-.607l16.507-12.807c.189-.146.46-.112.607.077l.006.008Z" fill="#0c0c0c"></path>
            </g>
            <g fill="none" opacity=".2">
              <path d="m900.043,508.406c.139.188.103.454-.083.598l-18.422,14.292c-.189.146-.46.112-.607-.077-.133-.173-.112-.46.077-.607l18.422-14.292c.189-.146.46-.112.607.077l.006.008Z" fill="#0c0c0c"></path>
            </g>
            <g fill="none" opacity=".2">
              <path d="m906.422,516.085c.139.188.103.454-.083.598l-14.695,11.401c-.189.146-.46.112-.607-.077-.144-.193-.112-.46.077-.607l14.695-11.401c.189-.146.46-.112.607.077l.006.008Z" fill="#0c0c0c"></path>
            </g>
          </g>
          <path d="m1047.596,382.855l-.33-.682-58.399-120.729-58.514,28.304,48.361,99.977-83.458,83.733,40.287,42.103,104.936-95.754c10.006-9.145,13.323-24.125,7.118-36.953Z" fill="#367cff"></path>
          <path d="m920,449.131c-.129,0-.258-.05-.356-.148-.194-.197-.192-.514.005-.707l59.455-58.652-44.199-88.647c-.124-.247-.023-.547.224-.67.25-.125.548-.022.67.225l44.361,88.972c.097.193.058.427-.096.578l-59.713,58.906c-.097.097-.224.145-.351.145Z" fill="#0c0c0c"></path>
          <path d="m793.77,244.911l-81.692,75.381-60.131-75.157-40.098,40.329,67.149,93.055c6.04,12.072,19.046,19.378,32.408,17.463,5.014-.719,9.927-2.653,14.286-5.871l1.515-1.119,109.589-91.71-43.026-52.369Z" fill="#367cff"></path>
          <path d="m790.078,336.408c-.247,0-.461-.183-.495-.434l-3.796-28.502c-.037-.274.156-.525.43-.562.273-.03.525.157.562.43l3.796,28.502c.037.274-.156.525-.43.562-.022.003-.044.004-.066.004Z" fill="#0c0c0c"></path>
          <path d="m722.164,335.456c-.176,0-.347-.094-.438-.259l-10.085-14.664c-.133-.241-.045-.546.197-.679.241-.137.545-.046.679.196l10.085,14.664c.133.241.045.546-.197.679-.076.043-.159.062-.241.062Z" fill="#0c0c0c"></path>
        </g>
      </g>
    </g>
  </g>
</svg>