<svg id="Layer_2" data-name="Layer 2" xmlns="http://www.w3.org/2000/svg" viewBox="0 0 751.831 810.281" style="width: 100%; height: 100%;">
  <g id="Layer_2-2" data-name="Layer 2">
    <g>
      <g>
        <polygon points="676.148 716.719 424.828 716.81 424.846 568.277 676.148 568.277 676.148 716.719" fill="#efefef"></polygon>
        <path d="m657.379,601.143h-213.763c-.279,0-.505-.334-.505-.747s.226-.747.505-.747h213.763c.279,0,.505.334.505.747s-.226.747-.505.747Z" fill="#fff"></path>
        <path d="m657.379,630.705h-213.763c-.279,0-.505-.334-.505-.747s.226-.747.505-.747h213.763c.279,0,.505.334.505.747s-.226.747-.505.747Z" fill="#fff"></path>
        <path d="m657.379,660.266h-213.763c-.279,0-.505-.334-.505-.747s.226-.747.505-.747h213.763c.279,0,.505.334.505.747s-.226.747-.505.747Z" fill="#fff"></path>
        <path d="m550.787,689.828h-107.171c-.279,0-.505-.334-.505-.747s.226-.747.505-.747h107.171c.279,0,.505.334.505.747s-.226.747-.505.747Z" fill="#fff"></path>
      </g>
      <g>
        <path d="m661.523,679.139c-.256,0-.512-.098-.707-.293-1.409-1.408-3.705-27.255-9.891-104.211-2.532-31.497-4.923-61.247-6.668-79.327-.125-1.291-.625-1.441-.79-1.49-2.366-.711-9.651,5.007-13.707,10.022-.347.429-.976.497-1.406.148-.43-.347-.496-.977-.148-1.406,2.682-3.315,11.424-12.004,15.837-10.681.891.268,1.996,1.043,2.205,3.215,1.747,18.095,4.139,47.853,6.671,79.358,3.759,46.765,8.017,99.744,9.417,103.08.281.391.246.939-.105,1.291-.195.195-.451.293-.707.293Z" fill="#494949"></path>
        <ellipse cx="623.926" cy="506.325" rx="38.507" ry="28.398" transform="translate(-179.582 501.486) rotate(-38.715)" fill="#bd0bad"></ellipse>
        <ellipse cx="623.926" cy="506.325" rx="38.507" ry="28.398" transform="translate(-179.582 501.486) rotate(-38.715)" fill="#fff" opacity=".2"></ellipse>
        <path d="m598.534,533.518c-.112,0-.226-.038-.319-.115-.212-.176-.242-.491-.065-.704l47.29-57.028c.176-.212.491-.24.704-.065.212.176.242.491.065.704l-47.29,57.028c-.099.119-.241.181-.385.181Z" fill="#fff"></path>
        <path d="m671.837,666.913c-.109,0-.22-.018-.328-.056-.521-.182-.798-.751-.616-1.272l17.764-51.087c1.065-3.066,3.585-5.351,6.74-6.112,3.158-.764,6.441.121,8.788,2.364l9.391,8.972c.399.381.414,1.014.032,1.413-.38.4-1.014.415-1.413.032l-9.391-8.972c-1.854-1.771-4.45-2.465-6.938-1.866-2.49.602-4.479,2.405-5.321,4.825l-17.764,51.087c-.144.413-.53.672-.944.672Z" fill="#494949"></path>
        <ellipse cx="715.916" cy="617.807" rx="28.398" ry="38.507" transform="translate(-228.867 577.72) rotate(-38.363)" fill="#bd0bad"></ellipse>
        <path d="m653.453,675.881c-.452,0-.862-.309-.972-.768l-29.811-124.645c-.423-1.767-1.729-3.079-3.494-3.51-1.767-.432-3.529.132-4.719,1.506l-9.189,10.619c-.361.418-.992.463-1.41.102s-.463-.992-.102-1.41l9.189-10.619c1.664-1.923,4.229-2.744,6.705-2.141,2.471.604,4.373,2.515,4.965,4.988l29.811,124.645c.128.537-.203,1.076-.74,1.205-.078.019-.156.027-.233.027Z" fill="#494949"></path>
        <ellipse cx="614.471" cy="581.935" rx="38.507" ry="28.398" transform="translate(-63.654 1088.263) rotate(-80.189)" fill="#bd0bad"></ellipse>
        <path d="m661.524,679.139c-.04,0-.082-.002-.123-.008-.548-.067-.938-.566-.87-1.114l19.036-154.558c.429-3.485,2.779-6.297,6.135-7.336,3.354-1.037,6.882-.049,9.206,2.584l21.759,24.643c.365.414.326,1.046-.088,1.412-.413.366-1.044.327-1.412-.088l-21.759-24.643c-1.795-2.034-4.517-2.801-7.115-1.997-2.593.803-4.409,2.976-4.741,5.669l-19.036,154.558c-.062.507-.493.878-.991.878Z" fill="#494949"></path>
        <ellipse cx="705.286" cy="538.406" rx="28.398" ry="38.507" transform="translate(-107.227 894.961) rotate(-61.051)" fill="#bd0bad"></ellipse>
        <ellipse cx="715.916" cy="617.807" rx="28.398" ry="38.507" transform="translate(-228.867 577.72) rotate(-38.363)" fill="#fff" opacity=".2"></ellipse>
        <ellipse cx="614.471" cy="581.935" rx="38.507" ry="28.398" transform="translate(-63.654 1088.263) rotate(-80.189)" fill="#fff" opacity=".5"></ellipse>
        <ellipse cx="705.286" cy="538.406" rx="28.398" ry="38.507" transform="translate(-107.227 894.961) rotate(-61.051)" fill="#fff" opacity=".5"></ellipse>
        <polygon points="685.871 810.281 637.174 810.281 629.105 654.477 693.94 654.477 685.871 810.281" fill="#292a2e"></polygon>
        <polygon points="685.871 810.281 637.174 810.281 629.105 654.477 693.94 654.477 685.871 810.281" fill="#fff" opacity=".3"></polygon>
        <path d="m739.816,648.5c-.147,0-.293-.065-.392-.189l-47.799-60.387c-.172-.217-.135-.531.081-.702.215-.173.53-.135.702.081l47.799,60.387c.172.217.135.531-.081.702-.092.073-.201.108-.311.108Z" fill="#fff"></path>
        <path d="m735.803,561.883c-.103,0-.206-.031-.295-.097l-61.166-44.662c-.223-.162-.271-.476-.109-.698.165-.223.479-.271.699-.108l61.166,44.662c.223.162.271.476.109.698-.099.134-.251.205-.404.205Z" fill="#fff"></path>
        <path d="m605.427,619.231c-.042,0-.086-.006-.129-.017-.267-.071-.426-.346-.354-.612l19.472-72.953c.071-.267.343-.422.612-.354.267.071.426.346.354.612l-19.472,72.953c-.06.224-.262.371-.483.371Z" fill="#fff"></path>
      </g>
      <g>
        <polygon points="444.652 392.802 751.831 393.256 751.831 279.547 444.652 279.547 444.652 392.802" fill="#efefef"></polygon>
        <path d="m725.383,311.085h-254.282c-.519,0-.939-.42-.939-.939s.42-.939.939-.939h254.282c.519,0,.939.42.939.939s-.42.939-.939.939Z" fill="#fff"></path>
        <path d="m725.383,339.248h-254.282c-.519,0-.939-.42-.939-.939s.42-.939.939-.939h254.282c.519,0,.939.42.939.939s-.42.939-.939.939Z" fill="#fff"></path>
        <path d="m725.383,367.411h-151.019c-.519,0-.939-.42-.939-.939s.42-.939.939-.939h151.019c.519,0,.939.42.939.939s-.42.939-.939.939Z" fill="#fff"></path>
      </g>
      <g>
        <polygon points="400.033 228.643 28.301 228.734 28.328 80.202 400.033 80.202 400.033 228.643" fill="#efefef"></polygon>
        <path d="m372.271,113.068H56.09c-.413,0-.747-.334-.747-.747s.334-.747.747-.747h316.181c.413,0,.747.334.747.747s-.334.747-.747.747Z" fill="#fff"></path>
        <path d="m372.271,142.629H56.09c-.413,0-.747-.334-.747-.747s.334-.747.747-.747h316.181c.413,0,.747.334.747.747s-.334.747-.747.747Z" fill="#fff"></path>
        <path d="m372.271,172.191H56.09c-.413,0-.747-.334-.747-.747s.334-.747.747-.747h316.181c.413,0,.747.334.747.747s-.334.747-.747.747Z" fill="#fff"></path>
        <path d="m214.609,201.752H56.09c-.413,0-.747-.334-.747-.747s.334-.747.747-.747h158.519c.413,0,.747.334.747.747s-.334.747-.747.747Z" fill="#fff"></path>
      </g>
      <g>
        <rect x="273.309" width="324.241" height="661.255" rx="37.372" ry="37.372" fill="#292a2e"></rect>
        <rect x="285.136" y="11.67" width="300.587" height="637.043" rx="25.662" ry="25.662" fill="#fff"></rect>
        <path d="m373.867,6.845h123.124v12.74c0,7.604-6.173,13.777-13.777,13.777h-95.571c-7.604,0-13.777-6.173-13.777-13.777V6.845h0Z" fill="#292a2e"></path>
        <g>
          <g>
            <path d="m319.23,469.709c23.496-6.216,31.424-33.293,48.122-33.312,16.067-.018,18.723,31.516,48.122,33.312-26.789,4.047-28.943,33.369-48.122,33.369-16.008,0-19.838-26.39-48.122-33.369Z" fill="#367cff" opacity=".2"></path>
            <path d="m347.952,469.697c32.968-8.722,44.092-46.715,67.521-46.741,22.544-.025,26.271,44.221,67.521,46.741-37.588,5.678-40.611,46.821-67.521,46.821-22.462,0-27.835-37.029-67.521-46.821Z" fill="#367cff" opacity=".2"></path>
            <path d="m440.041,469.719c15.077-3.989,20.164-21.364,30.879-21.376,10.31-.012,12.014,20.223,30.879,21.376-17.19,2.597-18.572,21.413-30.879,21.413-10.272,0-12.73-16.934-30.879-21.413Z" fill="#367cff" opacity=".2"></path>
            <path d="m468.808,469.713c20.219-5.349,27.041-28.65,41.41-28.666,13.826-.016,16.112,27.12,41.41,28.666-23.053,3.482-24.906,28.715-41.41,28.715-13.776,0-17.071-22.71-41.41-28.715Z" fill="#367cff" opacity=".2"></path>
            <rect x="306.172" y="469.276" width="258.516" height=".923" fill="#367cff" opacity=".2"></rect>
          </g>
          <ellipse cx="435.429" cy="244.484" rx="78.991" ry="80.636" fill="#367cff" opacity=".7"></ellipse>
          <rect x="417.477" y="193.938" width="35.905" height="72.246" rx="17.952" ry="17.952" fill="#fff"></rect>
          <path d="m464.828,249.084v-9.555c0-1.035-.822-1.873-1.835-1.873s-1.835.839-1.835,1.873v9.555c0,14.482-11.541,26.264-25.728,26.264s-25.729-11.782-25.729-26.264v-9.555c0-1.035-.822-1.873-1.835-1.873s-1.835.839-1.835,1.873v9.555c0,15.918,12.206,28.975,27.564,29.947v13.965h-18.641c-1.013,0-1.835.839-1.835,1.873s.822,1.873,1.835,1.873h40.951c1.013,0,1.835-.839,1.835-1.873s-.822-1.873-1.835-1.873h-18.641v-13.965c15.358-.971,27.563-14.028,27.563-29.947Z" fill="#fff"></path>
          <path d="m435.43,349.651c-56.807,0-103.022-47.178-103.022-105.168s46.216-105.168,103.022-105.168,103.022,47.178,103.022,105.168-46.216,105.168-103.022,105.168Zm0-209.146c-56.164,0-101.857,46.644-101.857,103.978s45.693,103.978,101.857,103.978,101.856-46.644,101.856-103.978-45.693-103.978-101.856-103.978Z" fill="#367cff" opacity=".3"></path>
        </g>
      </g>
      <g>
        <polygon points="661.887 164.348 578.417 164.348 555.272 182.044 555.272 75.174 661.887 75.174 661.887 164.348" fill="#367cff"></polygon>
        <path d="m627.894,89.455c0-.971-.472-1.873-1.263-2.411-.787-.537-1.783-.637-2.666-.268l-27.221,11.533c-1.064.452-1.751,1.503-1.751,2.678v28.888c-1.139-.503-2.393-.784-3.711-.784-5.178,0-9.391,4.301-9.391,9.588s4.213,9.586,9.391,9.586,9.39-4.3,9.39-9.586v-35.757l21.543-9.127v22.708c-1.14-.503-2.394-.784-3.712-.784-5.178,0-9.39,4.3-9.39,9.587s4.212,9.586,9.39,9.586,9.391-4.3,9.391-9.586c0-.042-.006-.083-.006-.125,0-.021.006-.041.006-.063v-35.663Z" fill="#fff"></path>
      </g>
      <g>
        <g>
          <path d="m103.873,765.751s4.515,23.404,26.428,24.708c21.913,1.304,17.161,18.761,17.161,18.761H63.723v-41.837s40.15-1.632,40.15-1.632Z" fill="#367cff"></path>
          <path d="m58.044,338.82s.263-7.036.207,8.924c-.207,59.529,1.776,432.943,1.776,432.943l55.026-.462,33.333-443.823-90.342,2.419Z" fill="#262626"></path>
          <path d="m197.834,765.751s4.515,23.404,26.428,24.708,17.161,18.761,17.161,18.761h-83.739v-41.837s40.15-1.632,40.15-1.632Z" fill="#367cff"></path>
          <path d="m208.477,343.443s6.874,203.456,6.16,213.4l-6.464,222.303-54.117,1-8.726-231.343s-5.72-63.816-21.139-123.073c-7.912-30.406-12.613-61.557-14.168-92.938h0s98.454,10.651,98.454,10.651Z" fill="#262626"></path>
          <path d="m137.085,487.693l4.513-69.009s4.635,28.689,4.635,53.417c0,12.087-2.49,59.942-2.49,59.942l-6.658-44.35Z" fill="#0a0a0a"></path>
          <path d="m57.446,338.814l-.18.01s.13-3.47.18-.01Z" fill="#333"></path>
        </g>
        <g>
          <path d="m57.672,338.814l-.18.01s.13-3.47.18-.01Z" fill="#333"></path>
          <g>
            <path d="m359.198,173.676c-.726-1.423-2.205-2.099-3.628-1.921,0-.064-.001-.13-.04-.186-.071-.098-.181-.126-.291-.119l2.461-1.764c1.487-1.066,2.095-3.091,1.218-4.697-.909-1.666-2.871-2.268-4.497-1.591.006-.035-.017-.068-.022-.104l1.011-.725c1.399-1.003,2.003-2.868,1.282-4.431-.971-2.103-3.537-2.711-5.322-1.431l-2.333,1.672c-.007-.014,0-.03-.009-.043-.01-.017-.034-.017-.048-.032,1.08-1.216,1.222-3.054.234-4.431-1.101-1.772-3.644-1.41-5.152-.329l-13.732,9.486,2.455-4.132c.984-1.657.626-3.879-.978-4.949-1.71-1.141-4.003-.604-5.04,1.14l-13.402,22.563c-3.269,5.504-1.567,12.609,3.842,16.034h0c6.171,3.908,14.096,3.68,20.032-.575l20.738-14.864c1.368-.981,1.987-3.071,1.223-4.57Z" fill="#ff9e85"></path>
            <g fill="none" opacity=".25">
              <path d="m335.443,167.754c.105.144.306.178.453.077l13.048-9.037c.149-.103.186-.308.083-.457-.086-.148-.308-.186-.457-.083l-13.048,9.037c-.149.103-.186.308-.083.457l.005.006Z" fill="#0c0c0c"></path>
            </g>
            <g fill="none" opacity=".25">
              <path d="m339.27,173.619c.105.144.306.178.453.077l14.561-10.086c.149-.103.186-.308.083-.457-.095-.136-.308-.186-.457-.083l-14.561,10.086c-.149.103-.186.308-.083.457l.005.006Z" fill="#0c0c0c"></path>
            </g>
            <g fill="none" opacity=".25">
              <path d="m343.379,179.995c.105.144.306.178.453.077l11.616-8.045c.149-.103.186-.308.083-.457-.107-.148-.308-.186-.457-.083l-11.616,8.045c-.149.103-.186.308-.083.457l.005.006Z" fill="#0c0c0c"></path>
            </g>
          </g>
          <path d="m305.455,172.514l-39.359,67.032-48.025-62.992-39.883,35.957,68.111,88.211.446.628c2.375,3.262,5.515,6.044,9.328,8.049,13.306,6.998,29.766,1.884,36.763-11.423l55.968-101.354-43.35-24.108Z" fill="#367cff"></path>
          <path d="m262.238,247.607c-.077,0-.154-.018-.228-.055-.246-.125-.344-.427-.218-.673l3.858-7.561c.125-.246.428-.343.673-.218.246.125.344.427.218.673l-3.858,7.561c-.088.173-.264.272-.445.272Z" fill="#0c0c0c"></path>
          <g>
            <g>
              <path d="m90.99,83.246s-5.394,29.316-12.012,37.43c-19.052,23.358-26.303,42.669-12.467,59.647,13.836,16.979,114.429,30.254,126.511-3.097,10.172-28.078-3.196-32.975-3.449-57.261-.115-10.988-1.347-34.159-1.347-34.159" fill="#0a0a0a"></path>
              <path id="sk" d="m173.097,162.839c-.175-.023-2.119,32.227-39.583,29.415-25.936-1.943-35.184-29.461-35.778-29.461,2.796-.594,7.505-1.459,8.747-2.121,4.084-2.194,9.137-4.478,10.454-12.409.759-4.571-.528-27.957-.132-32.582l39.812,8.886c-.556,9.768-4.45,32.413,9.197,36.421,2.271.663,4.716,1.272,7.284,1.852Z" fill="#ff9e85"></path>
              <path id="sh" d="m157.175,151.733c-.564-1.8-.899-3.365-1.198-6.179-.533-5.032-.249-9.658.26-14.372-8.043-1.071-15.764-4.453-22.004-9.64-.739,2.73-4.805,14.66-3.679,17.254,2.128,4.905,12.127,12.936,26.62,12.936Z" fill="#0c0c0c" opacity=".22"></path>
              <path d="m149.461,145.117c-15.761-.511-31.727-8.969-33.207-30.24l-4.701-19.581c-1.48-21.271,8.492-39.291,28.52-40.685h0c20.027-1.393,34.997,6.941,36.477,28.212,0,0,1.024,12.191.923,16.262-.381,15.351-4.097,46.807-28.012,46.032Z" fill="#ff9e85"></path>
              <path id="e1_eb" d="m177.978,95.816c-.152.666-2.684.296-6.001-.635-3.318-.931-6.237-1.915-6.013-2.736.283-1.037,3.215-1.12,6.533-.189,3.318.931,5.72,2.511,5.481,3.56Z" fill="#0a0a0a"></path>
              <path d="m95.109,99.988l21.337,8.69c13.935-3.811,17.28-36.194,17.28-36.194,0,0,14.295,17.653,54.5,13.322,0,0-1.606-53.788-61.316-44.744-19.253,2.916-35.062,21.863-36.362,47.176-.911,17.739,4.56,11.75,4.56,11.75Z" fill="#0a0a0a"></path>
              <path d="m114.583,120.883c-6.086.423-11.966-2.416-12.579-11.579-.407-6.087,4.959-10.037,11.045-10.461l3.42,3.86,3.346,17.816-5.233.364Z" fill="#ff9e85"></path>
              <g>
                <circle id="e1_eye" cx="171.678" cy="102.522" r="2.184" transform="translate(49.725 260.989) rotate(-83.264)" fill="#0a0a0a"></circle>
                <g id="e1_n">
                  <path d="m156.639,116.926c-.439-.052-.776-.428-.77-.879.006-.482.402-.868.885-.862l4.651.062-1.744-9.51c-.087-.474.227-.93.702-1.016.474-.087.929.227,1.017.702l1.935,10.555c.047.257-.024.522-.193.721s-.418.313-.679.31l-5.713-.077c-.031,0-.062-.003-.091-.006Z" fill="#0a0a0a"></path>
                </g>
                <g id="e1_m">
                  <path d="m153.321,126.497c-7.898.552-10.582-4.056-10.704-4.273-.236-.421-.085-.953.335-1.189.418-.235.948-.087,1.186.33.113.196,2.852,4.715,11.471,3.068.483-.094.932.221,1.022.694.09.474-.22.931-.694,1.022-.93.178-1.802.29-2.617.347Z" fill="#0a0a0a"></path>
                </g>
                <path id="e1_eb-2" data-name="e1_eb" d="m151.692,92.251c.132.671-2.333,1.359-5.743,1.855-3.41.495-6.477.781-6.606-.061-.162-1.063,2.484-2.328,5.894-2.823,3.41-.495,6.247-.025,6.454,1.029Z" fill="#0a0a0a"></path>
                <circle id="e1_eye-2" data-name="e1_eye" cx="148.81" cy="101.027" r="2.184" transform="translate(31.025 236.959) rotate(-83.264)" fill="#0a0a0a"></circle>
              </g>
              <path d="m105.501,93.777l-1.249,8.242c1.794-1.704,4.219-2.75,6.89-2.752.665-.009,1.314.076,1.942.204,3.586,3.602.099,8.994,3.362,9.207,1.853.121,6.566-3.731,7.892-6.309.84-1.635-2.987-8.739-2.748-10.561" fill="#0a0a0a"></path>
            </g>
            <path d="m216.449,230.511c-1.135,13.332-6.655,96.51-7.746,112.931H58.331c-.849-14.811-4.664-79.575-7.885-108.539-3.075-27.638-9.108-41.475-4.686-49.646,7.226-13.354,26.972-21.071,40.436-22.894,8.222-1.113,20.587-1.911,20.587-1.911,0,0,1.047,21.181,26.013,22.359,33.986,1.603,31.716-22.359,31.884-22.359,5.506,0,36.958,3.485,44.653,8.046,20.968,12.417,9.525,33.759,7.116,62.012Z" fill="#367cff"></path>
            <g>
              <path d="m217.65,295.966c-.109-1.594-1.204-2.796-2.582-3.191.025-.059.05-.12.036-.187-.027-.118-.117-.187-.221-.224l2.956-.656c1.786-.397,3.14-2.02,2.965-3.842-.182-1.889-1.75-3.213-3.511-3.229.019-.03.011-.07.02-.104l1.214-.27c1.68-.373,2.969-1.852,2.919-3.572-.067-2.315-2.188-3.881-4.332-3.406l-2.803.622c0-.015.012-.028.008-.043-.002-.02-.025-.03-.032-.048,1.47-.694,2.323-2.329,1.956-3.984-.317-2.062-2.797-2.727-4.609-2.325l-16.354,3.332,3.88-2.837c1.556-1.137,2.099-3.322,1.044-4.935-1.125-1.72-3.445-2.128-5.083-.93l-21.185,15.489c-5.167,3.778-6.392,10.981-2.762,16.254h0c4.141,6.017,11.519,8.919,18.649,7.336l24.909-5.528c1.643-.365,3.034-2.044,2.919-3.723Z" fill="#ff9e85"></path>
              <g fill="none" opacity=".25">
                <path d="m198.129,281.193c.04.173.211.284.386.248l15.548-3.189c.178-.037.292-.21.256-.388-.021-.17-.21-.292-.388-.256l-15.548,3.189c-.178.037-.292.21-.256.388l.002.008Z" fill="#0c0c0c"></path>
              </g>
              <g fill="none" opacity=".25">
                <path d="m199.346,288.089c.04.173.211.284.386.248l17.352-3.558c.178-.037.292-.21.256-.388-.034-.162-.21-.292-.388-.256l-17.352,3.558c-.178.037-.292.21-.256.388l.002.008Z" fill="#0c0c0c"></path>
              </g>
              <g fill="none" opacity=".25">
                <path d="m200.621,295.566c.04.173.211.284.386.248l13.841-2.838c.178-.037.292-.21.256-.388-.04-.179-.21-.292-.388-.256l-13.841,2.838c-.178.037-.292.21-.256.388l.002.008Z" fill="#0c0c0c"></path>
              </g>
            </g>
            <path id="b_4_b" d="m188.283,315.077l-135.145,24.423c-.993.108-1.985.161-2.973.161-7.514,0-14.753-3.087-19.968-8.615-5.901-6.256-8.531-14.915-7.104-23.395l18.92-112.457c2.516-14.953,16.674-25.032,31.63-22.519,14.953,2.516,25.035,16.677,22.519,31.63l-12.901,77.415,99.081-12.443,5.941,45.802Z" fill="#367cff"></path>
            <g id="b_4_b-2" data-name="b_4_b">
              <path d="m53.137,339.999c-.237,0-.447-.169-.491-.411-.049-.271.132-.532.403-.581l134.677-24.338-5.816-44.836-98.587,12.381c-.163.02-.313-.035-.423-.149s-.159-.272-.133-.429l8.201-49.478c.045-.271.3-.463.575-.411.272.045.456.303.411.575l-8.092,48.815,98.416-12.359c.268-.033.522.158.559.432l5.941,45.802c.034.265-.145.509-.407.557l-135.145,24.423c-.03.005-.06.008-.09.008Z" fill="#0c0c0c"></path>
            </g>
            <rect x="74.512" y="281.916" width="8.804" height="1.001" transform="translate(-43.649 16.024) rotate(-9.095)" fill="#0c0c0c"></rect>
          </g>
          <rect x="204.597" y="249.279" width="21.206" height="1" transform="translate(-46.371 450.48) rotate(-86.752)" fill="#0c0c0c"></rect>
        </g>
      </g>
      <path d="m745.263,810.281H.737c-.406,0-.737-.329-.737-.737s.33-.737.737-.737h744.527c.407,0,.737.329.737.737s-.329.737-.737.737Z" fill="#292a2e"></path>
    </g>
  </g>
</svg>