<svg id="Layer_2" data-name="Layer 2" xmlns="http://www.w3.org/2000/svg" viewBox="0 0 985.74 729.187" style="width: 100%; height: 100%;">
  <g id="Layer_2-2" data-name="Layer 2">
    <g>
      <g>
        <g>
          <path d="m26.041,554.4c-56.965-115.464-21.531-246.471,116.752-292.488,106.254-35.359,269.212-38.321,337.02-146.938,109.917-176.069,384.452-156.38,483.057,103.964,89.723,236.893-96.623,613.327-348.643,483.843-210.012-107.901-243.804,12.051-380.335,3.327-105.294-6.728-188.635-112.755-207.852-151.707Z" fill="#f3f5fd"></path>
          <path d="m26.041,554.4c-56.965-115.464-21.531-246.471,116.752-292.488,106.254-35.359,269.212-38.321,337.02-146.938,109.917-176.069,384.452-156.38,483.057,103.964,89.723,236.893-96.623,613.327-348.643,483.843-210.012-107.901-243.804,12.051-380.335,3.327-105.294-6.728-188.635-112.755-207.852-151.707Z" fill="#367cff"></path>
          <g fill="none" opacity=".75">
            <path d="m26.041,554.4c-56.965-115.464-21.531-246.471,116.752-292.488,106.254-35.359,269.212-38.321,337.02-146.938,109.917-176.069,384.452-156.38,483.057,103.964,89.723,236.893-96.623,613.327-348.643,483.843-210.012-107.901-243.804,12.051-380.335,3.327-105.294-6.728-188.635-112.755-207.852-151.707Z" fill="#292a2e"></path>
          </g>
        </g>
        <g fill="none" opacity=".18">
          <circle cx="326.365" cy="263.407" r="4.087" fill="#fff"></circle>
          <circle cx="364.627" cy="339.103" r="7.43" fill="#fff"></circle>
          <circle cx="599.522" cy="131.906" r="7.43" fill="#fff"></circle>
          <circle cx="364" cy="549.426" r="3.847" fill="#fff"></circle>
          <circle cx="703.133" cy="455.035" r="10.827" fill="#fff"></circle>
          <circle cx="320.336" cy="645.326" r="6.029" fill="#fff"></circle>
          <circle cx="783.716" cy="90.153" r="10.755" fill="#fff"></circle>
          <circle cx="714.03" cy="285.485" r="5.448" fill="#fff"></circle>
          <circle cx="55.152" cy="405.336" r="5.448" fill="#fff"></circle>
          <circle cx="522.836" cy="406.492" r="7.159" fill="#fff"></circle>
          <circle cx="448.682" cy="609.784" r="5.377" fill="#fff"></circle>
          <circle cx="820.299" cy="319.347" r="11.311" fill="#fff"></circle>
          <circle cx="880.852" cy="171.188" r="6.654" fill="#fff"></circle>
          <circle cx="508.443" cy="546.971" r="7.233" fill="#fff"></circle>
          <circle cx="740.337" cy="657.663" r="8.545" fill="#fff"></circle>
          <circle cx="915.876" cy="441.641" r="10.755" fill="#fff"></circle>
          <circle cx="899.533" cy="291.818" r="6.654" fill="#fff"></circle>
          <circle cx="645.932" cy="634.8" r="5.655" fill="#fff"></circle>
        </g>
        <g>
          <path d="m733.06,224.668c14.98,5.1,30.305,9.382,44.21,12.258-13.372,13.153-33.498,18.456-52.468,11.997-18.97-6.459-31.691-22.947-34.258-41.526,12.771,6.207,27.537,12.171,42.516,17.271Z" fill="#bd0bad"></path>
          <path d="m789.812,216.938c-1.987,5.836-4.919,11.069-8.575,15.602-13.162-2.542-28.881-6.651-46.545-12.665-17.664-6.014-32.624-12.352-44.615-18.374-.131-5.822.74-11.757,2.727-17.593,1.245-3.655,2.864-7.076,4.798-10.242.971-1.595,2.026-3.122,3.148-4.572,13.015-16.858,35.783-24.418,57.078-17.168,21.295,7.251,34.706,27.129,34.729,48.427.004,1.834-.092,3.687-.296,5.543-.4,3.689-1.204,7.386-2.449,11.042Z" fill="#bd0bad"></path>
          <g>
            <path d="m829.25,233.549c-3.158,9.275-24.87,8.984-51.981,3.377,1.406-1.38,2.733-2.841,3.967-4.386,25.71,4.969,41.661,3.955,43.22-.623,1.522-4.47-9.894-14.616-32.195-26.02.204-1.856.3-3.709.296-5.543,23.6,11.753,39.749,24.219,36.693,33.195Z" fill="#fff"></path>
            <path d="m781.237,232.54c-1.235,1.545-2.561,3.006-3.967,4.386-13.905-2.876-29.23-7.158-44.21-12.258-14.98-5.1-29.746-11.064-42.516-17.271-.272-1.951-.431-3.918-.467-5.896,11.991,6.022,26.951,12.36,44.615,18.374,17.664,6.014,33.383,10.123,46.545,12.665Z" fill="#fff"></path>
            <path d="m690.543,207.396c-24.899-12.102-42.278-25.12-39.12-34.396,3.056-8.976,23.469-8.993,49.326-3.906-1.122,1.45-2.177,2.976-3.148,4.572-24.627-4.574-39.863-3.503-41.385.967-1.559,4.578,10.472,15.12,33.86,26.868.035,1.978.195,3.945.467,5.896Z" fill="#fff"></path>
          </g>
        </g>
        <g>
          <circle cx="522.836" cy="267.494" r="46.019" fill="#367cff"></circle>
          <g fill="none" opacity=".79">
            <circle cx="522.836" cy="267.494" r="46.019" fill="#fff"></circle>
          </g>
          <g fill="none" opacity=".18">
            <circle cx="547.845" cy="248.639" r="9.612" fill="#367cff"></circle>
          </g>
          <g fill="none" opacity=".18">
            <path d="m540.346,224.93c-.06,1.099-.401,2.206-1.037,3.201-1.969,3.059-6.044,3.948-9.103,1.979-2.828-1.813-3.802-5.42-2.39-8.371,4.242.455,8.461,1.509,12.53,3.192Z" fill="#367cff"></path>
          </g>
          <g fill="none" opacity=".18">
            <circle cx="506.723" cy="258.253" r="20.45" fill="#367cff"></circle>
          </g>
          <path d="m556.78,298.565c-4.592,5.044-10.156,8.883-16.219,11.401-1.451-1.731-2.327-3.962-2.327-6.399,0-5.495,4.455-9.957,9.95-9.957,3.668,0,6.878,1.991,8.595,4.955Z" fill="#367cff" opacity=".18"></path>
        </g>
        <g>
          <path d="m874.781,497.684c.83,2.918,1.349,5.85,1.583,8.762.508,6.35-.365,12.609-2.406,18.413-4.679,13.261-15.51,24.135-30.066,28.276-14.556,4.141-29.49.596-40.448-8.217-4.79-3.86-8.827-8.723-11.738-14.389-1.333-2.599-2.435-5.365-3.266-8.283-1.011-3.553-1.563-7.125-1.694-10.651-.244-6.499.944-12.857,3.35-18.682,5.05-12.282,15.475-22.205,29.233-26.119,13.758-3.914,27.845-.963,38.604,6.821,5.112,3.685,9.468,8.467,12.682,14.121,1.744,3.066,3.155,6.394,4.166,9.948Z" fill="#367cff"></path>
          <g fill="none" opacity=".64">
            <path d="m874.781,497.684c.83,2.918,1.349,5.85,1.583,8.762.508,6.35-.365,12.609-2.406,18.413-4.679,13.261-15.51,24.135-30.066,28.276-14.556,4.141-29.49.596-40.448-8.217-4.79-3.86-8.827-8.723-11.738-14.389-1.333-2.599-2.435-5.365-3.266-8.283-1.011-3.553-1.563-7.125-1.694-10.651-.244-6.499.944-12.857,3.35-18.682,5.05-12.282,15.475-22.205,29.233-26.119,13.758-3.914,27.845-.963,38.604,6.821,5.112,3.685,9.468,8.467,12.682,14.121,1.744,3.066,3.155,6.394,4.166,9.948Z" fill="#fff"></path>
          </g>
          <g fill="none" opacity=".28">
            <path d="m870.615,487.737l-83.869,23.859c-.244-6.499.944-12.857,3.35-18.682l67.837-19.298c5.112,3.685,9.468,8.467,12.682,14.121Z" fill="#fff"></path>
          </g>
          <g fill="none" opacity=".28">
            <path d="m876.364,506.446c.508,6.35-.365,12.609-2.406,18.413l-70.514,20.06c-4.79-3.86-8.827-8.723-11.738-14.389l84.658-24.083Z" fill="#fff"></path>
          </g>
        </g>
      </g>
      <g>
        <g>
          <g>
            <path id="sk" d="m311.712,355.136c-.293-.038-3.54,53.844-66.136,49.146-43.335-3.246-58.785-49.223-59.778-49.223,4.672-.993,10.446-2.5,12.741-3.017,7.624-1.718,17.141-8.009,19.34-21.26,1.268-7.638-.883-46.711-.221-54.438l66.518,14.847c-.929,16.32-7.435,54.155,15.366,60.852,3.794,1.108,7.88,2.126,12.17,3.093Z" fill="#ff9e85"></path>
            <path id="sh" d="m285.108,336.58c-.942-3.007-1.503-5.623-2.001-10.324-.891-8.408-.417-16.136.435-24.012-13.438-1.789-26.339-7.441-36.764-16.107-1.235,4.562-8.028,24.493-6.147,28.829,3.555,8.195,20.261,21.614,44.477,21.614Z" fill="#0c0c0c" opacity=".52"></path>
          </g>
          <g>
            <path d="m305.915,217.554s15.286-18.218,12.476-51.412c-2.176-25.701-21.422-4.298-21.422-4.298,0,0-1.747-18.491-14.405-13.704-12.658,4.787-15.647,25.321-15.647,25.321" fill="#0c0c0c"></path>
            <path d="m215.474,165.786s-63.264,21.877-19.594,104.377l5.828-.936,11.83-1.9" fill="#0c0c0c"></path>
            <path d="m276.276,318.335c-26.102,3.59-60.429-5.526-68.857-40.14l-7.605-31.232c-8.428-34.613,2.919-67.1,35.51-75.035h0c32.59-7.936,63.782,14.193,72.211,48.806l3.367,13.827c.693,2.846,1.638,8.026,2.236,14.472,1.194,12.861,2.959,32.426-2.557,47.205-5.207,13.952-17.628,19.804-34.304,22.098Z" fill="#ff9e85"></path>
            <g>
              <g id="e1_n">
                <path d="m279.778,272.071c-.787,0-1.462-.595-1.546-1.395-.09-.855.53-1.621,1.386-1.71l8.243-.862-5.074-16.464c-.252-.822.208-1.692,1.031-1.946.821-.252,1.692.207,1.946,1.029l5.63,18.274c.137.445.067.928-.19,1.316s-.673.641-1.137.69l-10.126,1.059c-.055.006-.109.008-.163.008Z" fill="#0a0a0a"></path>
              </g>
              <g id="e1_m">
                <path d="m277.948,289.697c-14.108,0-18.306-8.525-18.495-8.925-.366-.777-.033-1.705.743-2.072.772-.366,1.696-.036,2.067.735.176.363,4.484,8.735,20.008,6.88.871-.108,1.629.508,1.731,1.361.102.853-.508,1.628-1.36,1.73-1.675.2-3.239.291-4.695.291Z" fill="#0a0a0a"></path>
              </g>
            </g>
            <circle cx="301.98" cy="233.948" r="4.131" fill="#0c0c0c"></circle>
            <circle cx="262.706" cy="243.212" r="4.131" fill="#0c0c0c"></circle>
            <path d="m212.011,288.248c-9.904,2.412-20.513-6.229-22.924-16.133-2.412-9.904,4.287-17.321,14.191-19.733l6.719,5.394,10.529,28.399-8.515,2.073Z" fill="#ff9e85"></path>
            <path d="m218.221,270.013s-7.947-49.893,6.25-56.354c9.455-4.303,36.749,4.234,58.054-5.142,9.321-4.102,19.13-3.818,21.131.57.792,1.738.837-25.86-19.003-42.233-15.797-13.036-56.6-8.355-73.502,1-46.799,25.902-9.424,87.163-9.424,87.163l6.131,16.421,10.363-1.426Z" fill="#0c0c0c"></path>
            <path d="m289.046,226.889c.931-.752,2.311-1.561,3.611-2.096,1.334-.567,2.745-.947,4.18-1.128,1.433-.185,2.9-.198,4.342.057,1.457.186,2.86.692,4.251,1.246l.107.042c.742.295,1.583-.067,1.878-.809.28-.704-.037-1.499-.703-1.831-1.551-.767-3.166-1.48-4.903-1.845-1.717-.432-3.517-.561-5.295-.465-1.783.091-3.554.431-5.244,1.001-1.724.592-3.246,1.275-4.925,2.427-.99.68-1.242,2.034-.562,3.024.68.99,2.034,1.242,3.024.563.046-.031.09-.064.133-.098l.107-.087Z" fill="#0c0c0c"></path>
            <path d="m264.548,228.385c-2.003-.363-3.672-.362-5.487-.195-1.775.172-3.531.588-5.194,1.236-1.662.642-3.251,1.497-4.639,2.595-1.435,1.044-2.615,2.357-3.716,3.692-.508.616-.42,1.528.196,2.036.585.482,1.435.428,1.955-.105l.084-.086c1.042-1.075,2.115-2.112,3.368-2.879,1.211-.823,2.554-1.413,3.937-1.831,1.382-.423,2.825-.655,4.274-.684,1.406-.046,2.996.127,4.153.432l.129.034c1.162.306,2.351-.388,2.657-1.55.306-1.162-.388-2.351-1.55-2.657-.053-.014-.112-.027-.166-.037Z" fill="#0c0c0c"></path>
            <ellipse cx="262.92" cy="169.163" rx="13.955" ry="20.541" transform="translate(-46.677 125.654) rotate(-24.758)" fill="#0c0c0c"></ellipse>
          </g>
        </g>
        <path d="m371.908,364.282c-13.37-7.92-62.8-12.24-72.37-12.24-.29,0,3.65,41.63-55.39,38.85-43.38-2.05-45.2-38.85-45.2-38.85,0,0-21.48,1.39-35.77,3.32-23.39,3.17-45.1,16.91-58.25,39.78-13.18,22.92-9.2,38.23-3.86,86.25,4.87,43.78,10.52,134.63,12.87,174.45,2.76,2.15,5.57,4.26,8.42,6.33,1.751,1.271,3.524,2.523,5.311,3.761.13.09.259.181.389.271,1.757,1.213,3.533,2.407,5.324,3.585.086.057.17.116.257.173h.005c29.563,19.407,63.575,33.813,100.255,36.15,58.97,3.77,98.77-16.47,141.88-31.98-.09-2.71-.14-4.16-.14-4.16l-.325-.01h.715c1.89-28.53,8.42-173.04,10.4-196.2,4.18-49.09,21.91-87.9-14.52-109.48Z" fill="#367cff"></path>
        <g>
          <path d="m614.588,419.94c1.584-4.366,6.512-6.553,10.845-4.72,4.063,1.719,5.82,6.563,4.315,10.71l-3.753,10.343,23.572-24.036c2.93-3.077,8.493-4.978,11.727-1.464,2.801,2.668,9.278,3.49,10.329,8.49.036.026-.03,45.788-2.747,48.641h0c-11.53,12.107-39.4,14.449-54.948,8.302l-24.471-9.676,25.131-46.589Z" fill="#ff9e85"></path>
          <g fill="none" opacity=".1">
            <path d="m614.588,419.94c1.584-4.366,6.512-6.553,10.845-4.72,4.063,1.719,5.82,6.563,4.315,10.71l-3.753,10.343,23.572-24.036c2.93-3.077,8.493-4.978,11.727-1.464,2.801,2.668,9.278,3.49,10.329,8.49.036.026-.03,45.788-2.747,48.641h0c-11.53,12.107-39.4,14.449-54.948,8.302l-24.471-9.676,25.131-46.589Z" fill="#0c0c0c"></path>
          </g>
          <g>
            <path d="m708.581,379.453c0-5.785-4.95-10.331-10.714-9.839l-47.611,4.064c-8.811.752-15.581,8.124-15.581,16.967v4.112s0,77.041,0,77.041c0,5.453,4.421,9.874,9.874,9.874h0c5.453,0,9.874-4.421,9.874-9.874v-63.293c0-5.951,5.225-10.55,11.129-9.794l31.9,4.085c5.903.756,11.129-3.843,11.129-9.794v-13.549Z" fill="#f2f2f2"></path>
            <path d="m644.55,482.674c-5.996,0-10.874-4.878-10.874-10.874v-81.153c0-9.438,7.091-17.161,16.495-17.964l47.611-4.064c3.021-.258,6.043.771,8.279,2.825,2.236,2.054,3.52,4.973,3.52,8.01v13.549c0,3.124-1.345,6.099-3.689,8.163-2.346,2.064-5.464,3.021-8.566,2.623l-31.899-4.084c-2.523-.321-5.076.457-6.991,2.141-1.913,1.684-3.011,4.112-3.011,6.662v63.293c0,5.996-4.878,10.875-10.874,10.875Zm54.183-112.096c-.259,0-.519.011-.78.034l-47.611,4.064c-8.36.714-14.665,7.58-14.665,15.971v81.153c0,4.893,3.98,8.874,8.874,8.874s8.875-3.981,8.875-8.875v-63.293c0-3.124,1.344-6.099,3.688-8.163,2.346-2.063,5.465-3.019,8.566-2.623l31.899,4.084c2.53.321,5.077-.457,6.99-2.141,1.914-1.685,3.012-4.112,3.012-6.662v-13.549c0-2.515-1.02-4.836-2.872-6.537-1.658-1.523-3.757-2.339-5.977-2.339Z" fill="#0c0c0c"></path>
          </g>
          <path d="m637.675,448.556c.955-3.362,3.794-4.74,6.427-4.859-.019-.116-.145-.385.057-.406l-5.008-2.432c-3.027-1.47-4.758-4.951-3.668-8.135,1.13-3.302,4.498-5.003,7.656-4.281-.022-.061.01-.129.008-.195l-2.058-.999c-2.847-1.383-4.522-4.576-3.7-7.633,1.106-4.113,5.567-6.012,9.2-4.248l4.749,2.306c.008-.027-.009-.054.003-.081.013-.034.057-.042.077-.072-2.335-1.868-3.163-5.156-1.802-7.959,1.445-3.554,6.166-3.688,9.236-2.197l9.307,5.448c2.918,1.708,4.782,4.762,4.977,8.138.83,14.377,2.1,51.982-7.7,47.224l-24.125-11.715c-2.784-1.352-4.482-4.926-3.636-7.904Z" fill="#ff9e85"></path>
        </g>
        <path d="m596.576,428.853l-122.287,97.73-83.602-142.884-82.476,48.257,111.495,190.555.84,1.452c1.558,2.623,3.397,5.131,5.521,7.482,17.253,19.098,46.721,20.595,65.819,3.342l156.494-139.465-51.805-66.47Z" fill="#367cff"></path>
        <g>
          <g>
            <path d="m484.508,463.792c0-5.785-4.95-10.331-10.714-9.839l-47.611,4.064c-8.811.752-15.581,8.124-15.581,16.967v4.112s0,77.041,0,77.041c0,5.453,4.421,9.874,9.874,9.874h0c5.453,0,9.874-4.421,9.874-9.874v-63.293c0-5.951,5.225-10.55,11.129-9.794l31.9,4.085c5.903.756,11.129-3.843,11.129-9.794v-13.549Z" fill="#f2f2f2"></path>
            <path d="m420.477,567.013c-5.996,0-10.875-4.878-10.875-10.875v-81.153c0-9.438,7.091-17.161,16.496-17.964l47.611-4.064c3.023-.255,6.043.771,8.279,2.825,2.236,2.054,3.52,4.974,3.52,8.01v13.548c0,3.124-1.345,6.1-3.689,8.163-2.345,2.064-5.467,3.019-8.565,2.623l-31.9-4.084c-2.532-.323-5.077.457-6.991,2.141s-3.011,4.112-3.011,6.662v63.293c0,5.996-4.878,10.875-10.874,10.875Zm54.182-112.097c-.259,0-.519.011-.78.034l-47.611,4.064c-8.361.713-14.666,7.579-14.666,15.971v81.153c0,4.894,3.981,8.875,8.875,8.875s8.875-3.981,8.875-8.875v-63.293c0-3.124,1.344-6.099,3.689-8.163,2.346-2.063,5.468-3.019,8.566-2.623l31.9,4.084c2.524.323,5.075-.457,6.989-2.141,1.914-1.685,3.012-4.113,3.012-6.662v-13.548c0-2.515-1.021-4.836-2.872-6.537-1.659-1.523-3.757-2.339-5.977-2.339Z" fill="#0c0c0c"></path>
          </g>
          <path d="m398.234,488.589c1.491-4.109,6.129-6.167,10.207-4.442,3.824,1.618,5.477,6.177,4.061,10.079l-2.065,5.692,16.635-9.482c3.839-2.675,9.451-3.766,13.1-1.717,3.826,2.148,6.67,7.138,7.659,11.844.034.025,2.765,21.287-1.991,31.986-6.392,14.377-35.612,27.034-50.245,21.249l-23.03-9.106,25.669-56.103Z" fill="#ff9e85"></path>
        </g>
        <path d="m384.007,522.633c-.01,0-.02,0-.029,0-.48-.015-.856-.417-.84-.896l1.737-53.176c.016-.48.473-.877.896-.84.48.015.856.417.84.896l-1.737,53.176c-.015.47-.4.841-.867.841Z" fill="#0c0c0c"></path>
        <path d="m389.026,493.314l-143.865,42.604-49.097-129.61-95.794,38.636,71.618,167.231.984,2.3c9.603,22.292,35.024,33.548,58.184,25.238l184.24-66.106-26.27-80.293Z" fill="#367cff"></path>
        <path d="m215.462,643.303c-18.356,0-35.756-10.768-43.386-28.484l-.985-2.302-63.77-132.653c-.208-.433-.025-.952.406-1.16.433-.21.952-.025,1.16.406l63.786,132.688.999,2.335c9.467,21.974,34.546,32.854,57.092,24.762l183.445-65.822-25.745-78.688-143.054,42.365c-.42.121-.868-.084-1.043-.486l-39.962-91.735c-.192-.44.01-.952.45-1.144.442-.193.953.01,1.144.45l39.655,91.031,143.128-42.386c.455-.135.926.117,1.072.563l26.27,80.293c.147.446-.089.929-.532,1.088l-184.24,66.107c-5.234,1.877-10.602,2.772-15.888,2.772Z" fill="#0c0c0c"></path>
        <path d="m220.526,544.486c-.37,0-.713-.238-.829-.61-.143-.457.112-.945.57-1.088l24.637-7.699c.454-.147.944.111,1.088.57.143.457-.112.945-.57,1.088l-24.637,7.699c-.086.027-.173.04-.259.04Z" fill="#0c0c0c"></path>
        <g>
          <path d="m244.963,247.773l-46.981,5.877c-2.513.314-4.805-1.468-5.119-3.981h0c-.314-2.513,1.468-4.805,3.981-5.119l46.981-5.877,1.138,9.099Z" fill="#f2f2f2"></path>
          <path d="m197.409,254.685c-2.773,0-5.185-2.07-5.538-4.892-.382-3.056,1.793-5.853,4.849-6.235l46.981-5.877c.265-.036.529.04.738.203.209.163.346.402.378.666l1.138,9.1c.069.548-.32,1.048-.868,1.116l-46.981,5.877c-.234.029-.467.043-.697.043Zm45.548-14.896l-45.989,5.753c-1.961.245-3.358,2.041-3.113,4.002.119.95.601,1.797,1.357,2.385.756.588,1.695.847,2.646.728l45.989-5.753-.89-7.115Z" fill="#0c0c0c"></path>
        </g>
        <g>
          <path d="m324.663,242.454l-2.529-20.221c-.898-7.181-7.448-12.275-14.63-11.377l-64.756,8.101c-.512.064-1.01.164-1.5.284l-9.553,1.195c-7.182.898-12.275,7.448-11.377,14.63l2.53,20.221c.898,7.181,7.448,12.275,14.63,11.377l64.756-8.101c.512-.064,1.01-.164,1.5-.284l9.553-1.195c7.182-.898,12.275-7.448,11.377-14.63Z" fill="#f2f2f2"></path>
          <path d="m235.842,267.765c-7.004,0-13.094-5.229-13.986-12.354l-2.53-20.221c-.468-3.738.548-7.435,2.861-10.409,2.312-2.974,5.645-4.869,9.384-5.337l9.496-1.188c.556-.134,1.066-.23,1.557-.291l64.755-8.101c3.741-.468,7.436.548,10.409,2.861,2.974,2.313,4.87,5.646,5.337,9.384l2.529,20.221c.468,3.738-.548,7.435-2.861,10.409-2.312,2.974-5.645,4.869-9.384,5.337l-9.496,1.188c-.559.134-1.068.229-1.557.291l-64.755,8.101c-.591.074-1.179.11-1.76.11Zm73.313-56.012c-.507,0-1.016.031-1.527.095l-64.755,8.101c-.43.054-.883.14-1.385.263-.038.009-.076.016-.114.021l-9.553,1.195c-6.623.829-11.337,6.891-10.509,13.514l2.53,20.221c.829,6.623,6.891,11.338,13.514,10.508l64.755-8.101c.428-.054.881-.14,1.387-.263.037-.009.075-.016.113-.021l9.553-1.195c6.623-.829,11.337-6.891,10.509-13.514h0l-2.529-20.221c-.401-3.208-2.028-6.068-4.581-8.053-2.146-1.669-4.731-2.551-7.406-2.551Z" fill="#0c0c0c"></path>
        </g>
        <g>
          <rect x="243.93" y="213.366" width="91.469" height="46.588" rx="13.105" ry="13.105" transform="translate(-27.136 37.786) rotate(-7.13)" fill="#f2f2f2"></rect>
          <path d="m258.523,264.927c-3.118,0-6.129-1.028-8.629-2.972-2.974-2.313-4.87-5.646-5.337-9.384l-2.529-20.221c-.468-3.738.548-7.435,2.861-10.409,2.313-2.974,5.646-4.87,9.384-5.337l64.755-8.101c7.712-.966,14.78,4.528,15.746,12.245l2.53,20.221c.965,7.717-4.527,14.781-12.245,15.746l-64.756,8.101c-.595.075-1.189.111-1.779.111Zm62.263-54.534c-.499,0-1.003.031-1.511.094l-64.755,8.101c-3.208.401-6.068,2.028-8.053,4.581s-2.857,5.725-2.456,8.933l2.529,20.221c.401,3.208,2.028,6.068,4.581,8.053,2.553,1.985,5.728,2.859,8.933,2.456l64.756-8.101c6.623-.829,11.337-6.891,10.508-13.514l-2.53-20.221c-.765-6.115-5.993-10.603-12.002-10.603Zm4.148,45.33h.01-.01Z" fill="#0c0c0c"></path>
        </g>
      </g>
    </g>
  </g>
</svg>